Fraunces72ptExtraSoft-Bold.ufo
<glyph name="exclam" format="2">
  <advance width="623.72"/>
  <unicode hex="0021"/>
  <outline>
    <contour>
      <point x="312.52000000000004" y="1480.08" type="curve" smooth="yes"/>
      <point x="167.88" y="1480.08"/>
      <point x="102.66666666666667" y="1411.5333333333333"/>
      <point x="102.66666666666667" y="1298.8933333333334" type="curve" smooth="yes"/>
      <point x="102.66666666666667" y="1269.5333333333333"/>
      <point x="108.49333333333333" y="1223.8266666666666"/>
      <point x="116.22666666666666" y="1185.5066666666664" type="curve" smooth="yes"/>
      <point x="218.42666666666668" y="562.5733333333334" type="line" smooth="yes"/>
      <point x="232.56" y="495.56000000000006"/>
      <point x="261.90666666666664" y="468.74666666666667"/>
      <point x="312.52000000000004" y="468.74666666666667" type="curve" smooth="yes"/>
      <point x="362.8666666666667" y="468.74666666666667"/>
      <point x="392.1866666666666" y="495.76000000000005"/>
      <point x="406.32" y="562.9733333333334" type="curve" smooth="yes"/>
      <point x="508.62666666666667" y="1185.5066666666664" type="line" smooth="yes"/>
      <point x="516.36" y="1223.8266666666666"/>
      <point x="522.2800000000001" y="1269.5333333333333"/>
      <point x="522.2800000000001" y="1298.8933333333334" type="curve" smooth="yes"/>
      <point x="522.2800000000001" y="1411.5333333333333"/>
      <point x="456.8933333333334" y="1480.08"/>
    </contour>
    <component base="period" xOffset="28.093333333333337"/>
  </outline>
</glyph>
<glyph name="numbersign" format="2">
  <advance width="1310.6933333333334"/>
  <unicode hex="0023"/>
  <outline>
    <contour>
      <point x="520.0933333333334" y="683.6933333333333" type="curve" smooth="yes"/>
      <point x="561.2334230014242" y="850.0169497897111"/>
      <point x="655.6800000000001" y="1154.6533333333334"/>
      <point x="692.36" y="1294.2933333333333" type="curve" smooth="yes"/>
      <point x="707.9066666666666" y="1353.0533333333335"/>
      <point x="691.2666666666667" y="1392.0"/>
      <point x="640.7066666666666" y="1405.5333333333333" type="curve" smooth="yes"/>
      <point x="590.3599999999999" y="1419.84"/>
      <point x="556.2533333333333" y="1394.2266666666667"/>
      <point x="540.8133333333334" y="1336.8666666666666" type="curve" smooth="yes"/>
      <point x="505.56" y="1197.6000000000001"/>
      <point x="447.8290662972837" y="885.3836967583615"/>
      <point x="404.8666666666667" y="718.0133333333333" type="curve" smooth="yes"/>
      <point x="361.7368013856155" y="547.1493595662588"/>
      <point x="250.10666666666665" y="243.96"/>
      <point x="212.54666666666665" y="99.78666666666666" type="curve" smooth="yes"/>
      <point x="198.39999999999998" y="43.026666666666664"/>
      <point x="215.24" y="5.08"/>
      <point x="266.28000000000003" y="-9.653333333333334" type="curve" smooth="yes"/>
      <point x="317.12" y="-22.560000000000002"/>
      <point x="350.02666666666664" y="2.2533333333333334"/>
      <point x="365.8666666666667" y="58.63999999999999" type="curve" smooth="yes"/>
      <point x="401.55999999999995" y="198.41333333333333"/>
      <point x="477.85798693121" y="515.0728049665541"/>
    </contour>
    <contour>
      <point x="697.7733333333333" y="993.0266666666666" type="curve" smooth="yes"/>
      <point x="551.6533333333333" y="991.12"/>
      <point x="287.7466666666667" y="1025.466666666667"/>
      <point x="166.08" y="1024.466666666667" type="curve" smooth="yes"/>
      <point x="111.2" y="1023.6666666666667"/>
      <point x="78.60000000000001" y="997.8266666666667"/>
      <point x="78.60000000000001" y="942.9466666666667" type="curve" smooth="yes"/>
      <point x="79.22666666666667" y="890.1733333333334"/>
      <point x="110.4" y="861.1600000000001"/>
      <point x="167.08" y="862.5333333333333" type="curve" smooth="yes"/>
      <point x="287.7466666666667" y="861.1600000000001"/>
      <point x="554.6533333333333" y="869.1600000000001"/>
      <point x="696.7733333333333" y="871.1600000000001" type="curve" smooth="yes"/>
      <point x="835.8166323024055" y="871.1600000000001"/>
      <point x="1091.9235121833913" y="856.2362838140137"/>
      <point x="1208.6133333333332" y="854.2266666666666" type="curve" smooth="yes"/>
      <point x="1265.96" y="856.0266666666666"/>
      <point x="1298.3733333333334" y="883.76"/>
      <point x="1299.9733333333334" y="938.1466666666666" type="curve" smooth="yes"/>
      <point x="1298.3733333333334" y="990.52"/>
      <point x="1265.16" y="1016.96"/>
      <point x="1209.6133333333332" y="1016.96" type="curve" smooth="yes"/>
      <point x="1092.9235121833913" y="1014.1503828526529"/>
      <point x="837.7232989690722" y="993.0266666666666"/>
    </contour>
    <contour>
      <point x="630.76" y="434.3466666666667" type="curve" smooth="yes"/>
      <point x="769.921649484536" y="434.3466666666667"/>
      <point x="1025.5617573966902" y="419.04480854401464"/>
      <point x="1142.04" y="417.04" type="curve" smooth="yes"/>
      <point x="1199.0133333333333" y="418.84000000000003"/>
      <point x="1231.8" y="446.8533333333333"/>
      <point x="1233.6" y="501.33333333333337" type="curve" smooth="yes"/>
      <point x="1231.8" y="553.6133333333335"/>
      <point x="1198.5866666666668" y="580.0533333333333"/>
      <point x="1143.04" y="580.0533333333333" type="curve" smooth="yes"/>
      <point x="1026.5617573966902" y="577.2485247893187"/>
      <point x="771.8283161512027" y="556.12"/>
      <point x="631.76" y="556.12" type="curve" smooth="yes"/>
      <point x="485.70345433610146" y="554.2087808422867"/>
      <point x="220.66792017676408" y="588.564552342306"/>
      <point x="98.77333333333334" y="587.56" type="curve" smooth="yes"/>
      <point x="43.693333333333335" y="586.76"/>
      <point x="10.72" y="560.92"/>
      <point x="10.72" y="506.1333333333333" type="curve" smooth="yes"/>
      <point x="11.72" y="452.9866666666666"/>
      <point x="42.89333333333333" y="424.3466666666667"/>
      <point x="99.57333333333334" y="425.3466666666667" type="curve" smooth="yes"/>
      <point x="220.66896643899642" y="424.3421031939114"/>
      <point x="488.5160233482117" y="432.33754171281123"/>
    </contour>
    <contour>
      <point x="751.7466666666666" y="58.63999999999999" type="curve" smooth="yes"/>
      <point x="787.5066666666667" y="198.61333333333334"/>
      <point x="863.5246076873889" y="515.0721185203798"/>
      <point x="905.8666666666666" y="683.6933333333333" type="curve" smooth="yes"/>
      <point x="947.2210653941529" y="850.0187036149002"/>
      <point x="1041.6533333333334" y="1154.6533333333334"/>
      <point x="1078.5200000000002" y="1294.2933333333333" type="curve" smooth="yes"/>
      <point x="1093.96" y="1353.0533333333335"/>
      <point x="1077.5200000000002" y="1392.0"/>
      <point x="1026.6799999999998" y="1405.5333333333333" type="curve" smooth="yes"/>
      <point x="976.4133333333334" y="1419.84"/>
      <point x="942.9333333333334" y="1394.2266666666667"/>
      <point x="927.4933333333333" y="1336.8666666666666" type="curve" smooth="yes"/>
      <point x="892.2133333333335" y="1197.6000000000001"/>
      <point x="834.882399630617" y="885.3836967583615"/>
      <point x="791.9200000000001" y="718.0133333333333" type="curve" smooth="yes"/>
      <point x="748.3641458797541" y="547.1486378855386"/>
      <point x="635.88" y="243.96"/>
      <point x="598.6933333333334" y="99.78666666666666" type="curve" smooth="yes"/>
      <point x="584.6533333333334" y="43.026666666666664"/>
      <point x="601.4933333333333" y="5.08"/>
      <point x="652.2533333333333" y="-9.653333333333334" type="curve" smooth="yes"/>
      <point x="703.0" y="-22.560000000000002"/>
      <point x="736.28" y="2.2533333333333334"/>
    </contour>
  </outline>
</glyph>
<glyph name="dollar" format="2">
  <advance width="1205.013333333333"/>
  <unicode hex="0024"/>
  <outline>
    <contour>
      <point x="634.2933333333333" y="1395.44" type="curve" smooth="yes"/>
      <point x="300.4966448801743" y="1395.44"/>
      <point x="89.2" y="1211.7866666666664"/>
      <point x="89.2" y="977.6" type="curve" smooth="yes"/>
      <point x="89.2" y="785.0133333333332"/>
      <point x="201.38666666666668" y="652.5733333333334"/>
      <point x="503.32" y="549.2933333333333" type="curve" smooth="yes"/>
      <point x="752.6097549911811" y="463.0506019358026"/>
      <point x="831.1200000000001" y="381.6"/>
      <point x="831.1200000000001" y="278.52000000000004" type="curve" smooth="yes"/>
      <point x="831.1200000000001" y="172.39999999999998"/>
      <point x="740.3866666666667" y="110.73333333333333"/>
      <point x="595.64" y="110.73333333333333" type="curve" smooth="yes"/>
      <point x="460.9866666666666" y="110.73333333333333"/>
      <point x="378.06666666666666" y="178.04000000000002"/>
      <point x="378.06666666666666" y="273.59999999999997" type="curve" smooth="yes"/>
      <point x="378.06666666666666" y="322.7733333333333" type="line" smooth="yes"/>
      <point x="378.06666666666666" y="418.40000000000003"/>
      <point x="311.78666666666663" y="480.0"/>
      <point x="229.46666666666667" y="480.0" type="curve" smooth="yes"/>
      <point x="137.3972529313233" y="480.0"/>
      <point x="80.56" y="413.73333333333335"/>
      <point x="80.56" y="320.73333333333335" type="curve" smooth="yes"/>
      <point x="80.56" y="147.25333333333336"/>
      <point x="266.43515579071135" y="3.1066666666666665"/>
      <point x="591.24" y="3.1066666666666665" type="curve" smooth="yes"/>
      <point x="939.5610223642173" y="3.1066666666666665"/>
      <point x="1140.7333333333333" y="161.18666666666667"/>
      <point x="1140.7333333333333" y="414.4266666666666" type="curve" smooth="yes"/>
      <point x="1140.7333333333333" y="570.6266666666667"/>
      <point x="1048.3119560504824" y="709.7542378338566"/>
      <point x="712.4133333333333" y="825.4000000000001" type="curve" smooth="yes"/>
      <point x="477.50666666666666" y="905.6266666666667"/>
      <point x="399.84" y="986.7466666666667"/>
      <point x="399.84" y="1096.5333333333333" type="curve" smooth="yes"/>
      <point x="399.84" y="1216.2025503355703"/>
      <point x="489.8533333333333" y="1291.9333333333334"/>
      <point x="617.1333333333334" y="1291.9333333333334" type="curve" smooth="yes"/>
      <point x="740.9466666666667" y="1291.9333333333334"/>
      <point x="814.7066666666666" y="1220.5201923076922"/>
      <point x="814.7066666666666" y="1128.2933333333333" type="curve" smooth="yes"/>
      <point x="814.7066666666666" y="1057.5333333333333" type="line" smooth="yes"/>
      <point x="814.7066666666666" y="969.8133333333333"/>
      <point x="889.4250406504065" y="909.7466666666667"/>
      <point x="980.1600000000001" y="909.7466666666667" type="curve" smooth="yes"/>
      <point x="1051.9440901771336" y="909.7466666666667"/>
      <point x="1113.92" y="980.84"/>
      <point x="1113.92" y="1074.7333333333333" type="curve" smooth="yes"/>
      <point x="1113.92" y="1263.2933333333333"/>
      <point x="943.6563760049474" y="1395.44"/>
    </contour>
    <contour>
      <point x="660.8399999999999" y="767.1333333333333" type="line"/>
      <point x="660.8399999999999" y="1273.0266666666666"/>
      <point x="706.6666666666667" y="1374.3866666666668"/>
      <point x="706.6666666666667" y="1492.2533333333333" type="curve" smooth="yes"/>
      <point x="706.6666666666667" y="1566.6391666666666"/>
      <point x="667.2933333333334" y="1601.96"/>
      <point x="618.3066666666666" y="1601.96" type="curve" smooth="yes"/>
      <point x="565.0266666666666" y="1601.96"/>
      <point x="529.0533333333334" y="1564.2391666666665"/>
      <point x="529.0533333333334" y="1495.56" type="curve" smooth="yes"/>
      <point x="529.0533333333334" y="1375.1599999999999"/>
      <point x="574.8799992418293" y="1272.6530990585957"/>
      <point x="572.88" y="767.1333333333333" type="curve"/>
    </contour>
    <contour>
      <point x="561.12" y="642.9333333333333" type="line"/>
      <point x="561.12" y="144.33333333333331"/>
      <point x="516.1999999999999" y="43.66666666666667"/>
      <point x="516.1999999999999" y="-74.4" type="curve" smooth="yes"/>
      <point x="516.1999999999999" y="-150.84102564102565"/>
      <point x="555.0666666666667" y="-186.79999999999998"/>
      <point x="604.8533333333334" y="-186.79999999999998" type="curve" smooth="yes"/>
      <point x="658.84" y="-186.79999999999998"/>
      <point x="693.9066666666666" y="-148.63157894736844"/>
      <point x="693.9066666666666" y="-78.0" type="curve" smooth="yes"/>
      <point x="693.9066666666666" y="42.86666666666667"/>
      <point x="647.3866666666668" y="145.56"/>
      <point x="648.9866666666667" y="642.9333333333333" type="curve"/>
    </contour>
  </outline>
</glyph>
<glyph name="ampersand" format="2">
  <advance width="1901.7600000000002"/>
  <unicode hex="0026"/>
  <outline>
    <contour>
      <point x="1262.1466666666665" y="-46.33333333333333" type="curve" smooth="yes"/>
      <point x="1023.1600000000001" y="-46.33333333333333"/>
      <point x="881.8266666666667" y="45.86666666666667"/>
      <point x="766.4533333333334" y="228.64000000000001" type="curve" smooth="yes"/>
      <point x="625.12" y="448.61333333333334"/>
      <point x="546.52" y="628.7066666666666"/>
      <point x="546.52" y="859.9066666666666" type="curve" smooth="yes"/>
      <point x="546.52" y="1085.3333333333335"/>
      <point x="695.7066666666666" y="1271.3333333333333"/>
      <point x="948.1333333333334" y="1271.3333333333333" type="curve" smooth="yes"/>
      <point x="1148.5466666666669" y="1271.3333333333333"/>
      <point x="1285.8" y="1143.4"/>
      <point x="1285.8" y="964.64" type="curve" smooth="yes"/>
      <point x="1285.8" y="760.5866666666666"/>
      <point x="1120.5733333333333" y="622.8666666666667"/>
      <point x="852.0400000000001" y="611.1333333333334" type="curve"/>
      <point x="834.3733333333333" y="720.0266666666666" type="line"/>
      <point x="943.2800000000001" y="733.0266666666666"/>
      <point x="1012.6133333333333" y="840.0533333333334"/>
      <point x="1012.6133333333333" y="999.6" type="curve" smooth="yes"/>
      <point x="1012.6133333333333" y="1090.5066666666667"/>
      <point x="979.7866666666666" y="1152.36"/>
      <point x="933.6933333333334" y="1152.36" type="curve" smooth="yes"/>
      <point x="870.4933333333333" y="1152.36"/>
      <point x="829.5066666666667" y="1085.24"/>
      <point x="829.5066666666667" y="972.6933333333334" type="curve" smooth="yes"/>
      <point x="829.5066666666667" y="841.0266666666666"/>
      <point x="877.8133333333333" y="682.2933333333333"/>
      <point x="1014.3466666666666" y="468.25333333333333" type="curve" smooth="yes"/>
      <point x="1169.8266666666668" y="221.92"/>
      <point x="1269.6533333333332" y="148.09333333333336"/>
      <point x="1392.32" y="148.09333333333336" type="curve" smooth="yes"/>
      <point x="1557.48" y="148.09333333333336"/>
      <point x="1702.6000000000001" y="278.97333333333336"/>
      <point x="1702.6000000000001" y="575.4933333333333" type="curve" smooth="yes"/>
      <point x="1702.6000000000001" y="808.6933333333334"/>
      <point x="1604.9333333333334" y="1031.0133333333333"/>
      <point x="1429.2666666666664" y="1200.24" type="curve" smooth="yes"/>
      <point x="1273.8266666666666" y="1349.3866666666665"/>
      <point x="1062.2266666666667" y="1440.8266666666666"/>
      <point x="832.36" y="1440.8266666666666" type="curve" smooth="yes"/>
      <point x="486.36" y="1440.8266666666666"/>
      <point x="354.28000000000003" y="1307.4266666666665"/>
      <point x="354.28000000000003" y="1169.9333333333334" type="curve" smooth="yes"/>
      <point x="354.28000000000003" y="1073.7985428051"/>
      <point x="415.84000000000003" y="1043.4198843930635"/>
      <point x="415.84000000000003" y="926.4799999999999" type="curve" smooth="yes"/>
      <point x="415.84000000000003" y="834.1047154471545"/>
      <point x="351.88826291079806" y="770.6133333333333"/>
      <point x="259.97333333333336" y="770.6133333333333" type="curve" smooth="yes"/>
      <point x="158.97562724014338" y="770.6133333333333"/>
      <point x="92.4" y="866.6562318840579"/>
      <point x="92.4" y="1010.1066666666667" type="curve" smooth="yes"/>
      <point x="92.4" y="1364.0"/>
      <point x="350.05333333333334" y="1580.0666666666666"/>
      <point x="839.3866666666667" y="1580.0666666666666" type="curve" smooth="yes"/>
      <point x="1106.0533333333333" y="1580.0666666666666"/>
      <point x="1351.3866666666668" y="1483.5333333333333"/>
      <point x="1536.2133333333331" y="1311.84" type="curve" smooth="yes"/>
      <point x="1735.3866666666665" y="1123.96"/>
      <point x="1848.64" y="868.9599999999999"/>
      <point x="1848.64" y="573.92" type="curve" smooth="yes"/>
      <point x="1848.64" y="193.09333333333333"/>
      <point x="1625.9866666666665" y="-46.33333333333333"/>
    </contour>
    <contour>
      <point x="1121.5866666666666" y="247.9333333333333" type="line"/>
      <point x="1227.0933333333332" y="324.7333333333334"/>
      <point x="1273.3333333333335" y="413.29333333333335"/>
      <point x="1273.3333333333335" y="499.4266666666667" type="curve" smooth="yes"/>
      <point x="1273.3333333333335" y="557.1066666666667"/>
      <point x="1266.4666666666667" y="579.9200000000001"/>
      <point x="1266.4666666666667" y="634.4933333333335" type="curve" smooth="yes"/>
      <point x="1266.4666666666667" y="717.7993162393161"/>
      <point x="1330.8750248756219" y="789.2266666666667"/>
      <point x="1413.0" y="789.2266666666667" type="curve" smooth="yes"/>
      <point x="1482.0025870646766" y="789.2266666666667"/>
      <point x="1538.72" y="720.7113978494624"/>
      <point x="1538.72" y="610.0133333333333" type="curve" smooth="yes"/>
      <point x="1538.72" y="446.8014117647059"/>
      <point x="1432.3321564238774" y="287.31433124492474"/>
      <point x="1163.92" y="165.53333333333333" type="curve"/>
    </contour>
    <contour>
      <point x="623.4133333333333" y="586.3333333333333" type="line"/>
      <point x="503.48" y="575.6"/>
      <point x="442.94666666666666" y="482.6"/>
      <point x="442.94666666666666" y="346.6933333333333" type="curve" smooth="yes"/>
      <point x="442.94666666666666" y="224.16"/>
      <point x="518.12" y="129.76"/>
      <point x="623.5333333333333" y="129.76" type="curve" smooth="yes"/>
      <point x="695.1866666666667" y="129.76"/>
      <point x="747.5066666666667" y="162.85333333333332"/>
      <point x="811.5066666666667" y="209.13333333333333" type="curve"/>
      <point x="869.0666666666667" y="125.24" type="line"/>
      <point x="795.1999999999999" y="26.346666666666668"/>
      <point x="665.6" y="-29.0"/>
      <point x="482.6933333333334" y="-29.0" type="curve" smooth="yes"/>
      <point x="225.48" y="-29.0"/>
      <point x="79.14666666666666" y="85.8"/>
      <point x="79.14666666666666" y="310.49333333333334" type="curve" smooth="yes"/>
      <point x="79.14666666666666" y="530.1466666666666"/>
      <point x="275.76000000000005" y="694.4666666666666"/>
      <point x="623.4133333333333" y="703.9066666666668" type="curve"/>
    </contour>
  </outline>
</glyph>
<glyph name="quotesingle" format="2">
  <advance width="394.21333333333337"/>
  <unicode hex="0027"/>
  <outline>
    <contour>
      <point x="188.66666666666666" y="824.0" type="curve" smooth="yes"/>
      <point x="235.9319679516251" y="824.0"/>
      <point x="268.2232372954761" y="849.3357282400768"/>
      <point x="279.1466666666667" y="908.5466666666666" type="curve" smooth="yes"/>
      <point x="347.76" y="1324.9333333333334" type="line" smooth="yes"/>
      <point x="377.352307441379" y="1479.9640326777796"/>
      <point x="329.968" y="1573.4666666666667"/>
      <point x="199.26666666666665" y="1573.4666666666667" type="curve" smooth="yes"/>
      <point x="69.36533333333334" y="1573.4666666666667"/>
      <point x="17.339604502692353" y="1484.7571577029025"/>
      <point x="45.17333333333333" y="1324.1333333333332" type="curve" smooth="yes"/>
      <point x="105.69333333333333" y="910.1466666666666" type="line" smooth="yes"/>
      <point x="115.06274155797826" y="854.6653958801145"/>
      <point x="148.83052749719414" y="824.0"/>
    </contour>
  </outline>
</glyph>
<glyph name="parenleft" format="2">
  <advance width="710.7733333333334"/>
  <unicode hex="0028"/>
  <outline>
    <contour>
      <point x="123.49333333333334" y="608.8666666666667" type="curve" smooth="yes"/>
      <point x="123.49333333333334" y="182.62666666666667"/>
      <point x="335.06666666666666" y="-143.28"/>
      <point x="572.9733333333334" y="-238.45333333333332" type="curve" smooth="yes"/>
      <point x="638.6266666666668" y="-262.12000000000006"/>
      <point x="682.5066666666667" y="-253.68"/>
      <point x="696.1733333333334" y="-214.38666666666666" type="curve" smooth="yes"/>
      <point x="705.5066666666667" y="-188.32"/>
      <point x="688.44" y="-159.6266666666667"/>
      <point x="656.2933333333334" y="-124.96" type="curve" smooth="yes"/>
      <point x="507.8666666666667" y="28.21333333333333"/>
      <point x="407.97333333333336" y="303.50666666666666"/>
      <point x="407.97333333333336" y="608.8666666666667" type="curve" smooth="yes"/>
      <point x="407.97333333333336" y="916.0"/>
      <point x="511.9733333333333" y="1192.04"/>
      <point x="656.2933333333334" y="1342.6" type="curve" smooth="yes"/>
      <point x="688.0666666666667" y="1377.36"/>
      <point x="705.5066666666667" y="1406.1333333333334"/>
      <point x="696.1733333333334" y="1432.12" type="curve" smooth="yes"/>
      <point x="682.5066666666667" y="1471.3200000000002"/>
      <point x="638.6266666666668" y="1480.3200000000002"/>
      <point x="572.9733333333334" y="1456.6533333333332" type="curve" smooth="yes"/>
      <point x="334.97333333333336" y="1361.8533333333332"/>
      <point x="123.49333333333334" y="1035.5733333333333"/>
    </contour>
  </outline>
</glyph>
<glyph name="asterisk" format="2">
  <advance width="1173.0933333333332"/>
  <unicode hex="002A"/>
  <outline>
    <contour>
      <point x="613.8399999999999" y="981.1866666666667" type="line"/>
      <point x="613.8399999999999" y="1155.8933333333334"/>
      <point x="754.04" y="1290.4533333333334"/>
      <point x="754.04" y="1419.1466666666665" type="curve" smooth="yes"/>
      <point x="754.04" y="1496.8133333333333"/>
      <point x="692.4266666666666" y="1539.4533333333334"/>
      <point x="591.1733333333333" y="1539.4533333333334" type="curve" smooth="yes"/>
      <point x="482.49333333333334" y="1539.4533333333334"/>
      <point x="427.44" y="1496.8133333333333"/>
      <point x="427.44" y="1419.1466666666665" type="curve" smooth="yes"/>
      <point x="427.44" y="1290.4533333333334"/>
      <point x="567.9466666666667" y="1155.8933333333334"/>
      <point x="567.9466666666667" y="981.1866666666667" type="curve"/>
    </contour>
    <contour>
      <point x="597.9466666666667" y="1003.8000000000001" type="line"/>
      <point x="435.85333333333335" y="1057.3733333333332"/>
      <point x="354.8933333333333" y="1235.6266666666668"/>
      <point x="235.82666666666665" y="1275.3999999999999" type="curve" smooth="yes"/>
      <point x="163.82666666666668" y="1300.1466666666665"/>
      <point x="105.02666666666667" y="1252.7466666666667"/>
      <point x="73.69333333333334" y="1153.7866666666666" type="curve" smooth="yes"/>
      <point x="40.333333333333336" y="1048.12"/>
      <point x="62.38666666666667" y="981.4"/>
      <point x="134.48" y="956.6533333333334" type="curve" smooth="yes"/>
      <point x="254.14666666666668" y="917.6800000000001"/>
      <point x="422.34666666666664" y="1012.9866666666667"/>
      <point x="583.8266666666667" y="958.7866666666666" type="curve"/>
    </contour>
    <contour>
      <point x="572.5466666666666" y="995.3466666666667" type="line"/>
      <point x="471.90666666666664" y="854.0666666666667"/>
      <point x="281.9333333333334" y="829.4799999999999"/>
      <point x="207.69333333333333" y="724.8800000000001" type="curve" smooth="yes"/>
      <point x="163.26666666666668" y="662.1466666666666"/>
      <point x="189.05333333333334" y="590.5466666666667"/>
      <point x="270.93333333333334" y="529.4666666666666" type="curve" smooth="yes"/>
      <point x="358.82666666666665" y="463.81333333333333"/>
      <point x="428.5333333333333" y="464.6666666666667"/>
      <point x="472.58666666666664" y="527.8533333333334" type="curve" smooth="yes"/>
      <point x="546.3866666666665" y="632.8266666666667"/>
      <point x="509.4533333333333" y="825.6533333333333"/>
      <point x="609.0933333333332" y="967.1333333333333" type="curve"/>
    </contour>
    <contour>
      <point x="572.5466666666666" y="967.0266666666666" type="line"/>
      <point x="672.1066666666666" y="825.5466666666666"/>
      <point x="635.5600000000001" y="632.8266666666667"/>
      <point x="708.8933333333333" y="527.8533333333334" type="curve" smooth="yes"/>
      <point x="753.4133333333332" y="464.6666666666667"/>
      <point x="827.9866666666667" y="467.92"/>
      <point x="910.3333333333334" y="529.2666666666667" type="curve" smooth="yes"/>
      <point x="998.2266666666667" y="594.28"/>
      <point x="1018.3066666666665" y="662.1466666666666"/>
      <point x="973.7866666666667" y="724.8800000000001" type="curve" smooth="yes"/>
      <point x="899.6400000000001" y="829.4799999999999"/>
      <point x="709.4533333333334" y="853.8666666666667"/>
      <point x="609.0933333333332" y="995.24" type="curve"/>
    </contour>
    <contour>
      <point x="583.8266666666667" y="1003.4933333333333" type="curve"/>
      <point x="597.9466666666667" y="958.48" type="line"/>
      <point x="759.3333333333334" y="1012.68"/>
      <point x="927.3333333333333" y="917.6800000000001"/>
      <point x="1047.0" y="956.6533333333334" type="curve" smooth="yes"/>
      <point x="1119.0933333333332" y="981.4"/>
      <point x="1138.7466666666667" y="1054.6266666666666"/>
      <point x="1107.7866666666666" y="1153.3866666666668" type="curve" smooth="yes"/>
      <point x="1074.4266666666667" y="1258.8799999999999"/>
      <point x="1017.7466666666668" y="1300.1466666666665"/>
      <point x="945.6533333333333" y="1275.3999999999999" type="curve" smooth="yes"/>
      <point x="826.6800000000001" y="1235.6266666666668"/>
      <point x="745.8266666666666" y="1057.0666666666666"/>
    </contour>
  </outline>
</glyph>
<glyph name="comma" format="2">
  <advance width="572.84"/>
  <unicode hex="002C"/>
  <outline>
    <contour>
      <point x="262.7333333333333" y="-11.946666666666665" type="curve" smooth="yes"/>
      <point x="284.4533333333333" y="-11.946666666666665" type="line" smooth="yes"/>
      <point x="312.8464197530864" y="-11.946666666666665"/>
      <point x="322.36" y="-24.666666666666664"/>
      <point x="322.36" y="-47.013333333333335" type="curve" smooth="yes"/>
      <point x="322.36" y="-120.77333333333334"/>
      <point x="258.39496005995136" y="-212.01608455804137"/>
      <point x="133.17333333333332" y="-241.34666666666666" type="curve" smooth="yes"/>
      <point x="75.57333333333332" y="-254.29333333333335"/>
      <point x="58.57333333333333" y="-290.4"/>
      <point x="66.69333333333333" y="-329.6933333333333" type="curve" smooth="yes"/>
      <point x="75.98666666666666" y="-373.64"/>
      <point x="109.82666666666667" y="-394.1733333333333"/>
      <point x="176.57333333333332" y="-380.06666666666666" type="curve" smooth="yes"/>
      <point x="383.3733333333333" y="-335.1066666666667"/>
      <point x="503.2666666666666" y="-185.58989648033128"/>
      <point x="503.2666666666666" y="86.46666666666665" type="curve" smooth="yes"/>
      <point x="503.2666666666666" y="276.26910798122066"/>
      <point x="409.1346835443038" y="366.18666666666667"/>
      <point x="286.0533333333333" y="366.18666666666667" type="curve" smooth="yes"/>
      <point x="173.56" y="366.18666666666667"/>
      <point x="89.41333333333333" y="279.93333333333334"/>
      <point x="89.41333333333333" y="164.53333333333333" type="curve" smooth="yes"/>
      <point x="89.41333333333333" y="61.333333333333336"/>
      <point x="147.30666666666664" y="-11.946666666666665"/>
    </contour>
  </outline>
</glyph>
<glyph name="hyphen" format="2">
  <advance width="731.5600000000001"/>
  <unicode hex="002D"/>
  <outline>
    <contour>
      <point x="619.9866666666666" y="646.4" type="curve" smooth="yes"/>
      <point x="171.21333333333334" y="646.4" type="line" smooth="yes"/>
      <point x="128.93333333333334" y="646.4"/>
      <point x="106.62666666666667" y="631.2533333333334"/>
      <point x="87.96" y="578.04" type="curve" smooth="yes"/>
      <point x="61.973333333333336" y="504.6266666666666" type="line" smooth="yes"/>
      <point x="42.373333333333335" y="448.72"/>
      <point x="59.57333333333333" y="419.82666666666665"/>
      <point x="111.47999999999999" y="419.82666666666665" type="curve" smooth="yes"/>
      <point x="560.2533333333333" y="419.82666666666665" type="line" smooth="yes"/>
      <point x="602.6266666666668" y="419.82666666666665"/>
      <point x="625.3999999999999" y="435.06666666666666"/>
      <point x="643.5999999999999" y="488.0933333333333" type="curve" smooth="yes"/>
      <point x="669.4933333333333" y="561.6" type="line" smooth="yes"/>
      <point x="689.0933333333334" y="617.5066666666667"/>
      <point x="671.8933333333333" y="646.4"/>
    </contour>
  </outline>
</glyph>
<glyph name="period" format="2">
  <advance width="559.9733333333334"/>
  <unicode hex="002E"/>
  <outline>
    <contour>
      <point x="279.3333333333333" y="-25.813333333333336" type="curve" smooth="yes"/>
      <point x="394.34666666666664" y="-25.813333333333336"/>
      <point x="480.29333333333335" y="68.21333333333334"/>
      <point x="480.29333333333335" y="179.34666666666666" type="curve" smooth="yes"/>
      <point x="480.29333333333335" y="292.32"/>
      <point x="394.34666666666664" y="382.7333333333333"/>
      <point x="279.3333333333333" y="382.7333333333333" type="curve" smooth="yes"/>
      <point x="166.32" y="382.7333333333333"/>
      <point x="79.77333333333333" y="292.32"/>
      <point x="79.77333333333333" y="179.34666666666666" type="curve" smooth="yes"/>
      <point x="79.77333333333333" y="68.21333333333334"/>
      <point x="166.32" y="-25.813333333333336"/>
    </contour>
  </outline>
</glyph>
<glyph name="slash" format="2">
  <advance width="931.08"/>
  <unicode hex="002F"/>
  <outline>
    <contour>
      <point x="552.9066666666666" y="573.2666666666668" type="curve" smooth="yes"/>
      <point x="636.8800492282569" y="777.094610696221"/>
      <point x="814.6979477759372" y="1166.8971813638664"/>
      <point x="886.0933333333334" y="1343.8266666666666" type="curve" smooth="yes"/>
      <point x="914.3343787150441" y="1412.089541466371"/>
      <point x="897.8645342068464" y="1468.9379552227886"/>
      <point x="835.7466666666667" y="1496.32" type="curve" smooth="yes"/>
      <point x="771.0591070253092" y="1524.9273243078187"/>
      <point x="719.6253895048019" y="1496.6228351810726"/>
      <point x="688.2266666666667" y="1418.0533333333333" type="curve" smooth="yes"/>
      <point x="615.2137347665208" y="1236.6779633092933"/>
      <point x="475.0062990077161" y="840.9724638186941"/>
      <point x="392.4666666666667" y="641.1333333333333" type="curve" smooth="yes"/>
      <point x="307.5208951655253" y="436.2080363320832"/>
      <point x="120.79494525745369" y="56.91147975957438"/>
      <point x="44.70666666666666" y="-128.94666666666666" type="curve" smooth="yes"/>
      <point x="16.665782047809742" y="-197.57775642761794"/>
      <point x="35.688207020345565" y="-255.84420579045428"/>
      <point x="97.2" y="-281.9866666666667" type="curve" smooth="yes"/>
      <point x="160.2843839860412" y="-308.5989115683081"/>
      <point x="211.08847079506702" y="-283.48835786382745"/>
      <point x="239.49333333333337" y="-214.01333333333332" type="curve" smooth="yes"/>
      <point x="311.2021791416119" y="-38.45081275117731"/>
      <point x="467.8611577526183" y="365.63453356153445"/>
    </contour>
  </outline>
</glyph>
<glyph name="zero" format="2">
  <advance width="1344.4933333333333"/>
  <unicode hex="0030"/>
  <outline>
    <contour>
      <point x="687.1733333333333" y="1428.0400000000002" type="curve" smooth="yes"/>
      <point x="305.6533333333333" y="1428.0400000000002"/>
      <point x="59.973333333333336" y="1146.3200000000002"/>
      <point x="59.973333333333336" y="699.8" type="curve" smooth="yes"/>
      <point x="59.973333333333336" y="235.09333333333333"/>
      <point x="282.29333333333335" y="-28.439999999999998"/>
      <point x="669.5866666666667" y="-28.439999999999998" type="curve" smooth="yes"/>
      <point x="1032.9066666666665" y="-28.439999999999998"/>
      <point x="1284.24" y="246.06666666666666"/>
      <point x="1284.24" y="716.96" type="curve" smooth="yes"/>
      <point x="1284.24" y="1163.4"/>
      <point x="1056.6133333333332" y="1428.0400000000002"/>
    </contour>
    <contour>
      <point x="904.0266666666666" y="680.4799999999999" type="curve" smooth="yes"/>
      <point x="904.0266666666666" y="288.14211946050096"/>
      <point x="812.6794487510766" y="132.70666666666668"/>
      <point x="677.9066666666666" y="132.70666666666668" type="curve" smooth="yes"/>
      <point x="525.2714693534843" y="132.70666666666668"/>
      <point x="440.61333333333334" y="289.30265060240964"/>
      <point x="440.61333333333334" y="728.4933333333333" type="curve" smooth="yes"/>
      <point x="440.61333333333334" y="1092.2712138728323"/>
      <point x="525.0666666666667" y="1266.8933333333334"/>
      <point x="672.8799999999999" y="1266.8933333333334" type="curve" smooth="yes"/>
      <point x="818.6933333333334" y="1266.8933333333334"/>
      <point x="904.0266666666666" y="1106.8173493975903"/>
    </contour>
  </outline>
</glyph>
<glyph name="one" format="2">
  <advance width="920.1999999999999"/>
  <unicode hex="0031"/>
  <outline>
    <contour>
      <point x="155.85333333333335" y="1127.56" type="line" smooth="yes"/>
      <point x="90.2" y="1127.56"/>
      <point x="59.70666666666667" y="1166.04"/>
      <point x="59.70666666666667" y="1223.7466666666664" type="curve" smooth="yes"/>
      <point x="59.70666666666667" y="1279.64"/>
      <point x="98.42666666666666" y="1321.8799999999999"/>
      <point x="162.38666666666668" y="1321.8799999999999" type="curve" smooth="yes"/>
      <point x="256.2" y="1321.8799999999999" type="line" smooth="yes"/>
      <point x="356.8666666666667" y="1321.8799999999999"/>
      <point x="413.12" y="1349.8799999999999"/>
      <point x="480.8933333333334" y="1394.5066666666667" type="curve" smooth="yes"/>
      <point x="518.3333333333333" y="1418.8533333333335"/>
      <point x="546.0799999999999" y="1428.1066666666666"/>
      <point x="576.0533333333334" y="1428.1066666666666" type="curve" smooth="yes"/>
      <point x="632.6266666666667" y="1428.1066666666666"/>
      <point x="666.5066666666667" y="1396.3733333333334"/>
      <point x="666.5066666666667" y="1330.28" type="curve" smooth="yes"/>
      <point x="666.5066666666667" y="278.18666666666667" type="line" smooth="yes"/>
      <point x="666.5066666666667" y="228.44"/>
      <point x="683.4133333333333" y="203.77333333333334"/>
      <point x="719.84" y="194.78666666666666" type="curve" smooth="yes"/>
      <point x="815.6533333333334" y="172.45333333333335" type="line" smooth="yes"/>
      <point x="862.3066666666666" y="158.97333333333333"/>
      <point x="889.3466666666667" y="129.29333333333332"/>
      <point x="889.3466666666667" y="84.62666666666667" type="curve" smooth="yes"/>
      <point x="889.3466666666667" y="31.960000000000004"/>
      <point x="859.08" y="0.0"/>
      <point x="794.0933333333334" y="0.0" type="curve" smooth="yes"/>
      <point x="146.25333333333336" y="0.0" type="line" smooth="yes"/>
      <point x="81.26666666666667" y="0.0"/>
      <point x="50.906666666666666" y="31.960000000000004"/>
      <point x="50.906666666666666" y="84.62666666666667" type="curve" smooth="yes"/>
      <point x="50.906666666666666" y="129.29333333333332"/>
      <point x="77.66666666666667" y="162.65333333333334"/>
      <point x="124.69333333333333" y="173.25333333333333" type="curve" smooth="yes"/>
      <point x="239.2" y="194.78666666666666" type="line" smooth="yes"/>
      <point x="274.18666666666667" y="201.69333333333336"/>
      <point x="293.3733333333333" y="228.44"/>
      <point x="293.3733333333333" y="278.76" type="curve" smooth="yes"/>
      <point x="293.3733333333333" y="1027.16" type="line" smooth="yes"/>
      <point x="293.3733333333333" y="1107.3066666666668"/>
      <point x="274.38666666666666" y="1127.56"/>
      <point x="222.61333333333334" y="1127.56" type="curve" smooth="yes"/>
    </contour>
  </outline>
</glyph>
<glyph name="two" format="2">
  <advance width="1229.2"/>
  <unicode hex="0032"/>
  <outline>
    <contour>
      <point x="246.90666666666667" y="277.8" type="line"/>
      <point x="610.88" y="476.68" type="line" smooth="yes"/>
      <point x="980.268212565035" y="666.3801184284322"/>
      <point x="1112.2933333333333" y="825.1748468468469"/>
      <point x="1112.2933333333333" y="1031.96" type="curve" smooth="yes"/>
      <point x="1112.2933333333333" y="1260.92"/>
      <point x="955.0237837837839" y="1428.0400000000002"/>
      <point x="604.8" y="1428.0400000000002" type="curve" smooth="yes"/>
      <point x="253.34666666666666" y="1428.0400000000002"/>
      <point x="89.24" y="1245.1066666666668"/>
      <point x="89.24" y="1046.8799999999999" type="curve" smooth="yes"/>
      <point x="89.24" y="923.28"/>
      <point x="155.42666666666668" y="852.08"/>
      <point x="260.1066666666666" y="852.08" type="curve" smooth="yes"/>
      <point x="368.73777777777775" y="852.08"/>
      <point x="434.8" y="918.5733333333334"/>
      <point x="434.8" y="1024.8799999999999" type="curve" smooth="yes"/>
      <point x="434.8" y="1110.04" type="line" smooth="yes"/>
      <point x="434.8" y="1216.4205128205128"/>
      <point x="477.2834004474273" y="1289.6666666666667"/>
      <point x="577.4533333333334" y="1289.6666666666667" type="curve" smooth="yes"/>
      <point x="672.7758731636445" y="1289.6666666666667"/>
      <point x="723.0" y="1206.1457968192146"/>
      <point x="723.0" y="1002.0666666666667" type="curve" smooth="yes"/>
      <point x="723.0" y="796.6"/>
      <point x="627.3594743469965" y="659.8983688173109"/>
      <point x="389.84" y="504.15999999999997" type="curve" smooth="yes"/>
      <point x="168.28" y="350.1466666666667" type="line"/>
    </contour>
    <contour>
      <point x="62.18666666666667" y="160.58666666666664" type="curve" smooth="yes"/>
      <point x="62.18666666666667" y="40.5581220657277"/>
      <point x="134.6" y="-27.69333333333333"/>
      <point x="233.25333333333336" y="-27.69333333333333" type="curve" smooth="yes"/>
      <point x="344.74666666666667" y="-27.69333333333333"/>
      <point x="408.9981560574246" y="20.160964817942617"/>
      <point x="425.52" y="117.9066666666667" type="curve" smooth="yes"/>
      <point x="435.4796531076133" y="180.86866424823793"/>
      <point x="455.12" y="210.32"/>
      <point x="492.0666666666667" y="210.32" type="curve" smooth="yes"/>
      <point x="528.1420484171322" y="210.32"/>
      <point x="545.2852884572166" y="190.21421279251098"/>
      <point x="577.2933333333333" y="143.01333333333332" type="curve" smooth="yes"/>
      <point x="643.8347933947367" y="23.455798050125388"/>
      <point x="724.1866666666666" y="-27.773333333333333"/>
      <point x="860.1866666666666" y="-27.773333333333333" type="curve" smooth="yes"/>
      <point x="1042.8666666666666" y="-27.773333333333333"/>
      <point x="1152.7463664941474" y="90.71864679224177"/>
      <point x="1177.1599999999999" y="354.88" type="curve" smooth="yes"/>
      <point x="1184.2666666666667" y="436.47999999999996"/>
      <point x="1163.2533333333333" y="472.6666666666667"/>
      <point x="1125.76" y="476.04" type="curve" smooth="yes"/>
      <point x="1090.56" y="479.4133333333333"/>
      <point x="1064.5333333333333" y="461.17333333333335"/>
      <point x="1037.6399999999999" y="415.64" type="curve" smooth="yes"/>
      <point x="1003.0175435245739" y="348.1429405526843"/>
      <point x="950.9466666666666" y="313.2533333333333"/>
      <point x="867.5866666666667" y="313.2533333333333" type="curve" smooth="yes"/>
      <point x="674.1121387283238" y="313.2533333333333"/>
      <point x="547.6084007707129" y="401.4133333333333"/>
      <point x="361.8" y="401.4133333333333" type="curve" smooth="yes"/>
      <point x="168.58666666666667" y="401.4133333333333"/>
      <point x="62.18666666666667" y="298.68"/>
    </contour>
  </outline>
</glyph>
<glyph name="three" format="2">
  <advance width="1135.4266666666667"/>
  <unicode hex="0033"/>
  <outline>
    <contour>
      <point x="554.36" y="724.0666666666667" type="line"/>
      <point x="998.4266666666666" y="1163.7066666666667" type="line" smooth="yes"/>
      <point x="1065.6103428044582" y="1227.2192469452991"/>
      <point x="1093.9199999999998" y="1266.3733333333334"/>
      <point x="1093.9199999999998" y="1311.3333333333335" type="curve" smooth="yes"/>
      <point x="1093.9199999999998" y="1363.2266666666667"/>
      <point x="1057.1333333333332" y="1400.0"/>
      <point x="992.5866666666666" y="1400.0" type="curve" smooth="yes"/>
      <point x="264.0" y="1400.0" type="line" smooth="yes"/>
      <point x="185.94117647058823" y="1400.0"/>
      <point x="140.96987298639286" y="1358.0371888027075"/>
      <point x="134.76000000000002" y="1291.1066666666666" type="curve" smooth="yes"/>
      <point x="107.58666666666666" y="1000.28" type="line" smooth="yes"/>
      <point x="101.56" y="931.8666666666666"/>
      <point x="138.98666666666665" y="899.5866666666667"/>
      <point x="191.61333333333334" y="899.3866666666668" type="curve" smooth="yes"/>
      <point x="245.96000000000004" y="899.1866666666667"/>
      <point x="273.05333333333334" y="931.5200000000001"/>
      <point x="283.9866666666667" y="980.28" type="curve" smooth="yes"/>
      <point x="298.29333333333335" y="1043.12" type="line" smooth="yes"/>
      <point x="310.0444492973303" y="1095.8045625404438"/>
      <point x="338.2" y="1117.64"/>
      <point x="397.18666666666667" y="1117.64" type="curve" smooth="yes"/>
      <point x="889.4000000000001" y="1117.64" type="line"/>
      <point x="874.32" y="1264.0399999999997" type="line"/>
      <point x="419.2533333333334" y="815.1333333333333" type="line" smooth="yes"/>
      <point x="380.5233897738447" y="778.3741736887657"/>
      <point x="359.24" y="743.0666666666667"/>
      <point x="359.24" y="699.3333333333333" type="curve" smooth="yes"/>
      <point x="359.24" y="642.0533333333334"/>
      <point x="395.40000000000003" y="611.5066666666667"/>
      <point x="454.18666666666667" y="611.5066666666667" type="curve" smooth="yes"/>
      <point x="515.2133333333333" y="611.5066666666667" type="line" smooth="yes"/>
      <point x="659.7233244916004" y="611.5066666666667"/>
      <point x="723.28" y="542.4856115076275"/>
      <point x="723.28" y="364.0" type="curve" smooth="yes"/>
      <point x="723.28" y="198.80519794796328"/>
      <point x="653.3303703703704" y="118.52000000000001"/>
      <point x="549.1333333333333" y="118.52000000000001" type="curve" smooth="yes"/>
      <point x="455.72018779342727" y="118.52000000000001"/>
      <point x="406.3866666666666" y="171.0143379680718"/>
      <point x="406.3866666666666" y="248.44" type="curve" smooth="yes"/>
      <point x="406.3866666666666" y="315.38666666666666" type="line" smooth="yes"/>
      <point x="406.3866666666666" y="416.93333333333334"/>
      <point x="351.3350793650794" y="482.3466666666667"/>
      <point x="243.89333333333332" y="482.3466666666667" type="curve" smooth="yes"/>
      <point x="139.5329523809524" y="482.3466666666667"/>
      <point x="62.01333333333333" y="407.0504212774219"/>
      <point x="62.01333333333333" y="297.62666666666667" type="curve" smooth="yes"/>
      <point x="62.01333333333333" y="110.46666666666667"/>
      <point x="222.49333333333334" y="-28.439999999999998"/>
      <point x="544.6666666666666" y="-28.439999999999998" type="curve" smooth="yes"/>
      <point x="877.64" y="-28.439999999999998"/>
      <point x="1083.3333333333335" y="146.05650667184463"/>
      <point x="1083.3333333333335" y="412.1333333333333" type="curve" smooth="yes"/>
      <point x="1083.3333333333335" y="635.1208986745245"/>
      <point x="919.8294345991561" y="789.0799999999999"/>
      <point x="666.0933333333334" y="789.0799999999999" type="curve" smooth="yes"/>
      <point x="609.5466666666666" y="789.0799999999999"/>
      <point x="558.4203619946851" y="782.0729713386482"/>
      <point x="520.16" y="767.6933333333333" type="curve"/>
    </contour>
  </outline>
</glyph>
<glyph name="four" format="2">
  <advance width="1255.5333333333333"/>
  <unicode hex="0034"/>
  <outline>
    <contour>
      <point x="614.9200000000001" y="634.8266666666666" type="curve" smooth="yes"/>
      <point x="614.9200000000001" y="278.76" type="line" smooth="yes"/>
      <point x="614.9200000000001" y="228.44"/>
      <point x="596.4799999999999" y="204.13333333333333"/>
      <point x="561.68" y="194.78666666666666" type="curve" smooth="yes"/>
      <point x="481.61333333333334" y="173.25333333333333" type="line" smooth="yes"/>
      <point x="435.38666666666666" y="159.51999999999998"/>
      <point x="407.91999999999996" y="129.29333333333332"/>
      <point x="407.91999999999996" y="84.62666666666667" type="curve" smooth="yes"/>
      <point x="407.91999999999996" y="31.160000000000004"/>
      <point x="438.9866666666666" y="0.0"/>
      <point x="503.1733333333333" y="0.0" type="curve" smooth="yes"/>
      <point x="1075.36" y="0.0" type="line" smooth="yes"/>
      <point x="1140.8133333333333" y="0.0"/>
      <point x="1170.7066666666667" y="31.960000000000004"/>
      <point x="1170.7066666666667" y="84.62666666666667" type="curve" smooth="yes"/>
      <point x="1170.7066666666667" y="127.00000000000001"/>
      <point x="1145.1066666666666" y="152.37333333333333"/>
      <point x="1097.013333333333" y="172.45333333333335" type="curve" smooth="yes"/>
      <point x="1032.48" y="194.78666666666666" type="line" smooth="yes"/>
      <point x="998.16" y="207.28"/>
      <point x="979.24" y="229.9333333333333"/>
      <point x="979.24" y="278.76" type="curve" smooth="yes"/>
      <point x="977.96" y="889.1866666666666" type="line" smooth="yes"/>
      <point x="977.96" y="936.8533333333332"/>
      <point x="956.4" y="957.1866666666666"/>
      <point x="925.5066666666668" y="957.1866666666666" type="curve" smooth="yes"/>
      <point x="900.04" y="957.1866666666666"/>
      <point x="880.4533333333334" y="947.8666666666666"/>
      <point x="842.3866666666667" y="912.5600000000001" type="curve" smooth="yes"/>
      <point x="654.24" y="740.4533333333334" type="line" smooth="yes"/>
      <point x="627.36" y="715.28"/>
      <point x="614.9200000000001" y="682.84"/>
    </contour>
    <contour>
      <point x="411.4266666666667" y="901.84" type="curve" smooth="yes"/>
      <point x="92.65333333333332" y="574.6533333333333" type="line" smooth="yes"/>
      <point x="39.60698993354928" y="525.8901634130773"/>
      <point x="23.986666666666668" y="490.0342857142857"/>
      <point x="23.986666666666668" y="449.96000000000004" type="curve" smooth="yes"/>
      <point x="23.986666666666668" y="392.5348148148148"/>
      <point x="58.69939619862526" y="354.0571559540599"/>
      <point x="122.44000000000001" y="354.05333333333334" type="curve" smooth="yes"/>
      <point x="1110.8933333333332" y="353.85333333333335" type="line" smooth="yes"/>
      <point x="1174.1599999999999" y="353.85333333333335"/>
      <point x="1201.3466666666666" y="384.5142857142857"/>
      <point x="1201.3466666666666" y="442.65333333333336" type="curve" smooth="yes"/>
      <point x="1201.3466666666666" y="499.2435942028985"/>
      <point x="1164.9466666666667" y="525.68"/>
      <point x="1111.8933333333332" y="525.68" type="curve" smooth="yes"/>
      <point x="157.53333333333333" y="525.68" type="line"/>
      <point x="192.85333333333332" y="449.20000000000005" type="line"/>
      <point x="717.5866666666667" y="967.9333333333334" type="line" smooth="yes"/>
      <point x="863.4264091991312" y="1105.3700981371953"/>
      <point x="889.9466666666666" y="1182.7733333333333"/>
      <point x="889.9466666666666" y="1265.5466666666666" type="curve" smooth="yes"/>
      <point x="889.9466666666666" y="1388.1466666666668"/>
      <point x="804.077921673727" y="1455.72"/>
      <point x="670.5866666666667" y="1455.72" type="curve" smooth="yes"/>
      <point x="515.6508301404854" y="1455.72"/>
      <point x="435.5466666666666" y="1374.9066666666665"/>
      <point x="435.5466666666666" y="1265.0133333333333" type="curve" smooth="yes"/>
      <point x="435.5466666666666" y="1164.2933333333333"/>
      <point x="507.4533333333333" y="1135.709501312336"/>
      <point x="507.4533333333333" y="1057.1466666666668" type="curve" smooth="yes"/>
      <point x="507.4533333333333" y="1013.8399999999999"/>
      <point x="479.22327537664637" y="964.6328626710475"/>
    </contour>
  </outline>
</glyph>
<glyph name="five" format="2">
  <advance width="1164.4399999999998"/>
  <unicode hex="0035"/>
  <outline>
    <contour>
      <point x="82.34666666666666" y="285.56" type="curve" smooth="yes"/>
      <point x="82.34666666666666" y="106.17416666666666"/>
      <point x="239.37333333333333" y="-28.439999999999998"/>
      <point x="545.9333333333333" y="-28.439999999999998" type="curve" smooth="yes"/>
      <point x="876.2266666666666" y="-28.439999999999998"/>
      <point x="1093.0533333333335" y="138.8626262626263"/>
      <point x="1093.0533333333335" y="428.6266666666667" type="curve" smooth="yes"/>
      <point x="1093.0533333333335" y="691.6118250377074"/>
      <point x="909.70783377542" y="865.4666666666667"/>
      <point x="631.8933333333333" y="865.4666666666667" type="curve" smooth="yes"/>
      <point x="476.40561604584525" y="865.4666666666667"/>
      <point x="365.27067892724114" y="818.3125452155155"/>
      <point x="260.64" y="724.08" type="curve"/>
      <point x="331.3466666666667" y="699.7599999999999" type="line"/>
      <point x="331.3466666666667" y="1286.0133333333333" type="line"/>
      <point x="219.54666666666665" y="1138.0266666666666" type="line"/>
      <point x="327.6628619488353" y="1078.8311651748525"/>
      <point x="496.86390804597704" y="1033.8666666666666"/>
      <point x="651.8266666666666" y="1033.8666666666666" type="curve" smooth="yes"/>
      <point x="896.1766430260047" y="1033.8666666666666"/>
      <point x="1050.5153446352374" y="1122.957900814957"/>
      <point x="1083.0133333333333" y="1333.9466666666667" type="curve" smooth="yes"/>
      <point x="1093.4266666666667" y="1400.8"/>
      <point x="1078.3066666666664" y="1426.0666666666666"/>
      <point x="1051.72" y="1432.2" type="curve" smooth="yes"/>
      <point x="1026.5066666666667" y="1440.7333333333333"/>
      <point x="1001.8133333333334" y="1428.7466666666664"/>
      <point x="971.0400000000001" y="1406.1066666666668" type="curve" smooth="yes"/>
      <point x="915.9758236957243" y="1361.8194380193718"/>
      <point x="843.4615070242656" y="1339.5866666666666"/>
      <point x="711.6133333333333" y="1339.5866666666666" type="curve" smooth="yes"/>
      <point x="602.8074885844749" y="1339.5866666666666"/>
      <point x="493.9921410941274" y="1365.5764391947919"/>
      <point x="386.7066666666667" y="1403.7333333333333" type="curve" smooth="yes"/>
      <point x="349.3091044685489" y="1415.846999789995"/>
      <point x="314.45599999999996" y="1422.2266666666667"/>
      <point x="282.32" y="1422.2266666666667" type="curve" smooth="yes"/>
      <point x="196.18666666666667" y="1422.2266666666667"/>
      <point x="159.1866666666667" y="1373.1303703703704"/>
      <point x="159.1866666666667" y="1293.2133333333331" type="curve" smooth="yes"/>
      <point x="159.1866666666667" y="647.3466666666666" type="line" smooth="yes"/>
      <point x="159.1866666666667" y="590.0400000000001"/>
      <point x="193.41176470588235" y="563.7866666666666"/>
      <point x="237.6" y="563.7866666666666" type="curve" smooth="yes"/>
      <point x="273.2416666666667" y="563.7866666666666"/>
      <point x="296.0666666666667" y="577.24"/>
      <point x="340.9866666666667" y="602.92" type="curve" smooth="yes"/>
      <point x="399.3333333333333" y="649.3333333333334"/>
      <point x="451.614149659864" y="671.36"/>
      <point x="514.76" y="671.36" type="curve" smooth="yes"/>
      <point x="642.2188778877887" y="671.36"/>
      <point x="731.4533333333334" y="587.1502083333332"/>
      <point x="731.4533333333334" y="376.4666666666667" type="curve" smooth="yes"/>
      <point x="731.4533333333334" y="186.2812944983819"/>
      <point x="664.9734930139721" y="118.52000000000001"/>
      <point x="567.0933333333332" y="118.52000000000001" type="curve" smooth="yes"/>
      <point x="476.80394705174484" y="118.52000000000001"/>
      <point x="427.28" y="173.50558375634515"/>
      <point x="427.28" y="246.89333333333332" type="curve" smooth="yes"/>
      <point x="427.28" y="316.8266666666666" type="line" smooth="yes"/>
      <point x="427.28" y="412.72226950354616"/>
      <point x="372.7466666666666" y="478.9866666666667"/>
      <point x="264.62666666666667" y="478.9866666666667" type="curve" smooth="yes"/>
      <point x="160.7104" y="478.9866666666667"/>
      <point x="82.34666666666666" y="399.55629984051035"/>
    </contour>
  </outline>
</glyph>
<glyph name="six" format="2">
  <advance width="1242.2933333333335"/>
  <unicode hex="0036"/>
  <outline>
    <contour>
      <point x="708.6666666666666" y="1428.24" type="curve" smooth="yes"/>
      <point x="307.81333333333333" y="1428.24"/>
      <point x="60.226666666666674" y="1151.655238095238"/>
      <point x="60.42666666666667" y="655.2" type="curve" smooth="yes"/>
      <point x="60.62666666666667" y="236.70612872238235"/>
      <point x="268.8666666666667" y="-27.773333333333333"/>
      <point x="640.8266666666666" y="-27.773333333333333" type="curve" smooth="yes"/>
      <point x="976.0799999999999" y="-27.773333333333333"/>
      <point x="1183.2266666666667" y="162.12"/>
      <point x="1183.2266666666667" y="440.3466666666667" type="curve" smooth="yes"/>
      <point x="1183.2266666666667" y="705.1655745721272"/>
      <point x="1025.16" y="859.5600000000001"/>
      <point x="770.92" y="859.5600000000001" type="curve" smooth="yes"/>
      <point x="531.24" y="859.5600000000001"/>
      <point x="344.6533333333333" y="708.7733333333333"/>
      <point x="324.64" y="528.48" type="curve"/>
      <point x="404.16" y="471.5733333333334" type="line"/>
      <point x="426.1066666666667" y="581.88"/>
      <point x="526.1866666666667" y="663.8"/>
      <point x="633.7066666666667" y="663.8" type="curve" smooth="yes"/>
      <point x="749.9866666666667" y="663.8"/>
      <point x="826.3733333333333" y="570.8942942942944"/>
      <point x="826.3733333333333" y="394.0" type="curve" smooth="yes"/>
      <point x="826.3733333333333" y="222.02424242424246"/>
      <point x="757.72" y="134.06666666666666"/>
      <point x="648.8133333333334" y="134.06666666666666" type="curve" smooth="yes"/>
      <point x="522.92" y="134.06666666666666"/>
      <point x="433.5733333333333" y="243.98666666666668"/>
      <point x="434.88" y="648.88" type="curve" smooth="yes"/>
      <point x="436.37333333333333" y="1118.0933333333332"/>
      <point x="537.6133333333332" y="1266.1866666666667"/>
      <point x="668.9466666666666" y="1266.1866666666667" type="curve" smooth="yes"/>
      <point x="745.8674725274725" y="1266.1866666666667"/>
      <point x="781.9333333333334" y="1227.6385185185184"/>
      <point x="781.9333333333334" y="1151.6666666666665" type="curve" smooth="yes"/>
      <point x="781.9333333333334" y="1108.2933333333335" type="line" smooth="yes"/>
      <point x="781.9333333333334" y="1004.72"/>
      <point x="841.7696124031007" y="942.6666666666667"/>
      <point x="966.6" y="942.6666666666667" type="curve" smooth="yes"/>
      <point x="1082.52" y="942.6666666666667"/>
      <point x="1155.2266666666667" y="1010.7417412217411"/>
      <point x="1155.2266666666667" y="1129.6399999999999" type="curve" smooth="yes"/>
      <point x="1155.2266666666667" y="1290.9066666666668"/>
      <point x="996.1317412935324" y="1428.24"/>
    </contour>
  </outline>
</glyph>
<glyph name="seven" format="2">
  <advance width="1075.8933333333334"/>
  <unicode hex="0037"/>
  <outline>
    <contour>
      <point x="799.0666666666666" y="1100.6133333333335" type="line"/>
      <point x="594.6266666666667" y="865.2933333333333" type="line" smooth="yes"/>
      <point x="360.1690003127163" y="618.8348058769585"/>
      <point x="259.16" y="434.1333333333333"/>
      <point x="259.16" y="251.4" type="curve" smooth="yes"/>
      <point x="259.16" y="72.66666666666666"/>
      <point x="355.5627672955975" y="-27.306666666666665"/>
      <point x="510.12" y="-27.306666666666665" type="curve" smooth="yes"/>
      <point x="668.64" y="-27.306666666666665"/>
      <point x="746.3066666666666" y="68.05333333333334"/>
      <point x="746.3066666666666" y="180.68" type="curve" smooth="yes"/>
      <point x="746.3066666666666" y="309.7466666666666"/>
      <point x="640.72" y="378.37333333333333"/>
      <point x="640.72" y="507.44" type="curve" smooth="yes"/>
      <point x="640.72" y="627.0666666666667"/>
      <point x="682.6533333333333" y="717.6533333333333"/>
      <point x="848.4266666666666" y="916.6" type="curve" smooth="yes"/>
      <point x="1013.1066666666666" y="1128.3333333333335" type="line" smooth="yes"/>
      <point x="1078.1466666666665" y="1199.3333333333333"/>
      <point x="1093.8933333333332" y="1245.3466666666668"/>
      <point x="1093.8933333333332" y="1285.6133333333332" type="curve" smooth="yes"/>
      <point x="1093.8933333333332" y="1354.0133333333335"/>
      <point x="1047.5066666666667" y="1400.0"/>
      <point x="961.5066666666667" y="1400.0" type="curve" smooth="yes"/>
      <point x="206.10666666666665" y="1400.0" type="line" smooth="yes"/>
      <point x="136.44" y="1400.0"/>
      <point x="97.54666666666665" y="1356.04"/>
      <point x="92.91999999999999" y="1288.0" type="curve" smooth="yes"/>
      <point x="70.02666666666667" y="948.28" type="line" smooth="yes"/>
      <point x="65.13333333333334" y="878.5333333333333"/>
      <point x="96.14666666666666" y="844.2266666666666"/>
      <point x="154.70666666666668" y="844.0266666666665" type="curve" smooth="yes"/>
      <point x="206.42666666666665" y="843.8266666666666"/>
      <point x="235.2133333333333" y="873.44"/>
      <point x="246.14666666666668" y="923.3199999999999" type="curve" smooth="yes"/>
      <point x="266.29333333333335" y="1011.6800000000001" type="line" smooth="yes"/>
      <point x="278.35999999999996" y="1064.8133333333333"/>
      <point x="298.0133333333333" y="1084.5466666666669"/>
      <point x="360.0533333333333" y="1084.5466666666669" type="curve" smooth="yes"/>
      <point x="862.9466666666667" y="1084.5466666666669" type="line"/>
    </contour>
  </outline>
</glyph>
<glyph name="eight" format="2">
  <advance width="1251.2266666666667"/>
  <unicode hex="0038"/>
  <outline>
    <contour>
      <point x="584.56" y="-28.013333333333332" type="curve" smooth="yes"/>
      <point x="971.9460047281324" y="-28.013333333333332"/>
      <point x="1184.0533333333335" y="131.30666666666664"/>
      <point x="1184.0533333333335" y="365.62666666666667" type="curve" smooth="yes"/>
      <point x="1184.0533333333335" y="537.3658484680611"/>
      <point x="1053.3419279496957" y="663.0022103567925"/>
      <point x="769.7866666666667" y="753.2533333333333" type="curve" smooth="yes"/>
      <point x="528.8687810908177" y="830.2441989133941"/>
      <point x="437.24" y="940.7297597776453"/>
      <point x="437.24" y="1084.7333333333333" type="curve" smooth="yes"/>
      <point x="437.24" y="1195.4205128205128"/>
      <point x="504.24571428571426" y="1276.1866666666667"/>
      <point x="628.1866666666666" y="1276.1866666666667" type="curve" smooth="yes"/>
      <point x="760.5800293218872" y="1276.1866666666667"/>
      <point x="825.2533333333334" y="1191.8973876458215"/>
      <point x="825.2533333333334" y="1054.6933333333334" type="curve" smooth="yes"/>
      <point x="825.2533333333334" y="913.4323299888518"/>
      <point x="766.5010904438371" y="797.0537249634267"/>
      <point x="676.3866666666667" y="725.56" type="curve"/>
      <point x="712.56" y="680.0933333333334" type="line"/>
      <point x="1054.1949481505765" y="698.8773359771179"/>
      <point x="1178.6266666666668" y="871.08"/>
      <point x="1178.6266666666668" y="1046.0666666666666" type="curve" smooth="yes"/>
      <point x="1178.6266666666668" y="1264.8666666666668"/>
      <point x="986.6217618730088" y="1428.0400000000002"/>
      <point x="673.8133333333333" y="1428.0400000000002" type="curve" smooth="yes"/>
      <point x="270.8463188112124" y="1428.0400000000002"/>
      <point x="81.25333333333334" y="1216.5619381787803"/>
      <point x="81.25333333333334" y="981.3733333333333" type="curve" smooth="yes"/>
      <point x="81.25333333333334" y="791.7127508090615"/>
      <point x="203.71656909526627" y="656.3136762789395"/>
      <point x="503.74666666666667" y="570.0666666666667" type="curve" smooth="yes"/>
      <point x="737.3190325730026" y="501.6101279293052"/>
      <point x="802.5866666666667" y="416.3987953704322"/>
      <point x="802.5866666666667" y="295.0" type="curve" smooth="yes"/>
      <point x="802.5866666666667" y="186.2133333333333"/>
      <point x="743.3119227494465" y="119.05333333333334"/>
      <point x="629.5333333333333" y="119.05333333333334" type="curve" smooth="yes"/>
      <point x="500.2554279959718" y="119.05333333333334"/>
      <point x="439.36" y="217.77989071038252"/>
      <point x="439.36" y="347.29333333333335" type="curve" smooth="yes"/>
      <point x="439.36" y="436.00452370745097"/>
      <point x="475.64000852876234" y="534.4990078547395"/>
      <point x="552.0933333333334" y="587.3466666666666" type="curve"/>
      <point x="549.6266666666667" y="630.1866666666666" type="line"/>
      <point x="227.78628799709236" y="617.1066633450038"/>
      <point x="78.16" y="479.4233545647558"/>
      <point x="78.16" y="305.82666666666665" type="curve"/>
      <point x="78.16" y="115.85333333333334"/>
      <point x="227.71138461538465" y="-28.013333333333332"/>
    </contour>
  </outline>
</glyph>
<glyph name="nine" format="2">
  <advance width="1247.6266666666668"/>
  <unicode hex="0039"/>
  <outline>
    <contour>
      <point x="541.6800000000001" y="-28.24" type="curve" smooth="yes"/>
      <point x="941.7866666666666" y="-28.24"/>
      <point x="1182.1066666666668" y="252.66666666666666"/>
      <point x="1184.706666666667" y="744.8" type="curve" smooth="yes"/>
      <point x="1186.8133333333335" y="1163.7599999999998"/>
      <point x="977.9866666666666" y="1428.24"/>
      <point x="605.7466666666667" y="1428.24" type="curve" smooth="yes"/>
      <point x="270.8666666666667" y="1428.24"/>
      <point x="62.0" y="1237.72"/>
      <point x="62.0" y="958.1066666666667" type="curve" smooth="yes"/>
      <point x="62.0" y="692.5522112211221"/>
      <point x="220.25333333333333" y="538.3333333333334"/>
      <point x="474.4933333333333" y="538.3333333333334" type="curve" smooth="yes"/>
      <point x="713.9866666666667" y="538.3333333333334"/>
      <point x="900.48" y="689.8666666666667"/>
      <point x="920.4933333333333" y="870.9066666666666" type="curve"/>
      <point x="841.0666666666666" y="927.9066666666665" type="line"/>
      <point x="819.0266666666666" y="817.0400000000001"/>
      <point x="719.04" y="734.5600000000001"/>
      <point x="611.9866666666667" y="734.5600000000001" type="curve" smooth="yes"/>
      <point x="495.6133333333333" y="734.5600000000001"/>
      <point x="418.85333333333335" y="827.5784946236558"/>
      <point x="418.85333333333335" y="1004.4533333333334" type="curve" smooth="yes"/>
      <point x="418.85333333333335" y="1177.8657364341086"/>
      <point x="489.32" y="1265.9333333333334"/>
      <point x="597.76" y="1265.9333333333334" type="curve" smooth="yes"/>
      <point x="724.12" y="1265.9333333333334"/>
      <point x="813.5600000000001" y="1157.92"/>
      <point x="810.2533333333333" y="751.1600000000001" type="curve" smooth="yes"/>
      <point x="806.6533333333333" y="283.92"/>
      <point x="712.1733333333333" y="134.0933333333333"/>
      <point x="581.2133333333334" y="134.0933333333333" type="curve" smooth="yes"/>
      <point x="504.5961154855643" y="134.0933333333333"/>
      <point x="462.6" y="171.87019157088122"/>
      <point x="462.6" y="246.2" type="curve" smooth="yes"/>
      <point x="462.6" y="294.7066666666667" type="line" smooth="yes"/>
      <point x="462.6" y="398.93333333333334"/>
      <point x="402.89454545454544" y="461.26666666666665"/>
      <point x="278.44" y="461.26666666666665" type="curve" smooth="yes"/>
      <point x="162.0909090909091" y="461.26666666666665"/>
      <point x="89.30666666666667" y="392.16479157774927"/>
      <point x="89.30666666666667" y="271.29333333333335" type="curve" smooth="yes"/>
      <point x="89.30666666666667" y="107.80848484848484"/>
      <point x="253.49333333333334" y="-28.24"/>
    </contour>
  </outline>
</glyph>
<glyph name="less" format="2">
  <advance width="1000.2933333333333"/>
  <unicode hex="003C"/>
  <outline>
    <contour>
      <point x="312.0533333333333" y="703.5333333333333" type="line"/>
      <point x="831.48" y="391.2933333333333" type="line" smooth="yes"/>
      <point x="892.0666666666666" y="354.12"/>
      <point x="917.4" y="307.06666666666666"/>
      <point x="917.4" y="268.7333333333333" type="curve" smooth="yes"/>
      <point x="918.1999999999999" y="213.44000000000003"/>
      <point x="891.5066666666665" y="173.08"/>
      <point x="830.0533333333333" y="173.08" type="curve" smooth="yes"/>
      <point x="779.2266666666667" y="173.08"/>
      <point x="733.6800000000001" y="197.62666666666667"/>
      <point x="660.4133333333334" y="241.6" type="curve" smooth="yes"/>
      <point x="174.0" y="526.92" type="line" smooth="yes"/>
      <point x="108.54666666666667" y="565.9066666666666"/>
      <point x="74.75999999999999" y="618.0666666666666"/>
      <point x="74.75999999999999" y="684.0" type="curve" smooth="yes"/>
      <point x="74.75999999999999" y="750.1200000000001"/>
      <point x="108.64" y="802.1866666666667"/>
      <point x="174.0" y="841.08" type="curve" smooth="yes"/>
      <point x="660.4133333333334" y="1126.4" type="line" smooth="yes"/>
      <point x="733.6800000000001" y="1170.3733333333334"/>
      <point x="779.2266666666667" y="1194.92"/>
      <point x="830.0533333333333" y="1194.92" type="curve" smooth="yes"/>
      <point x="891.5066666666665" y="1194.92"/>
      <point x="918.1999999999999" y="1154.56"/>
      <point x="917.4" y="1099.2666666666667" type="curve" smooth="yes"/>
      <point x="917.4" y="1060.9333333333334"/>
      <point x="892.0666666666666" y="1013.88"/>
      <point x="831.48" y="976.7066666666666" type="curve" smooth="yes"/>
      <point x="312.0533333333333" y="664.4666666666667" type="line"/>
    </contour>
  </outline>
</glyph>
<glyph name="question" format="2">
  <advance width="1116.0800000000002"/>
  <unicode hex="003F"/>
  <outline>
    <contour>
      <point x="392.48" y="642.0666666666667" type="line" smooth="yes"/>
      <point x="372.97333333333336" y="706.4266666666667"/>
      <point x="398.9466666666667" y="760.5733333333334"/>
      <point x="468.0" y="800.76" type="curve" smooth="yes"/>
      <point x="530.9466666666666" y="837.7866666666667" type="line" smooth="yes"/>
      <point x="630.2837041518744" y="895.5277282874094"/>
      <point x="667.7733333333333" y="976.1621798365123"/>
      <point x="667.7733333333333" y="1121.6133333333335" type="curve" smooth="yes"/>
      <point x="667.7733333333333" y="1239.4104166666666"/>
      <point x="614.8103761348898" y="1306.24"/>
      <point x="538.6933333333334" y="1306.24" type="curve" smooth="yes"/>
      <point x="463.30666666666673" y="1306.24"/>
      <point x="423.55999999999995" y="1267.3165345080765"/>
      <point x="423.55999999999995" y="1201.48" type="curve" smooth="yes"/>
      <point x="423.55999999999995" y="1128.4666666666667" type="line" smooth="yes"/>
      <point x="423.55999999999995" y="994.4944529262086"/>
      <point x="356.64" y="919.8666666666667"/>
      <point x="236.2933333333333" y="919.7733333333334" type="curve" smooth="yes"/>
      <point x="127.21333333333334" y="919.6800000000001"/>
      <point x="55.53333333333333" y="988.4438095238096"/>
      <point x="55.53333333333333" y="1106.8666666666666" type="curve" smooth="yes"/>
      <point x="55.53333333333333" y="1295.7830303030303"/>
      <point x="266.38666666666666" y="1454.9733333333334"/>
      <point x="560.92" y="1454.9733333333334" type="curve" smooth="yes"/>
      <point x="897.1610146754133" y="1454.9733333333334"/>
      <point x="1066.5066666666667" y="1328.0447813447674"/>
      <point x="1066.5066666666667" y="1087.1866666666667" type="curve" smooth="yes"/>
      <point x="1066.5066666666667" y="884.3329310665921"/>
      <point x="963.1408187416357" y="759.8549021432416"/>
      <point x="723.6266666666666" y="707.88" type="curve" smooth="yes"/>
      <point x="683.3333333333334" y="697.5466666666667" type="line" smooth="yes"/>
      <point x="648.1700610643763" y="690.1824871855002"/>
      <point x="639.8666666666667" y="667.3066666666667"/>
      <point x="628.52" y="638.0133333333334" type="curve" smooth="yes"/>
      <point x="610.0" y="554.6533333333333" type="line" smooth="yes"/>
      <point x="580.497799619881" y="490.14864028785695"/>
      <point x="557.9202693602695" y="468.46666666666664"/>
      <point x="504.7466666666667" y="468.46666666666664" type="curve" smooth="yes"/>
      <point x="452.3144284233342" y="468.46666666666664"/>
      <point x="423.2692973287839" y="496.37075561908273"/>
      <point x="407.0666666666667" y="548.9333333333333" type="curve" smooth="yes"/>
    </contour>
    <component base="period" xOffset="218.84"/>
  </outline>
</glyph>
<glyph name="at" format="2">
  <advance width="1856.8133333333333"/>
  <unicode hex="0040"/>
  <outline>
    <contour>
      <point x="1054.0666666666666" y="482.0933333333333" type="curve"/>
      <point x="1083.5866666666668" y="572.9333333333333" type="line"/>
      <point x="1033.1333333333332" y="593.8933333333332"/>
      <point x="997.3600000000001" y="600.8266666666666"/>
      <point x="924.6133333333332" y="600.8266666666666" type="curve" smooth="yes"/>
      <point x="672.1066666666666" y="600.8266666666666"/>
      <point x="524.8" y="490.26666666666665"/>
      <point x="524.8" y="337.1066666666666" type="curve" smooth="yes"/>
      <point x="524.8" y="203.69333333333333"/>
      <point x="631.9733333333332" y="116.78666666666668"/>
      <point x="796.9733333333334" y="116.78666666666668" type="curve" smooth="yes"/>
      <point x="916.5733333333333" y="116.78666666666668"/>
      <point x="1034.2933333333335" y="167.49333333333337"/>
      <point x="1089.6266666666666" y="257.41333333333336" type="curve"/>
      <point x="1063.8" y="341.84" type="line"/>
      <point x="1042.7066666666667" y="305.3733333333334"/>
      <point x="1000.1599999999999" y="290.81333333333333"/>
      <point x="948.3600000000001" y="290.81333333333333" type="curve" smooth="yes"/>
      <point x="887.4133333333334" y="290.81333333333333"/>
      <point x="842.44" y="333.8"/>
      <point x="842.44" y="400.43999999999994" type="curve" smooth="yes"/>
      <point x="842.44" y="462.86666666666673"/>
      <point x="897.4533333333333" y="502.7333333333333"/>
      <point x="961.0533333333334" y="502.7333333333333" type="curve" smooth="yes"/>
      <point x="1000.4933333333333" y="502.7333333333333"/>
      <point x="1022.8666666666667" y="493.72"/>
    </contour>
    <contour>
      <point x="1414.16" y="288.0" type="curve" smooth="yes"/>
      <point x="1362.2533333333333" y="288.0"/>
      <point x="1340.7066666666665" y="321.5466666666667"/>
      <point x="1340.7066666666665" y="377.70666666666665" type="curve" smooth="yes"/>
      <point x="1340.7066666666665" y="768.5199999999999" type="line" smooth="yes"/>
      <point x="1340.7066666666665" y="944.5733333333334"/>
      <point x="1194.0399999999997" y="1028.3066666666668"/>
      <point x="1016.96" y="1028.3066666666668" type="curve" smooth="yes"/>
      <point x="707.4000000000001" y="1028.3066666666668"/>
      <point x="559.4933333333332" y="923.88"/>
      <point x="559.4933333333332" y="771.0533333333333" type="curve" smooth="yes"/>
      <point x="559.4933333333332" y="695.1866666666666"/>
      <point x="626.2533333333333" y="658.5600000000001"/>
      <point x="699.08" y="658.5600000000001" type="curve" smooth="yes"/>
      <point x="784.7333333333333" y="658.5600000000001"/>
      <point x="863.8266666666667" y="698.2533333333333"/>
      <point x="863.8266666666667" y="785.6800000000001" type="curve" smooth="yes"/>
      <point x="863.8266666666667" y="830.6533333333333" type="line" smooth="yes"/>
      <point x="863.8266666666667" y="871.9466666666667"/>
      <point x="894.1066666666666" y="898.5066666666665"/>
      <point x="943.2266666666667" y="898.5066666666665" type="curve" smooth="yes"/>
      <point x="1003.9333333333334" y="898.5066666666665"/>
      <point x="1032.08" y="851.6"/>
      <point x="1032.08" y="790.2533333333333" type="curve" smooth="yes"/>
      <point x="1032.08" y="295.5066666666667" type="line"/>
      <point x="1054.8666666666666" y="288.08" type="line"/>
      <point x="1058.066537854921" y="167.15091745427074"/>
      <point x="1185.5517096466094" y="116.78666666666668"/>
      <point x="1328.3466666666668" y="116.78666666666668" type="curve" smooth="yes"/>
      <point x="1595.799658119658" y="116.78666666666668"/>
      <point x="1768.0266666666666" y="334.73333333333335"/>
      <point x="1768.0266666666666" y="625.8933333333333" type="curve" smooth="yes"/>
      <point x="1768.0266666666666" y="1111.2133333333334"/>
      <point x="1413.68" y="1391.9599999999998"/>
      <point x="964.56" y="1391.9599999999998" type="curve" smooth="yes"/>
      <point x="445.36" y="1391.9599999999998"/>
      <point x="84.24000000000001" y="1008.3600000000001"/>
      <point x="84.24000000000001" y="544.0666666666666" type="curve" smooth="yes"/>
      <point x="84.24000000000001" y="26.599999999999998"/>
      <point x="452.0266666666667" y="-291.29333333333335"/>
      <point x="946.7066666666667" y="-291.29333333333335" type="curve" smooth="yes"/>
      <point x="1295.6533333333334" y="-291.29333333333335"/>
      <point x="1568.28" y="-179.69333333333333"/>
      <point x="1676.0266666666666" y="-54.279999999999994" type="curve" smooth="yes"/>
      <point x="1719.2133333333336" y="-6.346666666666667"/>
      <point x="1728.3733333333332" y="47.013333333333335"/>
      <point x="1694.72" y="80.18666666666667" type="curve" smooth="yes"/>
      <point x="1659.3333333333333" y="114.75999999999999"/>
      <point x="1604.7066666666667" y="93.02666666666667"/>
      <point x="1565.0266666666669" y="62.626666666666665" type="curve" smooth="yes"/>
      <point x="1393.420275888546" y="-76.22366893374483"/>
      <point x="1178.8133333333335" y="-138.46666666666667"/>
      <point x="948.9066666666668" y="-138.46666666666667" type="curve" smooth="yes"/>
      <point x="540.6266666666667" y="-138.46666666666667"/>
      <point x="255.72" y="133.51417974322396"/>
      <point x="255.72" y="544.0666666666666" type="curve" smooth="yes"/>
      <point x="255.72" y="968.4133333333334"/>
      <point x="536.8832116788321" y="1253.6666666666665"/>
      <point x="952.8266666666666" y="1253.6666666666665" type="curve" smooth="yes"/>
      <point x="1314.7145945945945" y="1253.6666666666665"/>
      <point x="1592.52" y="1010.84"/>
      <point x="1592.52" y="624.0933333333334" type="curve" smooth="yes"/>
      <point x="1592.52" y="410.62666666666667"/>
      <point x="1523.1109219858154" y="288.0"/>
    </contour>
  </outline>
</glyph>
<glyph name="A" format="2">
  <advance width="1486.6666666666667"/>
  <unicode hex="0041"/>
  <anchor x="741.0266666666668" y="1468.8799999999999" name="center"/>
  <outline>
    <contour>
      <point x="345.9733333333333" y="617.5733333333333" type="line"/>
      <point x="343.3066666666667" y="442.1733333333333" type="line"/>
      <point x="950.2133333333334" y="442.1733333333333" type="line"/>
      <point x="947.9066666666666" y="617.5733333333333" type="line"/>
    </contour>
    <contour>
      <point x="505.5333333333333" y="84.62666666666667" type="curve" smooth="yes"/>
      <point x="505.5333333333333" y="124.32000000000001"/>
      <point x="485.8533333333333" y="149.0"/>
      <point x="447.3733333333334" y="167.22666666666666" type="curve" smooth="yes"/>
      <point x="402.4933333333333" y="182.45333333333335" type="line" smooth="yes"/>
      <point x="338.96000000000004" y="212.27999999999997"/>
      <point x="347.06666666666666" y="239.86666666666665"/>
      <point x="375.4266666666666" y="332.18666666666667" type="curve" smooth="yes"/>
      <point x="660.3866666666668" y="1245.1733333333332" type="line" smooth="yes"/>
      <point x="629.6399999999999" y="1246.7066666666665" type="line"/>
      <point x="921.1333333333333" y="292.71999999999997" type="line" smooth="yes"/>
      <point x="943.0666666666667" y="220.01333333333335"/>
      <point x="946.3066666666666" y="195.22666666666663"/>
      <point x="919.6933333333333" y="183.73333333333335" type="curve" smooth="yes"/>
      <point x="877.1466666666666" y="169.25333333333333" type="line" smooth="yes"/>
      <point x="838.8266666666666" y="150.54666666666668"/>
      <point x="818.8933333333333" y="125.38666666666666"/>
      <point x="818.8933333333333" y="84.62666666666667" type="curve" smooth="yes"/>
      <point x="818.8933333333333" y="31.960000000000004"/>
      <point x="847.9866666666667" y="0.0"/>
      <point x="914.1466666666666" y="0.0" type="curve" smooth="yes"/>
      <point x="1356.013333333333" y="0.0" type="line" smooth="yes"/>
      <point x="1420.72" y="0.0"/>
      <point x="1451.36" y="33.08"/>
      <point x="1451.36" y="84.62666666666667" type="curve" smooth="yes"/>
      <point x="1451.36" y="127.54666666666668"/>
      <point x="1435.76" y="151.77333333333334"/>
      <point x="1387.3333333333333" y="179.12" type="curve" smooth="yes"/>
      <point x="1343.3333333333335" y="202.24"/>
      <point x="1324.7866666666669" y="240.54666666666668"/>
      <point x="1292.1733333333334" y="346.48" type="curve" smooth="yes"/>
      <point x="1044.1466666666668" y="1128.3066666666666" type="line" smooth="yes"/>
      <point x="1026.7199999999998" y="1185.2666666666667"/>
      <point x="1030.5866666666666" y="1209.12"/>
      <point x="1063.1866666666667" y="1225.4666666666667" type="curve" smooth="yes"/>
      <point x="1104.04" y="1245.6933333333334"/>
      <point x="1124.0533333333335" y="1271.88"/>
      <point x="1124.0533333333335" y="1315.3733333333332" type="curve" smooth="yes"/>
      <point x="1124.0533333333335" y="1368.3866666666665"/>
      <point x="1092.5733333333335" y="1400.0"/>
      <point x="1028.7066666666667" y="1400.0" type="curve" smooth="yes"/>
      <point x="445.6933333333333" y="1400.0" type="line" smooth="yes"/>
      <point x="381.8266666666667" y="1400.0"/>
      <point x="350.43999999999994" y="1368.7866666666664"/>
      <point x="350.43999999999994" y="1315.3733333333332" type="curve" smooth="yes"/>
      <point x="350.43999999999994" y="1273.4933333333336"/>
      <point x="369.37333333333333" y="1246.5466666666666"/>
      <point x="408.52" y="1227.6" type="curve" smooth="yes"/>
      <point x="451.69333333333327" y="1206.5866666666666"/>
      <point x="454.1733333333333" y="1187.0266666666666"/>
      <point x="434.5466666666667" y="1123.746666666667" type="curve" smooth="yes"/>
      <point x="175.34666666666666" y="297.52" type="line" smooth="yes"/>
      <point x="150.2266666666667" y="214.69333333333333"/>
      <point x="140.06666666666663" y="201.10666666666665"/>
      <point x="112.08" y="183.85333333333332" type="curve" smooth="yes"/>
      <point x="85.64" y="168.45333333333335" type="line" smooth="yes"/>
      <point x="49.440000000000005" y="142.69333333333333"/>
      <point x="33.50666666666666" y="120.15999999999998"/>
      <point x="33.50666666666666" y="84.62666666666667" type="curve" smooth="yes"/>
      <point x="33.50666666666666" y="31.960000000000004"/>
      <point x="63.77333333333333" y="0.0"/>
      <point x="128.66666666666669" y="0.0" type="curve" smooth="yes"/>
      <point x="410.28" y="0.0" type="line" smooth="yes"/>
      <point x="475.64000000000004" y="0.0"/>
      <point x="505.5333333333333" y="31.960000000000004"/>
    </contour>
  </outline>
</glyph>
<glyph name="B" format="2">
  <advance width="1424.88"/>
  <unicode hex="0042"/>
  <outline>
    <contour>
      <point x="1381.7333333333331" y="336.4" type="curve" smooth="yes"/>
      <point x="1381.7333333333331" y="543.5587148594377"/>
      <point x="1186.5333333333333" y="684.9866666666667"/>
      <point x="861.6" y="684.9866666666667" type="curve"/>
      <point x="816.2266666666667" y="641.3333333333334" type="line"/>
      <point x="1137.5066666666667" y="641.3333333333334"/>
      <point x="1304.8133333333333" y="787.9399626463463"/>
      <point x="1304.8133333333333" y="985.8666666666667" type="curve" smooth="yes"/>
      <point x="1304.8133333333333" y="1235.8733844842284"/>
      <point x="1084.5733333333333" y="1400.0"/>
      <point x="724.5733333333334" y="1400.0" type="curve" smooth="yes"/>
      <point x="167.17333333333332" y="1400.0" type="line" smooth="yes"/>
      <point x="103.30666666666666" y="1400.0"/>
      <point x="71.92" y="1368.7866666666664"/>
      <point x="71.92" y="1315.3733333333332" type="curve" smooth="yes"/>
      <point x="71.92" y="1272.3066666666666"/>
      <point x="90.96000000000001" y="1243.8933333333334"/>
      <point x="130.35999999999999" y="1224.3466666666668" type="curve" smooth="yes"/>
      <point x="168.13333333333333" y="1208.84" type="line" smooth="yes"/>
      <point x="203.28" y="1192.7333333333336"/>
      <point x="221.46666666666667" y="1172.5733333333333"/>
      <point x="221.46666666666667" y="1125.24" type="curve" smooth="yes"/>
      <point x="221.46666666666667" y="274.76" type="line" smooth="yes"/>
      <point x="221.46666666666667" y="227.42666666666668"/>
      <point x="202.90666666666667" y="207.35999999999999"/>
      <point x="167.2" y="191.16000000000003" type="curve" smooth="yes"/>
      <point x="130.35999999999999" y="175.65333333333334" type="line" smooth="yes"/>
      <point x="90.96000000000001" y="156.01333333333332"/>
      <point x="71.92" y="127.69333333333331"/>
      <point x="71.92" y="84.62666666666667" type="curve" smooth="yes"/>
      <point x="71.92" y="31.21333333333333"/>
      <point x="103.30666666666666" y="0.0"/>
      <point x="167.17333333333332" y="0.0" type="curve" smooth="yes"/>
      <point x="883.1600000000001" y="0.0" type="line" smooth="yes"/>
      <point x="1221.92" y="0.0"/>
      <point x="1381.7333333333331" y="136.71131782945736"/>
    </contour>
    <contour>
      <point x="750.4133333333333" y="569.9866666666667" type="line" smooth="yes"/>
      <point x="919.7466666666667" y="569.9866666666667"/>
      <point x="1013.2533333333333" y="485.5525970080287"/>
      <point x="1013.2533333333333" y="353.3733333333333" type="curve" smooth="yes"/>
      <point x="1013.2533333333333" y="233.75546853146852"/>
      <point x="938.3199999999999" y="163.92"/>
      <point x="801.7466666666667" y="163.92" type="curve" smooth="yes"/>
      <point x="737.8533333333332" y="163.92" type="line" smooth="yes"/>
      <point x="644.9866666666666" y="163.92"/>
      <point x="594.6933333333333" y="210.51999999999998"/>
      <point x="594.6933333333333" y="303.52" type="curve" smooth="yes"/>
      <point x="594.6933333333333" y="1236.0266666666666" type="line"/>
      <point x="655.9866666666667" y="1236.0266666666666" type="line" smooth="yes"/>
      <point x="854.4933333333333" y="1236.0266666666666"/>
      <point x="953.4266666666666" y="1135.067158213693"/>
      <point x="953.4266666666666" y="972.8" type="curve" smooth="yes"/>
      <point x="953.4266666666666" y="806.1060478199719"/>
      <point x="864.1333333333333" y="721.0666666666667"/>
      <point x="699.3599999999999" y="721.0666666666667" type="curve" smooth="yes"/>
      <point x="461.11999999999995" y="721.0666666666667" type="line"/>
      <point x="461.11999999999995" y="569.9866666666667" type="line"/>
    </contour>
  </outline>
</glyph>
<glyph name="C" format="2">
  <advance width="1371.6933333333334"/>
  <unicode hex="0043"/>
  <anchor x="747.5866666666666" y="1522.0" name="center"/>
  <outline>
    <contour>
      <point x="1320.4133333333334" y="372.8133333333334" type="curve" smooth="yes"/>
      <point x="1321.0666666666668" y="405.37333333333333"/>
      <point x="1309.6133333333335" y="428.84"/>
      <point x="1285.5866666666666" y="436.0933333333333" type="curve" smooth="yes"/>
      <point x="1258.7002150537635" y="444.94666666666666"/>
      <point x="1231.9333333333334" y="436.49333333333334"/>
      <point x="1190.32" y="390.1333333333333" type="curve" smooth="yes"/>
      <point x="1099.9470565660608" y="272.10922325470057"/>
      <point x="991.6980441640378" y="211.35999999999999"/>
      <point x="860.9866666666666" y="211.35999999999999" type="curve" smooth="yes"/>
      <point x="616.1571501272265" y="211.35999999999999"/>
      <point x="441.4533333333333" y="405.4363762452833"/>
      <point x="441.4533333333333" y="748.8266666666666" type="curve" smooth="yes"/>
      <point x="441.4533333333333" y="1051.2088551836355"/>
      <point x="565.5610486891386" y="1265.5466666666666"/>
      <point x="779.8533333333334" y="1265.5466666666666" type="curve" smooth="yes"/>
      <point x="928.3066666666666" y="1265.5466666666666"/>
      <point x="1036.6150489943293" y="1199.0426685280263"/>
      <point x="1133.1066666666668" y="979.88" type="curve" smooth="yes"/>
      <point x="1157.2400000000002" y="925.9333333333334"/>
      <point x="1196.9466666666667" y="910.2266666666667"/>
      <point x="1241.6533333333332" y="917.56" type="curve" smooth="yes"/>
      <point x="1292.8567011274638" y="926.213838502453"/>
      <point x="1322.1423278328039" y="967.3816928214699"/>
      <point x="1308.68" y="1015.6800000000001" type="curve" smooth="yes"/>
      <point x="1214.6933333333336" y="1339.9733333333334" type="line" smooth="yes"/>
      <point x="1196.2666666666667" y="1405.4133333333332"/>
      <point x="1181.466666666667" y="1425.2666666666667"/>
      <point x="1141.1866666666667" y="1425.2666666666667" type="curve" smooth="yes"/>
      <point x="1089.9866666666665" y="1425.2666666666667"/>
      <point x="1076.7733333333333" y="1362.64"/>
      <point x="1029.2533333333336" y="1362.64" type="curve" smooth="yes"/>
      <point x="977.8533333333334" y="1362.64"/>
      <point x="915.9866666666667" y="1429.2"/>
      <point x="727.84" y="1429.2" type="curve" smooth="yes"/>
      <point x="357.9733333333333" y="1429.2"/>
      <point x="62.626666666666665" y="1113.4036380172804"/>
      <point x="62.626666666666665" y="700.3866666666667" type="curve" smooth="yes"/>
      <point x="62.626666666666665" y="269.88438957475995"/>
      <point x="331.77415132924335" y="-30.4"/>
      <point x="751.7466666666667" y="-30.4" type="curve" smooth="yes"/>
      <point x="1110.2957133717211" y="-30.4"/>
      <point x="1312.0182382215955" y="198.16654225351982"/>
    </contour>
  </outline>
</glyph>
<glyph name="D" format="2">
  <advance width="1573.9066666666665"/>
  <unicode hex="0044"/>
  <anchor x="760.0933333333334" y="1491.8" name="center"/>
  <outline>
    <contour>
      <point x="71.92" y="84.62666666666667" type="curve" smooth="yes"/>
      <point x="71.92" y="31.21333333333333"/>
      <point x="103.30666666666666" y="0.0"/>
      <point x="167.17333333333332" y="0.0" type="curve" smooth="yes"/>
      <point x="799.7066666666667" y="0.0" type="line" smooth="yes"/>
      <point x="1242.0666666666668" y="0.0"/>
      <point x="1512.04" y="278.46666666666664"/>
      <point x="1512.04" y="653.6666666666667" type="curve" smooth="yes"/>
      <point x="1512.04" y="1089.8"/>
      <point x="1191.0154204398448" y="1400.0"/>
      <point x="709.9733333333334" y="1400.0" type="curve" smooth="yes"/>
      <point x="167.17333333333332" y="1400.0" type="line" smooth="yes"/>
      <point x="103.73333333333333" y="1400.0"/>
      <point x="71.92" y="1368.7866666666664"/>
      <point x="71.92" y="1315.3733333333332" type="curve" smooth="yes"/>
      <point x="71.92" y="1272.3066666666666"/>
      <point x="90.96000000000001" y="1243.8933333333334"/>
      <point x="130.35999999999999" y="1224.3466666666668" type="curve" smooth="yes"/>
      <point x="168.13333333333333" y="1208.84" type="line" smooth="yes"/>
      <point x="203.28269085938885" y="1192.7661069485084"/>
      <point x="221.46666666666667" y="1172.598787878788"/>
      <point x="221.46666666666667" y="1125.24" type="curve" smooth="yes"/>
      <point x="221.46666666666667" y="274.76" type="line" smooth="yes"/>
      <point x="221.46666666666667" y="227.42666666666668"/>
      <point x="203.28269085938885" y="207.23389305149155"/>
      <point x="168.13333333333333" y="191.16000000000003" type="curve" smooth="yes"/>
      <point x="130.35999999999999" y="175.65333333333334" type="line" smooth="yes"/>
      <point x="90.96000000000001" y="156.10666666666663"/>
      <point x="71.92" y="127.69333333333331"/>
    </contour>
    <contour>
      <point x="766.48" y="172.50666666666666" type="curve" smooth="yes"/>
      <point x="724.5333333333333" y="172.50666666666666" type="line" smooth="yes"/>
      <point x="638.5866666666667" y="172.50666666666666"/>
      <point x="594.2266666666666" y="213.94863534675616"/>
      <point x="594.2266666666666" y="311.94666666666666" type="curve" smooth="yes"/>
      <point x="594.2266666666666" y="1227.5866666666666" type="line"/>
      <point x="678.3199999999999" y="1227.5866666666666" type="line" smooth="yes"/>
      <point x="954.8834978843441" y="1227.5866666666666"/>
      <point x="1128.1333333333334" y="997.4886741016109"/>
      <point x="1128.1333333333334" y="663.4666666666667" type="curve" smooth="yes"/>
      <point x="1128.1333333333334" y="339.1934160338961"/>
      <point x="979.0133333333333" y="172.50666666666666"/>
    </contour>
  </outline>
</glyph>
<glyph name="E" format="2">
  <advance width="1309.8"/>
  <unicode hex="0045"/>
  <anchor x="660.7599999999999" y="1479.8799999999999" name="center"/>
  <outline>
    <contour>
      <point x="419.03999999999996" y="782.44" type="line"/>
      <point x="419.03999999999996" y="618.56" type="line"/>
      <point x="773.68" y="618.56" type="line" smooth="yes"/>
      <point x="861.0533333333333" y="618.56"/>
      <point x="884.28" y="601.3466666666666"/>
      <point x="923.1066666666667" y="539.96" type="curve" smooth="yes"/>
      <point x="948.5866666666666" y="502.4533333333333"/>
      <point x="986.12" y="487.0666666666667"/>
      <point x="1023.5733333333335" y="499.7733333333333" type="curve" smooth="yes"/>
      <point x="1065.5733333333335" y="513.7599999999999"/>
      <point x="1084.04" y="548.8933333333333"/>
      <point x="1070.1866666666667" y="607.7866666666667" type="curve" smooth="yes"/>
      <point x="1007.1466666666665" y="871.8666666666668" type="line" smooth="yes"/>
      <point x="996.1199999999999" y="918.4266666666666"/>
      <point x="970.6933333333333" y="939.76"/>
      <point x="929.6933333333334" y="939.16" type="curve" smooth="yes"/>
      <point x="894.6" y="938.56"/>
      <point x="868.1066666666667" y="919.0533333333333"/>
      <point x="854.84" y="873.4933333333333" type="curve" smooth="yes"/>
      <point x="839.2666666666667" y="807.4"/>
      <point x="821.4533333333334" y="782.44"/>
      <point x="757.0799999999999" y="782.44" type="curve" smooth="yes"/>
    </contour>
    <contour>
      <point x="71.92" y="1315.3733333333332" type="curve" smooth="yes"/>
      <point x="71.92" y="1272.3066666666666"/>
      <point x="90.96000000000001" y="1243.8933333333334"/>
      <point x="130.35999999999999" y="1224.3466666666668" type="curve" smooth="yes"/>
      <point x="168.13333333333333" y="1208.84" type="line" smooth="yes"/>
      <point x="203.28" y="1192.7333333333336"/>
      <point x="221.46666666666667" y="1172.5733333333333"/>
      <point x="221.46666666666667" y="1125.24" type="curve" smooth="yes"/>
      <point x="221.46666666666667" y="274.76" type="line" smooth="yes"/>
      <point x="221.46666666666667" y="227.42666666666668"/>
      <point x="203.28" y="207.26666666666665"/>
      <point x="168.13333333333333" y="191.16000000000003" type="curve" smooth="yes"/>
      <point x="130.35999999999999" y="175.65333333333334" type="line" smooth="yes"/>
      <point x="90.96000000000001" y="156.10666666666663"/>
      <point x="71.92" y="127.69333333333331"/>
      <point x="71.92" y="84.62666666666667" type="curve" smooth="yes"/>
      <point x="71.92" y="31.21333333333333"/>
      <point x="103.30666666666666" y="0.0"/>
      <point x="167.17333333333332" y="0.0" type="curve" smooth="yes"/>
      <point x="897.52" y="0.0" type="line" smooth="yes"/>
      <point x="984.9733333333334" y="0.0"/>
      <point x="1026.4933333333333" y="-35.68"/>
      <point x="1084.88" y="-35.68" type="curve" smooth="yes"/>
      <point x="1156.2666666666669" y="-35.68"/>
      <point x="1185.2666666666667" y="2.1866666666666656"/>
      <point x="1208.52" y="86.01333333333334" type="curve" smooth="yes"/>
      <point x="1270.3733333333334" y="323.2" type="line" smooth="yes"/>
      <point x="1286.6266666666666" y="384.46666666666664"/>
      <point x="1263.0133333333333" y="429.3333333333333"/>
      <point x="1210.4933333333333" y="440.56" type="curve" smooth="yes"/>
      <point x="1161.3999999999999" y="450.93333333333334"/>
      <point x="1122.96" y="433.4266666666667"/>
      <point x="1102.44" y="379.09333333333336" type="curve" smooth="yes"/>
      <point x="1036.3999999999999" y="205.49333333333334"/>
      <point x="978.0133333333334" y="172.50666666666666"/>
      <point x="849.5733333333333" y="172.50666666666666" type="curve" smooth="yes"/>
      <point x="735.4266666666666" y="172.50666666666666" type="line" smooth="yes"/>
      <point x="643.76" y="172.50666666666666"/>
      <point x="594.1333333333333" y="222.01333333333332"/>
      <point x="594.1333333333333" y="319.85333333333335" type="curve" smooth="yes"/>
      <point x="594.1333333333333" y="1227.4933333333333" type="line"/>
      <point x="829.6666666666666" y="1227.4933333333333" type="line" smooth="yes"/>
      <point x="939.0266666666666" y="1227.4933333333333"/>
      <point x="993.44" y="1206.6533333333334"/>
      <point x="1058.466666666667" y="1050.4399999999998" type="curve" smooth="yes"/>
      <point x="1083.44" y="992.1733333333333"/>
      <point x="1126.0533333333335" y="979.5466666666666"/>
      <point x="1170.16" y="988.6933333333333" type="curve" smooth="yes"/>
      <point x="1217.72" y="998.32"/>
      <point x="1248.24" y="1035.7466666666667"/>
      <point x="1234.24" y="1087.12" type="curve" smooth="yes"/>
      <point x="1171.04" y="1316.9066666666668" type="line" smooth="yes"/>
      <point x="1146.88" y="1402.24"/>
      <point x="1118.4133333333334" y="1438.6000000000001"/>
      <point x="1048.8933333333332" y="1438.6000000000001" type="curve" smooth="yes"/>
      <point x="987.48" y="1438.6000000000001"/>
      <point x="948.0799999999999" y="1400.0"/>
      <point x="859.1866666666666" y="1400.0" type="curve" smooth="yes"/>
      <point x="167.17333333333332" y="1400.0" type="line" smooth="yes"/>
      <point x="103.30666666666666" y="1400.0"/>
      <point x="71.92" y="1368.7866666666664"/>
    </contour>
  </outline>
</glyph>
<glyph name="F" format="2">
  <advance width="1228.56"/>
  <unicode hex="0046"/>
  <outline>
    <contour>
      <point x="822.2133333333334" y="1400.0" type="curve" smooth="yes"/>
      <point x="167.17333333333332" y="1400.0" type="line" smooth="yes"/>
      <point x="103.30666666666666" y="1400.0"/>
      <point x="71.92" y="1368.7866666666664"/>
      <point x="71.92" y="1315.3733333333332" type="curve" smooth="yes"/>
      <point x="71.92" y="1272.3066666666666"/>
      <point x="90.96000000000001" y="1243.8933333333334"/>
      <point x="130.35999999999999" y="1224.3466666666668" type="curve" smooth="yes"/>
      <point x="168.13333333333333" y="1208.84" type="line" smooth="yes"/>
      <point x="203.28" y="1192.7333333333336"/>
      <point x="221.46666666666667" y="1172.5733333333333"/>
      <point x="221.46666666666667" y="1125.24" type="curve" smooth="yes"/>
      <point x="221.46666666666667" y="274.76" type="line" smooth="yes"/>
      <point x="221.46666666666667" y="227.40121212121213"/>
      <point x="203.28269085938885" y="207.23389305149155"/>
      <point x="168.13333333333333" y="191.16000000000003" type="curve" smooth="yes"/>
      <point x="130.35999999999999" y="175.65333333333334" type="line" smooth="yes"/>
      <point x="90.96000000000001" y="156.10666666666663"/>
      <point x="71.92" y="127.69333333333331"/>
      <point x="71.92" y="84.62666666666667" type="curve" smooth="yes"/>
      <point x="71.92" y="31.21333333333333"/>
      <point x="103.30666666666666" y="0.0"/>
      <point x="167.17333333333332" y="0.0" type="curve" smooth="yes"/>
      <point x="679.8666666666667" y="0.0" type="line" smooth="yes"/>
      <point x="743.8266666666666" y="0.0"/>
      <point x="775.2133333333334" y="31.21333333333333"/>
      <point x="775.2133333333334" y="84.62666666666667" type="curve" smooth="yes"/>
      <point x="775.2133333333334" y="129.92"/>
      <point x="756.5066666666667" y="154.98666666666665"/>
      <point x="716.6800000000001" y="170.0" type="curve" smooth="yes"/>
      <point x="649.6400000000001" y="191.16000000000003" type="line" smooth="yes"/>
      <point x="612.4933333333333" y="203.61333333333334"/>
      <point x="594.6933333333333" y="225.53454545454548"/>
      <point x="594.6933333333333" y="275.18666666666667" type="curve" smooth="yes"/>
      <point x="594.6933333333333" y="1227.5866666666666" type="line"/>
      <point x="795.4933333333333" y="1227.5866666666666" type="line" smooth="yes"/>
      <point x="907.6933333333333" y="1227.5866666666666"/>
      <point x="960.1035461976045" y="1204.7331611584414"/>
      <point x="1029.0666666666664" y="1035.7066666666665" type="curve" smooth="yes"/>
      <point x="1053.9466666666667" y="977.44"/>
      <point x="1094.2533333333333" y="966.2133333333334"/>
      <point x="1133.4533333333336" y="972.84" type="curve" smooth="yes"/>
      <point x="1182.8799999999999" y="981.3466666666667"/>
      <point x="1215.2666666666667" y="1019.7066666666666"/>
      <point x="1201.6399999999999" y="1068.84" type="curve" smooth="yes"/>
      <point x="1134.3466666666668" y="1316.9066666666668" type="line" smooth="yes"/>
      <point x="1110.1866666666667" y="1401.44"/>
      <point x="1081.7199999999998" y="1438.6000000000001"/>
      <point x="1010.8" y="1438.6000000000001" type="curve" smooth="yes"/>
      <point x="951.1066666666666" y="1438.6000000000001"/>
      <point x="910.9733333333332" y="1400.0"/>
    </contour>
    <contour>
      <point x="432.0533333333333" y="734.1066666666667" type="line"/>
      <point x="432.0533333333333" y="570.2266666666667" type="line"/>
      <point x="787.0666666666666" y="570.2266666666667" type="line" smooth="yes"/>
      <point x="875.84" y="570.2266666666667"/>
      <point x="897.2357235228718" y="553.7306307982516"/>
      <point x="935.9333333333334" y="491.44" type="curve" smooth="yes"/>
      <point x="960.76" y="453.18666666666667"/>
      <point x="998.3866666666667" y="438.82666666666665"/>
      <point x="1035.28" y="450.7866666666667" type="curve" smooth="yes"/>
      <point x="1080.08" y="465.24"/>
      <point x="1096.4" y="500.37333333333333"/>
      <point x="1082.64" y="559.2666666666668" type="curve" smooth="yes"/>
      <point x="1019.8800000000001" y="823.3466666666666" type="line" smooth="yes"/>
      <point x="1009.3199999999999" y="869.9066666666666"/>
      <point x="983.1466666666669" y="891.24"/>
      <point x="942.8000000000001" y="890.64" type="curve" smooth="yes"/>
      <point x="905.1866666666667" y="890.04"/>
      <point x="878.88" y="869.04"/>
      <point x="866.92" y="826.4666666666667" type="curve" smooth="yes"/>
      <point x="850.5999999999999" y="758.4133333333333"/>
      <point x="835.44" y="734.1066666666667"/>
      <point x="765.6266666666667" y="734.1066666666667" type="curve" smooth="yes"/>
    </contour>
  </outline>
</glyph>
<glyph name="G" format="2">
  <advance width="1497.8400000000001"/>
  <unicode hex="0047"/>
  <anchor x="763.44" y="1517.8666666666666" name="center"/>
  <outline>
    <contour>
      <point x="1325.5866666666666" y="65.56" type="curve" smooth="yes"/>
      <point x="1325.5866666666666" y="447.82666666666665" type="line" smooth="yes"/>
      <point x="1325.5866666666666" y="493.81333333333333"/>
      <point x="1348.7186058019738" y="511.26315905858"/>
      <point x="1378.8266666666668" y="523.8933333333333" type="curve" smooth="yes"/>
      <point x="1405.8666666666666" y="533.0933333333334" type="line" smooth="yes"/>
      <point x="1442.96" y="550.7066666666667"/>
      <point x="1463.32" y="574.56"/>
      <point x="1463.32" y="615.3199999999999" type="curve" smooth="yes"/>
      <point x="1463.32" y="664.0800000000002"/>
      <point x="1434.2266666666667" y="695.52"/>
      <point x="1367.9733333333336" y="695.52" type="curve" smooth="yes"/>
      <point x="917.88" y="695.52" type="line" smooth="yes"/>
      <point x="852.8933333333333" y="695.52"/>
      <point x="822.6266666666667" y="664.7866666666666"/>
      <point x="822.6266666666667" y="614.8933333333333" type="curve" smooth="yes"/>
      <point x="822.6266666666667" y="570.6533333333332"/>
      <point x="852.4933333333333" y="548.5333333333333"/>
      <point x="896.3199999999999" y="529.0933333333334" type="curve" smooth="yes"/>
      <point x="937.1866666666667" y="515.0933333333334" type="line" smooth="yes"/>
      <point x="971.9866666666667" y="501.53333333333336"/>
      <point x="990.4266666666666" y="488.21333333333337"/>
      <point x="990.4266666666666" y="447.82666666666665" type="curve" smooth="yes"/>
      <point x="990.4266666666666" y="276.0666666666666" type="line" smooth="yes"/>
      <point x="990.4266666666666" y="209.9819259259259"/>
      <point x="949.774899713467" y="173.14666666666665"/>
      <point x="845.4133333333333" y="173.14666666666665" type="curve" smooth="yes"/>
      <point x="626.9817363344051" y="173.14666666666665"/>
      <point x="440.66666666666663" y="387.5738324420677"/>
      <point x="440.66666666666663" y="747.28" type="curve" smooth="yes"/>
      <point x="440.66666666666663" y="1070.0207805521343"/>
      <point x="590.2930697663419" y="1265.5466666666666"/>
      <point x="813.1866666666667" y="1265.5466666666666" type="curve" smooth="yes"/>
      <point x="965.8469325179428" y="1265.5466666666666"/>
      <point x="1099.1627345213412" y="1198.7744554482638"/>
      <point x="1202.28" y="978.7600000000001" type="curve" smooth="yes"/>
      <point x="1227.506666666667" y="925.9733333333334"/>
      <point x="1267.1170558905433" y="909.8002944109458"/>
      <point x="1312.88" y="918.3066666666667" type="curve" smooth="yes"/>
      <point x="1362.2133333333334" y="927.4266666666666"/>
      <point x="1391.0800000000002" y="966.3866666666667"/>
      <point x="1377.2933333333333" y="1015.2133333333334" type="curve" smooth="yes"/>
      <point x="1284.0533333333333" y="1339.04" type="line" smooth="yes"/>
      <point x="1266.3376213615154" y="1402.5883281843287"/>
      <point x="1251.7600000000002" y="1425.1733333333334"/>
      <point x="1210.0400000000002" y="1425.1733333333334" type="curve" smooth="yes"/>
      <point x="1160.4666666666667" y="1425.1733333333334"/>
      <point x="1143.65568627451" y="1362.7333333333333"/>
      <point x="1096.9733333333334" y="1362.7333333333333" type="curve" smooth="yes"/>
      <point x="1042.0270252052117" y="1362.7333333333333"/>
      <point x="967.5403161372545" y="1429.2"/>
      <point x="762.44" y="1429.2" type="curve" smooth="yes"/>
      <point x="369.23170746879515" y="1429.2"/>
      <point x="62.16" y="1114.081959106039"/>
      <point x="62.16" y="698.0266666666666" type="curve" smooth="yes"/>
      <point x="62.16" y="259.97658096526834"/>
      <point x="311.76000000000005" y="-29.599999999999998"/>
      <point x="733.5866666666666" y="-29.599999999999998" type="curve" smooth="yes"/>
      <point x="936.2998647342995" y="-29.599999999999998"/>
      <point x="1031.6559421074135" y="66.61333333333334"/>
      <point x="1085.4266666666665" y="66.61333333333334" type="curve" smooth="yes"/>
      <point x="1135.8470588235296" y="66.61333333333334"/>
      <point x="1159.9213333333335" y="-31.706666666666667"/>
      <point x="1234.5866666666666" y="-31.706666666666667" type="curve" smooth="yes"/>
      <point x="1295.72" y="-31.706666666666667"/>
      <point x="1325.5866666666666" y="-0.4800000000000002"/>
    </contour>
  </outline>
</glyph>
<glyph name="H" format="2">
  <advance width="1672.5333333333333"/>
  <unicode hex="0048"/>
  <outline>
    <contour>
      <point x="375.8" y="752.68" type="line"/>
      <point x="375.8" y="573.9200000000001" type="line"/>
      <point x="1230.6799999999998" y="573.9200000000001" type="line"/>
      <point x="1230.6799999999998" y="752.68" type="line"/>
    </contour>
    <contour>
      <point x="594.0133333333332" y="274.85333333333335" type="curve" smooth="yes"/>
      <point x="594.0133333333332" y="1125.4266666666667" type="line" smooth="yes"/>
      <point x="594.0133333333332" y="1172.5733333333333"/>
      <point x="612.1999999999999" y="1192.5466666666669"/>
      <point x="647.2533333333333" y="1208.6533333333332" type="curve" smooth="yes"/>
      <point x="685.12" y="1224.3466666666668" type="line" smooth="yes"/>
      <point x="724.6133333333333" y="1243.9866666666667"/>
      <point x="743.6533333333333" y="1271.88"/>
      <point x="743.6533333333333" y="1315.3733333333332" type="curve" smooth="yes"/>
      <point x="743.6533333333333" y="1368.7866666666664"/>
      <point x="712.2666666666667" y="1400.0"/>
      <point x="648.4" y="1400.0" type="curve" smooth="yes"/>
      <point x="167.17333333333332" y="1400.0" type="line" smooth="yes"/>
      <point x="103.30666666666666" y="1400.0"/>
      <point x="71.92" y="1368.7866666666664"/>
      <point x="71.92" y="1315.3733333333332" type="curve" smooth="yes"/>
      <point x="71.92" y="1272.3066666666666"/>
      <point x="90.86666666666667" y="1243.9866666666667"/>
      <point x="130.35999999999999" y="1224.3466666666668" type="curve" smooth="yes"/>
      <point x="168.13333333333333" y="1208.6533333333332" type="line" smooth="yes"/>
      <point x="203.18666666666667" y="1192.5466666666669"/>
      <point x="221.46666666666667" y="1172.5733333333333"/>
      <point x="221.46666666666667" y="1125.4266666666667" type="curve" smooth="yes"/>
      <point x="221.46666666666667" y="274.85333333333335" type="line" smooth="yes"/>
      <point x="221.46666666666667" y="227.51999999999998"/>
      <point x="202.90666666666667" y="207.45333333333332"/>
      <point x="167.2" y="191.25333333333333" type="curve" smooth="yes"/>
      <point x="130.35999999999999" y="175.65333333333334" type="line" smooth="yes"/>
      <point x="90.96000000000001" y="156.01333333333332"/>
      <point x="71.92" y="127.69333333333331"/>
      <point x="71.92" y="84.62666666666667" type="curve" smooth="yes"/>
      <point x="71.92" y="31.21333333333333"/>
      <point x="103.30666666666666" y="0.0"/>
      <point x="167.17333333333332" y="0.0" type="curve" smooth="yes"/>
      <point x="648.4" y="0.0" type="line" smooth="yes"/>
      <point x="712.2666666666667" y="0.0"/>
      <point x="743.6533333333333" y="31.21333333333333"/>
      <point x="743.6533333333333" y="84.62666666666667" type="curve" smooth="yes"/>
      <point x="743.6533333333333" y="128.11999999999998"/>
      <point x="724.52" y="156.01333333333332"/>
      <point x="685.12" y="175.65333333333334" type="curve" smooth="yes"/>
      <point x="648.1866666666666" y="191.25333333333333" type="line" smooth="yes"/>
      <point x="612.5733333333333" y="207.45333333333332"/>
      <point x="594.0133333333332" y="227.51999999999998"/>
    </contour>
    <contour>
      <point x="1450.8799999999999" y="274.85333333333335" type="curve" smooth="yes"/>
      <point x="1450.8799999999999" y="1125.4266666666667" type="line" smooth="yes"/>
      <point x="1450.8799999999999" y="1172.5733333333333"/>
      <point x="1469.0666666666664" y="1192.5466666666669"/>
      <point x="1504.12" y="1208.6533333333332" type="curve" smooth="yes"/>
      <point x="1541.986666666667" y="1224.3466666666668" type="line" smooth="yes"/>
      <point x="1581.48" y="1243.9866666666667"/>
      <point x="1600.52" y="1271.88"/>
      <point x="1600.52" y="1315.3733333333332" type="curve" smooth="yes"/>
      <point x="1600.52" y="1368.7866666666664"/>
      <point x="1569.1333333333332" y="1400.0"/>
      <point x="1505.2666666666664" y="1400.0" type="curve" smooth="yes"/>
      <point x="1024.04" y="1400.0" type="line" smooth="yes"/>
      <point x="960.1733333333333" y="1400.0"/>
      <point x="928.7866666666665" y="1368.7866666666664"/>
      <point x="928.7866666666665" y="1315.3733333333332" type="curve" smooth="yes"/>
      <point x="928.7866666666665" y="1272.3066666666666"/>
      <point x="947.7333333333333" y="1243.9866666666667"/>
      <point x="987.2266666666667" y="1224.3466666666668" type="curve" smooth="yes"/>
      <point x="1025.0" y="1208.6533333333332" type="line" smooth="yes"/>
      <point x="1060.0533333333333" y="1192.5466666666669"/>
      <point x="1078.3333333333335" y="1172.5733333333333"/>
      <point x="1078.3333333333335" y="1125.4266666666667" type="curve" smooth="yes"/>
      <point x="1078.3333333333335" y="274.85333333333335" type="line" smooth="yes"/>
      <point x="1078.3333333333335" y="227.51999999999998"/>
      <point x="1059.7733333333333" y="207.45333333333332"/>
      <point x="1024.0666666666666" y="191.25333333333333" type="curve" smooth="yes"/>
      <point x="987.2266666666667" y="175.65333333333334" type="line" smooth="yes"/>
      <point x="947.8266666666667" y="156.01333333333332"/>
      <point x="928.7866666666665" y="127.69333333333331"/>
      <point x="928.7866666666665" y="84.62666666666667" type="curve" smooth="yes"/>
      <point x="928.7866666666665" y="31.21333333333333"/>
      <point x="960.1733333333333" y="0.0"/>
      <point x="1024.04" y="0.0" type="curve" smooth="yes"/>
      <point x="1505.2666666666664" y="0.0" type="line" smooth="yes"/>
      <point x="1569.1333333333332" y="0.0"/>
      <point x="1600.52" y="31.21333333333333"/>
      <point x="1600.52" y="84.62666666666667" type="curve" smooth="yes"/>
      <point x="1600.52" y="128.11999999999998"/>
      <point x="1581.3866666666668" y="156.01333333333332"/>
      <point x="1541.986666666667" y="175.65333333333334" type="curve" smooth="yes"/>
      <point x="1505.0533333333333" y="191.25333333333333" type="line" smooth="yes"/>
      <point x="1469.44" y="207.45333333333332"/>
      <point x="1450.8799999999999" y="227.51999999999998"/>
    </contour>
  </outline>
</glyph>
<glyph name="I" format="2">
  <advance width="811.9733333333332"/>
  <unicode hex="0049"/>
  <outline>
    <contour>
      <point x="592.3199999999999" y="274.85333333333335" type="curve" smooth="yes"/>
      <point x="592.3199999999999" y="1125.4266666666667" type="line" smooth="yes"/>
      <point x="592.3199999999999" y="1172.5733333333333"/>
      <point x="610.5066666666667" y="1192.5466666666669"/>
      <point x="645.56" y="1208.6533333333332" type="curve" smooth="yes"/>
      <point x="683.4266666666666" y="1224.3466666666668" type="line" smooth="yes"/>
      <point x="722.92" y="1243.9866666666667"/>
      <point x="741.96" y="1271.88"/>
      <point x="741.96" y="1315.3733333333332" type="curve" smooth="yes"/>
      <point x="741.96" y="1368.7866666666664"/>
      <point x="710.5733333333333" y="1400.0"/>
      <point x="646.7066666666667" y="1400.0" type="curve" smooth="yes"/>
      <point x="165.26666666666665" y="1400.0" type="line" smooth="yes"/>
      <point x="101.4" y="1400.0"/>
      <point x="70.01333333333334" y="1368.7866666666664"/>
      <point x="70.01333333333334" y="1315.3733333333332" type="curve" smooth="yes"/>
      <point x="70.01333333333334" y="1272.3066666666666"/>
      <point x="88.96000000000001" y="1243.9866666666667"/>
      <point x="128.45333333333332" y="1224.3466666666668" type="curve" smooth="yes"/>
      <point x="166.22666666666663" y="1208.6533333333332" type="line" smooth="yes"/>
      <point x="201.28" y="1192.5466666666669"/>
      <point x="219.56" y="1172.5733333333333"/>
      <point x="219.56" y="1125.4266666666667" type="curve" smooth="yes"/>
      <point x="219.56" y="274.85333333333335" type="line" smooth="yes"/>
      <point x="219.56" y="227.51999999999998"/>
      <point x="201.0" y="207.45333333333332"/>
      <point x="165.29333333333332" y="191.25333333333333" type="curve" smooth="yes"/>
      <point x="128.45333333333332" y="175.65333333333334" type="line" smooth="yes"/>
      <point x="89.05333333333333" y="156.01333333333332"/>
      <point x="70.01333333333334" y="127.69333333333331"/>
      <point x="70.01333333333334" y="84.62666666666667" type="curve" smooth="yes"/>
      <point x="70.01333333333334" y="31.21333333333333"/>
      <point x="101.4" y="0.0"/>
      <point x="165.26666666666665" y="0.0" type="curve" smooth="yes"/>
      <point x="646.7066666666667" y="0.0" type="line" smooth="yes"/>
      <point x="710.5733333333333" y="0.0"/>
      <point x="741.96" y="31.21333333333333"/>
      <point x="741.96" y="84.62666666666667" type="curve" smooth="yes"/>
      <point x="741.96" y="128.11999999999998"/>
      <point x="722.8266666666667" y="156.01333333333332"/>
      <point x="683.4266666666666" y="175.65333333333334" type="curve" smooth="yes"/>
      <point x="646.4933333333332" y="191.25333333333333" type="line" smooth="yes"/>
      <point x="610.8799999999999" y="207.45333333333332"/>
      <point x="592.3199999999999" y="227.51999999999998"/>
    </contour>
  </outline>
</glyph>
<glyph name="J" format="2">
  <advance width="1060.3866666666665"/>
  <unicode hex="004A"/>
  <anchor x="634.24" y="1464.32" name="center"/>
  <outline>
    <contour>
      <point x="924.76" y="264.6" type="curve" smooth="yes"/>
      <point x="924.76" y="410.20000000000005"/>
      <point x="837.0933333333332" y="456.2617283950617"/>
      <point x="837.0933333333332" y="664.5333333333333" type="curve" smooth="yes"/>
      <point x="837.0933333333332" y="1119.2666666666667" type="line" smooth="yes"/>
      <point x="837.0933333333332" y="1166.6090505050504"/>
      <point x="855.2728116880764" y="1186.7545246482418"/>
      <point x="890.8" y="1202.8666666666668" type="curve" smooth="yes"/>
      <point x="928.6666666666667" y="1218.3733333333332" type="line" smooth="yes"/>
      <point x="968.0666666666666" y="1237.92"/>
      <point x="987.1999999999999" y="1265.9066666666665"/>
      <point x="987.1999999999999" y="1309.4" type="curve" smooth="yes"/>
      <point x="987.1999999999999" y="1362.8133333333333"/>
      <point x="955.8133333333334" y="1394.0266666666666"/>
      <point x="891.9466666666667" y="1394.0266666666666" type="curve" smooth="yes"/>
      <point x="384.85333333333335" y="1394.0266666666666" type="line" smooth="yes"/>
      <point x="320.9866666666666" y="1394.0266666666666"/>
      <point x="289.6" y="1362.8133333333333"/>
      <point x="289.6" y="1309.4" type="curve" smooth="yes"/>
      <point x="289.6" y="1263.3466666666666"/>
      <point x="308.3066666666667" y="1236.8533333333332"/>
      <point x="350.26666666666665" y="1220.6133333333335" type="curve" smooth="yes"/>
      <point x="402.56" y="1201.7466666666664" type="line" smooth="yes"/>
      <point x="443.6597926371668" y="1186.7972034136603"/>
      <point x="464.33333333333337" y="1167.3466666666668"/>
      <point x="464.33333333333337" y="1118.1466666666668" type="curve" smooth="yes"/>
      <point x="464.33333333333337" y="626.2" type="line" smooth="yes"/>
      <point x="464.33333333333337" y="392.9333333333334"/>
      <point x="584.6533333333334" y="331.3733333333333"/>
      <point x="584.6533333333334" y="210.10666666666668" type="curve" smooth="yes"/>
      <point x="584.6533333333334" y="141.81333333333333"/>
      <point x="546.6659932659932" y="103.75999999999999"/>
      <point x="482.4666666666667" y="103.75999999999999" type="curve" smooth="yes"/>
      <point x="413.84" y="103.75999999999999"/>
      <point x="383.4266666666667" y="146.06311111111108"/>
      <point x="383.4266666666667" y="221.61333333333332" type="curve" smooth="yes"/>
      <point x="383.4266666666667" y="304.50666666666666" type="line" smooth="yes"/>
      <point x="383.4266666666667" y="418.8902564102564"/>
      <point x="317.0691823899371" y="483.92"/>
      <point x="223.28" y="483.92" type="curve" smooth="yes"/>
      <point x="120.32" y="483.92"/>
      <point x="51.89333333333334" y="406.0816666666667"/>
      <point x="51.89333333333334" y="290.0266666666667" type="curve" smooth="yes"/>
      <point x="51.89333333333334" y="91.19669966996699"/>
      <point x="209.07381642512078" y="-28.026666666666664"/>
      <point x="472.5733333333333" y="-28.026666666666664" type="curve" smooth="yes"/>
      <point x="752.5333333333333" y="-28.026666666666664"/>
      <point x="924.76" y="88.03999999999999"/>
    </contour>
  </outline>
</glyph>
<glyph name="K" format="2">
  <advance width="1588.4533333333334"/>
  <unicode hex="004B"/>
  <anchor x="840.0" y="1467.4666666666667" name="center"/>
  <outline>
    <contour>
      <point x="459.90666666666664" y="565.32" type="line"/>
      <point x="525.5466666666666" y="407.17333333333335" type="line"/>
      <point x="1249.0933333333332" y="1095.1466666666668" type="line" smooth="yes"/>
      <point x="1335.0476215805204" y="1174.6902389257898"/>
      <point x="1362.40702942208" y="1197.387604758819"/>
      <point x="1409.0666666666668" y="1216.84" type="curve" smooth="yes"/>
      <point x="1471.8266666666666" y="1244.5733333333333"/>
      <point x="1504.0933333333332" y="1270.7066666666665"/>
      <point x="1504.0933333333332" y="1315.3733333333332" type="curve" smooth="yes"/>
      <point x="1504.0933333333332" y="1368.04"/>
      <point x="1473.8266666666666" y="1400.0"/>
      <point x="1408.7466666666667" y="1400.0" type="curve" smooth="yes"/>
      <point x="1026.48" y="1400.0" type="line" smooth="yes"/>
      <point x="961.4933333333332" y="1400.0"/>
      <point x="931.2266666666667" y="1368.04"/>
      <point x="931.2266666666667" y="1315.3733333333332" type="curve" smooth="yes"/>
      <point x="931.2266666666667" y="1272.3066666666666"/>
      <point x="950.7333333333333" y="1245.6533333333332"/>
      <point x="989.76" y="1225.9466666666667" type="curve" smooth="yes"/>
      <point x="1030.8933333333332" y="1210.52" type="line" smooth="yes"/>
      <point x="1071.5538635918406" y="1191.2251680634918"/>
      <point x="1078.1756407792575" y="1170.630658401592"/>
      <point x="1022.6800000000001" y="1117.1466666666668" type="curve" smooth="yes"/>
    </contour>
    <contour>
      <point x="697.0933333333334" y="720.0400000000001" type="line"/>
      <point x="981.6933333333334" y="269.52" type="line" smooth="yes"/>
      <point x="1013.0371705057979" y="219.37386799516005"/>
      <point x="1013.3606212933995" y="197.06070295851444"/>
      <point x="986.52" y="182.17333333333332" type="curve" smooth="yes"/>
      <point x="956.2133333333334" y="170.85333333333332" type="line" smooth="yes"/>
      <point x="926.0" y="152.42666666666668"/>
      <point x="906.48" y="127.74666666666667"/>
      <point x="906.48" y="84.62666666666667" type="curve" smooth="yes"/>
      <point x="906.48" y="31.960000000000004"/>
      <point x="936.2800000000001" y="0.0"/>
      <point x="1001.2666666666668" y="0.0" type="curve" smooth="yes"/>
      <point x="1476.9733333333331" y="0.0" type="line" smooth="yes"/>
      <point x="1541.96" y="0.0"/>
      <point x="1572.2266666666667" y="31.960000000000004"/>
      <point x="1572.2266666666667" y="84.62666666666667" type="curve" smooth="yes"/>
      <point x="1572.2266666666667" y="131.352"/>
      <point x="1554.927328992429" y="161.7476026045425"/>
      <point x="1506.7333333333333" y="185.01333333333335" type="curve" smooth="yes"/>
      <point x="1477.0872057207152" y="198.8929857089536"/>
      <point x="1450.5133354315788" y="212.80420171570836"/>
      <point x="1424.4133333333332" y="252.78666666666666" type="curve" smooth="yes"/>
      <point x="971.5733333333334" y="947.8933333333333" type="line"/>
    </contour>
    <contour>
      <point x="594.2266666666666" y="275.69333333333327" type="curve" smooth="yes"/>
      <point x="594.2266666666666" y="1125.24" type="line" smooth="yes"/>
      <point x="594.2266666666666" y="1172.5733333333333"/>
      <point x="612.5066666666667" y="1192.7333333333336"/>
      <point x="647.56" y="1208.84" type="curve" smooth="yes"/>
      <point x="685.24" y="1224.3466666666668" type="line" smooth="yes"/>
      <point x="724.8266666666667" y="1243.9866666666667"/>
      <point x="743.8666666666667" y="1271.88"/>
      <point x="743.8666666666667" y="1315.3733333333332" type="curve" smooth="yes"/>
      <point x="743.8666666666667" y="1368.3866666666665"/>
      <point x="712.4799999999999" y="1400.0"/>
      <point x="648.6133333333333" y="1400.0" type="curve" smooth="yes"/>
      <point x="167.17333333333332" y="1400.0" type="line" smooth="yes"/>
      <point x="103.30666666666666" y="1400.0"/>
      <point x="71.92" y="1368.7866666666664"/>
      <point x="71.92" y="1315.3733333333332" type="curve" smooth="yes"/>
      <point x="71.92" y="1272.3066666666666"/>
      <point x="90.96000000000001" y="1243.8933333333334"/>
      <point x="130.35999999999999" y="1224.3466666666668" type="curve" smooth="yes"/>
      <point x="168.13333333333333" y="1208.84" type="line" smooth="yes"/>
      <point x="203.28269085938885" y="1192.7661069485084"/>
      <point x="221.46666666666667" y="1172.5733333333333"/>
      <point x="221.46666666666667" y="1125.24" type="curve" smooth="yes"/>
      <point x="221.46666666666667" y="275.69333333333327" type="line" smooth="yes"/>
      <point x="221.46666666666667" y="227.79999999999998"/>
      <point x="203.28582785877234" y="207.23425043116814"/>
      <point x="168.13333333333333" y="191.16000000000003" type="curve" smooth="yes"/>
      <point x="130.35999999999999" y="175.65333333333334" type="line" smooth="yes"/>
      <point x="90.96000000000001" y="156.10666666666663"/>
      <point x="71.92" y="127.69333333333331"/>
      <point x="71.92" y="84.62666666666667" type="curve" smooth="yes"/>
      <point x="71.92" y="31.21333333333333"/>
      <point x="103.30666666666666" y="0.0"/>
      <point x="167.17333333333332" y="0.0" type="curve" smooth="yes"/>
      <point x="635.9066666666666" y="0.0" type="line" smooth="yes"/>
      <point x="699.4399999999999" y="0.0"/>
      <point x="731.2533333333333" y="31.613333333333333"/>
      <point x="731.2533333333333" y="84.62666666666667" type="curve" smooth="yes"/>
      <point x="731.2533333333333" y="126.50666666666666"/>
      <point x="712.5466666666666" y="154.73333333333332"/>
      <point x="673.0533333333333" y="175.22666666666666" type="curve" smooth="yes"/>
      <point x="643.7199999999999" y="186.56" type="line" smooth="yes"/>
      <point x="607.3866666666667" y="203.94666666666666"/>
      <point x="594.2266666666666" y="224.90666666666667"/>
    </contour>
  </outline>
</glyph>
<glyph name="L" format="2">
  <advance width="1250.3999999999999"/>
  <unicode hex="004C"/>
  <anchor x="888.9466666666667" y="1390.4533333333334" name="right"/>
  <anchor x="440.7066666666667" y="1480.6133333333335" name="center"/>
  <outline>
    <contour>
      <point x="685.24" y="1224.3466666666668" type="line" smooth="yes"/>
      <point x="724.8266666666667" y="1243.9866666666667"/>
      <point x="743.8666666666667" y="1272.3066666666666"/>
      <point x="743.8666666666667" y="1315.3733333333332" type="curve" smooth="yes"/>
      <point x="743.8666666666667" y="1368.7866666666664"/>
      <point x="712.4799999999999" y="1400.0"/>
      <point x="648.6133333333333" y="1400.0" type="curve" smooth="yes"/>
      <point x="167.17333333333332" y="1400.0" type="line" smooth="yes"/>
      <point x="103.30666666666666" y="1400.0"/>
      <point x="71.92" y="1368.7866666666664"/>
      <point x="71.92" y="1315.3733333333332" type="curve" smooth="yes"/>
      <point x="71.92" y="1272.3066666666666"/>
      <point x="90.96000000000001" y="1243.8933333333334"/>
      <point x="130.35999999999999" y="1224.3466666666668" type="curve" smooth="yes"/>
      <point x="168.13333333333333" y="1208.84" type="line" smooth="yes"/>
      <point x="203.28269085938885" y="1192.7661069485084"/>
      <point x="221.46666666666667" y="1172.5733333333333"/>
      <point x="221.46666666666667" y="1125.24" type="curve" smooth="yes"/>
      <point x="221.46666666666667" y="274.76" type="line" smooth="yes"/>
      <point x="221.46666666666667" y="227.42666666666668"/>
      <point x="203.26622735206706" y="207.2320174620498"/>
      <point x="168.13333333333333" y="191.16000000000003" type="curve" smooth="yes"/>
      <point x="130.35999999999999" y="175.65333333333334" type="line" smooth="yes"/>
      <point x="90.96000000000001" y="156.10666666666663"/>
      <point x="71.92" y="127.69333333333331"/>
      <point x="71.92" y="84.62666666666667" type="curve" smooth="yes"/>
      <point x="71.92" y="31.21333333333333"/>
      <point x="103.30666666666666" y="0.0"/>
      <point x="167.17333333333332" y="0.0" type="curve" smooth="yes"/>
      <point x="837.1199999999999" y="0.0" type="line" smooth="yes"/>
      <point x="924.6666666666666" y="0.0"/>
      <point x="965.8133333333334" y="-35.86666666666667"/>
      <point x="1027.28" y="-35.86666666666667" type="curve" smooth="yes"/>
      <point x="1095.5866666666666" y="-35.86666666666667"/>
      <point x="1125.8" y="1.199999999999999"/>
      <point x="1148.3066666666666" y="85.82666666666667" type="curve" smooth="yes"/>
      <point x="1220.6133333333335" y="363.1333333333333" type="line" smooth="yes"/>
      <point x="1236.8666666666666" y="424.8266666666667"/>
      <point x="1211.8000000000002" y="469.59999999999997"/>
      <point x="1162.2" y="480.49333333333334" type="curve" smooth="yes"/>
      <point x="1114.0800000000002" y="490.8266666666667"/>
      <point x="1077.7333333333333" y="475.3066666666667"/>
      <point x="1052.12" y="418.28" type="curve" smooth="yes"/>
      <point x="1008.88" y="318.56" type="line" smooth="yes"/>
      <point x="962.0133333333333" y="211.41333333333333"/>
      <point x="906.4133333333334" y="175.4"/>
      <point x="806.4666666666667" y="175.4" type="curve" smooth="yes"/>
      <point x="682.6" y="175.4" type="line" smooth="yes"/>
      <point x="624.9733333333334" y="175.4"/>
      <point x="594.2266666666666" y="200.62666666666667"/>
      <point x="594.2266666666666" y="265.25333333333333" type="curve" smooth="yes"/>
      <point x="594.2266666666666" y="1125.24" type="line" smooth="yes"/>
      <point x="594.2266666666666" y="1172.5733333333333"/>
      <point x="612.5066666666667" y="1192.7333333333336"/>
      <point x="647.56" y="1208.84" type="curve" smooth="yes"/>
    </contour>
  </outline>
</glyph>
<glyph name="M" format="2">
  <advance width="1882.2133333333331"/>
  <unicode hex="004D"/>
  <anchor x="905.6533333333333" y="1479.1466666666665" name="center"/>
  <outline>
    <contour>
      <point x="1028.76" y="340.4533333333333" type="line"/>
      <point x="681.3866666666667" y="1247.5466666666666" type="line" smooth="yes"/>
      <point x="639.1199999999999" y="1360.08"/>
      <point x="594.5066666666667" y="1400.0"/>
      <point x="502.0133333333334" y="1400.0" type="curve" smooth="yes"/>
      <point x="203.54666666666665" y="1400.0" type="line" smooth="yes"/>
      <point x="139.36" y="1400.0"/>
      <point x="108.29333333333334" y="1368.84"/>
      <point x="108.29333333333334" y="1315.3733333333332" type="curve" smooth="yes"/>
      <point x="108.29333333333334" y="1270.6000000000001"/>
      <point x="127.22666666666666" y="1244.5733333333335"/>
      <point x="166.82666666666668" y="1224.3466666666668" type="curve" smooth="yes"/>
      <point x="205.16000000000003" y="1208.5600000000002" type="line" smooth="yes"/>
      <point x="244.44" y="1189.72"/>
      <point x="260.44" y="1170.7066666666667"/>
      <point x="257.0" y="1123.8133333333333" type="curve" smooth="yes"/>
      <point x="189.82666666666668" y="276.85333333333335" type="line" smooth="yes"/>
      <point x="185.70666666666668" y="224.9333333333333"/>
      <point x="168.16533025289885" y="205.1539996149457"/>
      <point x="136.58666666666667" y="191.16000000000003" type="curve" smooth="yes"/>
      <point x="106.34666666666666" y="179.56000000000003" type="line" smooth="yes"/>
      <point x="64.18666666666667" y="157.6266666666667"/>
      <point x="40.559999999999995" y="133.08"/>
      <point x="40.559999999999995" y="84.62666666666667" type="curve" smooth="yes"/>
      <point x="40.559999999999995" y="31.960000000000004"/>
      <point x="70.45333333333333" y="0.0"/>
      <point x="135.81333333333333" y="0.0" type="curve" smooth="yes"/>
      <point x="408.45333333333326" y="0.0" type="line" smooth="yes"/>
      <point x="473.81333333333333" y="0.0"/>
      <point x="503.7066666666667" y="33.56"/>
      <point x="503.7066666666667" y="87.82666666666667" type="curve" smooth="yes"/>
      <point x="503.7066666666667" y="126.18666666666665"/>
      <point x="486.5466666666667" y="150.41333333333333"/>
      <point x="461.50666666666666" y="165.62666666666667" type="curve" smooth="yes"/>
      <point x="424.38666666666666" y="184.85333333333332" type="line" smooth="yes"/>
      <point x="381.7866666666667" y="209.48000000000002"/>
      <point x="364.61333333333334" y="227.54666666666668"/>
      <point x="368.78666666666663" y="279.4666666666667" type="curve" smooth="yes"/>
      <point x="440.52" y="1201.7066666666667" type="line"/>
      <point x="323.35999999999996" y="1186.1066666666666" type="line"/>
      <point x="707.2133333333333" y="193.06666666666666" type="line" smooth="yes"/>
      <point x="757.6533999725382" y="61.09486559064304"/>
      <point x="795.605" y="47.72"/>
      <point x="860.2933333333333" y="47.72" type="curve" smooth="yes"/>
      <point x="919.6" y="47.72"/>
      <point x="953.3246083411309" y="70.71155058095071"/>
      <point x="996.1866666666667" y="184.69333333333333" type="curve" smooth="yes"/>
      <point x="1388.3333333333335" y="1215.9333333333334" type="line"/>
      <point x="1259.68" y="1213.9333333333334" type="line"/>
      <point x="1332.5466666666666" y="275.25333333333333" type="line" smooth="yes"/>
      <point x="1336.4330695303015" y="224.61091203232695"/>
      <point x="1317.2651005161538" y="206.99999047473398"/>
      <point x="1281.7333333333333" y="191.16000000000003" type="curve" smooth="yes"/>
      <point x="1243.8666666666668" y="175.65333333333334" type="line" smooth="yes"/>
      <point x="1203.6666666666667" y="155.30666666666664"/>
      <point x="1185.8000000000002" y="126.18666666666665"/>
      <point x="1185.8000000000002" y="84.62666666666667" type="curve" smooth="yes"/>
      <point x="1185.8000000000002" y="31.960000000000004"/>
      <point x="1215.6933333333332" y="0.0"/>
      <point x="1281.0533333333333" y="0.0" type="curve" smooth="yes"/>
      <point x="1748.0666666666666" y="0.0" type="line" smooth="yes"/>
      <point x="1812.6266666666668" y="0.0"/>
      <point x="1843.32" y="35.96"/>
      <point x="1843.32" y="89.42666666666666" type="curve" smooth="yes"/>
      <point x="1843.32" y="133.29333333333332"/>
      <point x="1822.96" y="160.10666666666663"/>
      <point x="1790.3866666666665" y="175.65333333333334" type="curve" smooth="yes"/>
      <point x="1752.8933333333334" y="191.16000000000003" type="line" smooth="yes"/>
      <point x="1719.584675029597" y="205.78055739250368"/>
      <point x="1705.6" y="223.73333333333332"/>
      <point x="1701.5866666666666" y="275.4533333333333" type="curve" smooth="yes"/>
      <point x="1643.1466666666665" y="1112.64" type="line" smooth="yes"/>
      <point x="1638.902279282201" y="1171.367831902977"/>
      <point x="1656.7066666666665" y="1190.8133333333333"/>
      <point x="1697.9466666666667" y="1208.84" type="curve" smooth="yes"/>
      <point x="1733.8533333333332" y="1224.3466666666668" type="line" smooth="yes"/>
      <point x="1771.533333333333" y="1243.4533333333331"/>
      <point x="1791.3066666666668" y="1271.3466666666666"/>
      <point x="1791.3066666666668" y="1315.3733333333332" type="curve" smooth="yes"/>
      <point x="1791.3066666666668" y="1368.04"/>
      <point x="1761.32" y="1400.0"/>
      <point x="1695.96" y="1400.0" type="curve" smooth="yes"/>
      <point x="1397.08" y="1400.0" type="line" smooth="yes"/>
      <point x="1301.9466666666667" y="1400.0"/>
      <point x="1256.8133333333335" y="1364.6666666666667"/>
      <point x="1213.2133333333334" y="1244.6266666666666" type="curve" smooth="yes"/>
      <point x="870.7466666666667" y="329.5866666666667" type="line"/>
    </contour>
  </outline>
</glyph>
<glyph name="N" format="2">
  <advance width="1535.2933333333333"/>
  <unicode hex="004E"/>
  <anchor x="778.3066666666666" y="1514.3733333333332" name="center"/>
  <outline>
    <contour>
      <point x="551.6800000000001" y="84.62666666666667" type="curve" smooth="yes"/>
      <point x="551.6800000000001" y="128.49333333333334"/>
      <point x="532.5466666666666" y="155.11999999999998"/>
      <point x="485.52000000000004" y="179.56000000000003" type="curve" smooth="yes"/>
      <point x="455.65333333333336" y="191.16000000000003" type="line" smooth="yes"/>
      <point x="416.0266666666667" y="209.82666666666668"/>
      <point x="401.44" y="226.84"/>
      <point x="401.44" y="280.7866666666667" type="curve" smooth="yes"/>
      <point x="401.44" y="1117.0399999999997" type="line"/>
      <point x="314.4933333333334" y="1005.6533333333334" type="line"/>
      <point x="934.7866666666667" y="176.94666666666666" type="line" smooth="yes"/>
      <point x="985.5733333333333" y="107.84"/>
      <point x="996.5333333333333" y="92.39999999999999"/>
      <point x="996.5333333333333" y="64.05333333333333" type="curve" smooth="yes"/>
      <point x="996.5333333333333" y="21.933333333333334"/>
      <point x="1021.2" y="0.0"/>
      <point x="1068.2266666666667" y="0.0" type="curve" smooth="yes"/>
      <point x="1346.4666666666667" y="0.0" type="line" smooth="yes"/>
      <point x="1396.6933333333332" y="0.0"/>
      <point x="1430.1866666666667" y="32.76"/>
      <point x="1430.1866666666667" y="82.22666666666667" type="curve" smooth="yes"/>
      <point x="1430.1866666666667" y="111.00000000000001"/>
      <point x="1422.4533333333334" y="127.42666666666666"/>
      <point x="1394.6666666666667" y="174.76000000000002" type="curve" smooth="yes"/>
      <point x="1358.52" y="232.76" type="line" smooth="yes"/>
      <point x="1335.4623613475865" y="271.71132685570336"/>
      <point x="1325.56" y="318.28"/>
      <point x="1325.56" y="379.6533333333333" type="curve" smooth="yes"/>
      <point x="1325.56" y="1119.2133333333334" type="line" smooth="yes"/>
      <point x="1325.56" y="1173.1599999999999"/>
      <point x="1339.2" y="1189.8"/>
      <point x="1378.8933333333332" y="1208.84" type="curve" smooth="yes"/>
      <point x="1409.04" y="1220.4399999999998" type="line" smooth="yes"/>
      <point x="1456.16" y="1244.88"/>
      <point x="1474.8266666666666" y="1271.5066666666664"/>
      <point x="1474.8266666666666" y="1315.3733333333332" type="curve" smooth="yes"/>
      <point x="1474.8266666666666" y="1368.04"/>
      <point x="1444.9333333333334" y="1400.0"/>
      <point x="1379.5733333333333" y="1400.0" type="curve" smooth="yes"/>
      <point x="1091.6666666666667" y="1400.0" type="line" smooth="yes"/>
      <point x="1026.68" y="1400.0"/>
      <point x="996.4133333333333" y="1368.04"/>
      <point x="996.4133333333333" y="1315.3733333333332" type="curve" smooth="yes"/>
      <point x="996.4133333333333" y="1271.5066666666664"/>
      <point x="1015.92" y="1245.2533333333333"/>
      <point x="1062.5733333333333" y="1220.4399999999998" type="curve" smooth="yes"/>
      <point x="1092.44" y="1208.84" type="line" smooth="yes"/>
      <point x="1131.6266666666666" y="1190.28"/>
      <point x="1146.6533333333334" y="1171.9866666666667"/>
      <point x="1146.6533333333334" y="1119.2133333333334" type="curve" smooth="yes"/>
      <point x="1146.6533333333334" y="259.2266666666667" type="line"/>
      <point x="1189.9466666666667" y="435.49333333333334" type="line"/>
      <point x="513.7466666666667" y="1338.1333333333334" type="line" smooth="yes"/>
      <point x="472.90666666666664" y="1392.9466666666667"/>
      <point x="442.7333333333333" y="1400.0"/>
      <point x="383.40000000000003" y="1400.0" type="curve" smooth="yes"/>
      <point x="137.76000000000002" y="1400.0" type="line" smooth="yes"/>
      <point x="88.30666666666667" y="1400.0"/>
      <point x="54.74666666666666" y="1370.96"/>
      <point x="54.74666666666666" y="1326.1333333333332" type="curve" smooth="yes"/>
      <point x="54.74666666666666" y="1287.0933333333332"/>
      <point x="72.77333333333333" y="1265.506666666667"/>
      <point x="104.33333333333334" y="1230.04" type="curve" smooth="yes"/>
      <point x="178.98666666666665" y="1144.1466666666668" type="line" smooth="yes"/>
      <point x="210.58666666666667" y="1108.0666666666666"/>
      <point x="222.53333333333333" y="1079.2933333333333"/>
      <point x="222.53333333333333" y="1007.32" type="curve" smooth="yes"/>
      <point x="222.53333333333333" y="280.7866666666667" type="line" smooth="yes"/>
      <point x="222.53333333333333" y="227.64"/>
      <point x="206.12" y="208.2266666666667"/>
      <point x="169.2" y="191.16000000000003" type="curve" smooth="yes"/>
      <point x="138.95999999999998" y="179.56000000000003" type="line" smooth="yes"/>
      <point x="91.93333333333334" y="155.11999999999998"/>
      <point x="73.26666666666667" y="128.49333333333334"/>
      <point x="73.26666666666667" y="84.62666666666667" type="curve" smooth="yes"/>
      <point x="73.26666666666667" y="31.960000000000004"/>
      <point x="103.16" y="0.0"/>
      <point x="168.52000000000004" y="0.0" type="curve" smooth="yes"/>
      <point x="456.4266666666667" y="0.0" type="line" smooth="yes"/>
      <point x="521.3199999999999" y="0.0"/>
      <point x="551.6800000000001" y="31.960000000000004"/>
    </contour>
  </outline>
</glyph>
<glyph name="O" format="2">
  <advance width="1548.48"/>
  <unicode hex="004F"/>
  <outline>
    <contour>
      <point x="762.6933333333334" y="1429.2" type="curve" smooth="yes"/>
      <point x="335.70666666666665" y="1429.2"/>
      <point x="58.24" y="1117.4985747126436"/>
      <point x="58.24" y="706.4533333333334" type="curve" smooth="yes"/>
      <point x="58.24" y="265.5733333333334"/>
      <point x="337.17929411764703" y="-30.4"/>
      <point x="777.1200000000001" y="-30.4" type="curve" smooth="yes"/>
      <point x="1203.2104621435597" y="-30.4"/>
      <point x="1482.7733333333333" y="273.1008199643494"/>
      <point x="1482.7733333333333" y="707.8266666666667" type="curve" smooth="yes"/>
      <point x="1482.7733333333333" y="1129.2541447671738"/>
      <point x="1200.4" y="1429.2"/>
    </contour>
    <contour>
      <point x="1094.2933333333333" y="507.0" type="curve" smooth="yes"/>
      <point x="1094.2933333333333" y="274.4"/>
      <point x="994.8508920187793" y="150.0533333333333"/>
      <point x="845.2" y="150.0533333333333" type="curve" smooth="yes"/>
      <point x="629.279658119658" y="150.0533333333333"/>
      <point x="449.06666666666666" y="528.7733333333333"/>
      <point x="449.06666666666666" y="891.1733333333333" type="curve" smooth="yes"/>
      <point x="449.06666666666666" y="1116.253333333333"/>
      <point x="544.28" y="1249.3866666666665"/>
      <point x="697.2800000000001" y="1249.3866666666665" type="curve" smooth="yes"/>
      <point x="918.7199999999999" y="1249.3866666666665"/>
      <point x="1094.2933333333333" y="864.0133333333333"/>
    </contour>
  </outline>
</glyph>
<glyph name="P" format="2">
  <advance width="1395.3066666666664"/>
  <unicode hex="0050"/>
  <outline>
    <contour>
      <point x="1352.28" y="883.9333333333333" type="curve" smooth="yes"/>
      <point x="1352.28" y="1178.5733333333333"/>
      <point x="1108.3333333333333" y="1400.0"/>
      <point x="655.7866666666666" y="1400.0" type="curve" smooth="yes"/>
      <point x="167.17333333333332" y="1400.0" type="line" smooth="yes"/>
      <point x="103.30666666666666" y="1400.0"/>
      <point x="71.92" y="1368.7866666666664"/>
      <point x="71.92" y="1315.3733333333332" type="curve" smooth="yes"/>
      <point x="71.92" y="1272.3066666666666"/>
      <point x="90.96000000000001" y="1243.8933333333334"/>
      <point x="130.35999999999999" y="1224.3466666666668" type="curve" smooth="yes"/>
      <point x="168.13333333333333" y="1208.84" type="line" smooth="yes"/>
      <point x="203.28269085938885" y="1192.7661069485084"/>
      <point x="221.46666666666667" y="1172.598787878788"/>
      <point x="221.46666666666667" y="1125.24" type="curve" smooth="yes"/>
      <point x="221.46666666666667" y="274.76" type="line" smooth="yes"/>
      <point x="221.46666666666667" y="227.42666666666668"/>
      <point x="203.28269085938885" y="207.23389305149155"/>
      <point x="168.13333333333333" y="191.16000000000003" type="curve" smooth="yes"/>
      <point x="130.35999999999999" y="175.65333333333334" type="line" smooth="yes"/>
      <point x="90.96000000000001" y="156.10666666666663"/>
      <point x="71.92" y="127.69333333333331"/>
      <point x="71.92" y="84.62666666666667" type="curve" smooth="yes"/>
      <point x="71.92" y="31.21333333333333"/>
      <point x="103.30666666666666" y="0.0"/>
      <point x="167.17333333333332" y="0.0" type="curve" smooth="yes"/>
      <point x="678.4266666666666" y="0.0" type="line" smooth="yes"/>
      <point x="742.2933333333333" y="0.0"/>
      <point x="773.6800000000001" y="31.21333333333333"/>
      <point x="773.6800000000001" y="84.62666666666667" type="curve" smooth="yes"/>
      <point x="773.6800000000001" y="129.92"/>
      <point x="754.9733333333334" y="154.98666666666665"/>
      <point x="715.0533333333333" y="170.0" type="curve" smooth="yes"/>
      <point x="649.1733333333334" y="191.16000000000003" type="line" smooth="yes"/>
      <point x="612.057344147632" y="203.65960033649202"/>
      <point x="594.2266666666666" y="225.56000000000003"/>
      <point x="594.2266666666666" y="274.76" type="curve" smooth="yes"/>
      <point x="594.2266666666666" y="1228.0133333333333" type="line"/>
      <point x="640.2533333333333" y="1228.0133333333333" type="line" smooth="yes"/>
      <point x="848.36" y="1228.0133333333333"/>
      <point x="982.0400000000001" y="1089.8636411585082"/>
      <point x="982.0400000000001" y="897.28" type="curve" smooth="yes"/>
      <point x="982.0400000000001" y="702.9907692307692"/>
      <point x="861.8935802469136" y="600.8666666666667"/>
      <point x="697.8666666666667" y="600.8666666666667" type="curve" smooth="yes"/>
      <point x="603.0933333333332" y="600.8666666666667"/>
      <point x="534.9466666666667" y="627.2666666666667"/>
      <point x="452.78666666666663" y="676.2" type="curve"/>
      <point x="434.45333333333326" y="524.4266666666666" type="line"/>
      <point x="532.1866666666667" y="469.8"/>
      <point x="661.2133333333333" y="435.6666666666667"/>
      <point x="799.1466666666666" y="435.6666666666667" type="curve" smooth="yes"/>
      <point x="1146.3599103139015" y="435.6666666666667"/>
      <point x="1352.28" y="611.240058224163"/>
    </contour>
  </outline>
</glyph>
<glyph name="Q" format="2">
  <advance width="1540.92"/>
  <unicode hex="0051"/>
  <outline>
    <contour>
      <point x="762.6933333333334" y="1429.2" type="curve" smooth="yes"/>
      <point x="335.61333333333334" y="1429.2"/>
      <point x="58.05333333333333" y="1117.6133333333335"/>
      <point x="58.05333333333333" y="706.4533333333334" type="curve" smooth="yes"/>
      <point x="58.05333333333333" y="265.5733333333334"/>
      <point x="337.05333333333334" y="-30.4"/>
      <point x="777.1200000000001" y="-30.4" type="curve" smooth="yes"/>
      <point x="1203.1733333333334" y="-30.4"/>
      <point x="1482.7733333333333" y="273.24"/>
      <point x="1482.7733333333333" y="707.8266666666667" type="curve" smooth="yes"/>
      <point x="1482.7733333333333" y="1129.3066666666666"/>
      <point x="1200.4" y="1429.2"/>
    </contour>
    <contour>
      <point x="1094.2933333333333" y="507.0" type="curve" smooth="yes"/>
      <point x="1094.2933333333333" y="274.4"/>
      <point x="994.8133333333333" y="150.0533333333333"/>
      <point x="845.2" y="150.0533333333333" type="curve" smooth="yes"/>
      <point x="629.2399999999999" y="150.0533333333333"/>
      <point x="449.06666666666666" y="528.7733333333333"/>
      <point x="449.06666666666666" y="891.2666666666667" type="curve" smooth="yes"/>
      <point x="449.06666666666666" y="1116.253333333333"/>
      <point x="544.28" y="1249.3866666666665"/>
      <point x="697.2800000000001" y="1249.3866666666665" type="curve" smooth="yes"/>
      <point x="918.7199999999999" y="1249.3866666666665"/>
      <point x="1094.2933333333333" y="864.0133333333333"/>
    </contour>
    <contour>
      <point x="778.24" y="340.97333333333336" type="curve" smooth="yes"/>
      <point x="882.6670375558529" y="-106.94050454869021"/>
      <point x="1091.0886754607109" y="-313.26666666666665"/>
      <point x="1330.013333333333" y="-313.26666666666665" type="curve" smooth="yes"/>
      <point x="1420.4131860036832" y="-313.26666666666665"/>
      <point x="1450.819175708929" y="-288.553592021891"/>
      <point x="1480.7466666666667" y="-229.10666666666665" type="curve" smooth="yes"/>
      <point x="1511.0933333333332" y="-169.4666666666667" type="line" smooth="yes"/>
      <point x="1524.96" y="-142.01333333333332"/>
      <point x="1529.3733333333332" y="-123.76"/>
      <point x="1529.3733333333332" y="-101.67999999999999" type="curve" smooth="yes"/>
      <point x="1529.3733333333332" y="-67.89333333333333"/>
      <point x="1504.3466666666668" y="-49.413333333333334"/>
      <point x="1474.72" y="-49.413333333333334" type="curve" smooth="yes"/>
      <point x="1432.6266666666666" y="-49.413333333333334"/>
      <point x="1401.6933333333334" y="-71.64"/>
      <point x="1334.5066666666667" y="-71.64" type="curve" smooth="yes"/>
      <point x="1159.392079207921" y="-71.64"/>
      <point x="1019.0675895564887" y="49.9300241513723"/>
      <point x="921.2" y="368.53333333333336" type="curve" smooth="yes"/>
      <point x="901.7333333333333" y="433.7066666666667"/>
      <point x="875.28" y="464.26666666666665"/>
      <point x="828.8266666666667" y="457.43999999999994" type="curve" smooth="yes"/>
      <point x="779.6654545454546" y="450.56"/>
      <point x="764.6687733482213" y="400.71130993858736"/>
    </contour>
  </outline>
</glyph>
<glyph name="R" format="2">
  <advance width="1513.2"/>
  <unicode hex="0052"/>
  <anchor x="740.56" y="1476.0" name="center"/>
  <outline>
    <contour>
      <point x="1370.9066666666668" y="915.4" type="curve" smooth="yes"/>
      <point x="1370.9066666666668" y="1193.0699933993399"/>
      <point x="1127.2133333333334" y="1400.0"/>
      <point x="676.5466666666666" y="1400.0" type="curve" smooth="yes"/>
      <point x="167.17333333333332" y="1400.0" type="line" smooth="yes"/>
      <point x="103.30666666666666" y="1400.0"/>
      <point x="71.92" y="1368.7866666666664"/>
      <point x="71.92" y="1315.3733333333332" type="curve" smooth="yes"/>
      <point x="71.92" y="1272.3066666666666"/>
      <point x="90.96000000000001" y="1243.9866666666667"/>
      <point x="130.35999999999999" y="1224.3466666666668" type="curve" smooth="yes"/>
      <point x="167.2" y="1208.84" type="line" smooth="yes"/>
      <point x="202.90666666666667" y="1192.64"/>
      <point x="221.46666666666667" y="1172.5733333333333"/>
      <point x="221.46666666666667" y="1125.24" type="curve" smooth="yes"/>
      <point x="221.46666666666667" y="274.76" type="line" smooth="yes"/>
      <point x="221.46666666666667" y="227.42666666666668"/>
      <point x="202.90666666666667" y="207.35999999999999"/>
      <point x="167.2" y="191.16000000000003" type="curve" smooth="yes"/>
      <point x="130.35999999999999" y="175.65333333333334" type="line" smooth="yes"/>
      <point x="90.96000000000001" y="156.01333333333332"/>
      <point x="71.92" y="127.69333333333331"/>
      <point x="71.92" y="84.62666666666667" type="curve" smooth="yes"/>
      <point x="71.92" y="31.21333333333333"/>
      <point x="103.30666666666666" y="0.0"/>
      <point x="167.17333333333332" y="0.0" type="curve" smooth="yes"/>
      <point x="639.1066666666667" y="0.0" type="line" smooth="yes"/>
      <point x="701.6" y="0.0"/>
      <point x="734.36" y="29.080000000000002"/>
      <point x="734.36" y="84.62666666666667" type="curve" smooth="yes"/>
      <point x="734.36" y="124.8"/>
      <point x="719.4933333333333" y="151.96"/>
      <point x="683.3199999999999" y="173.09333333333333" type="curve" smooth="yes"/>
      <point x="647.56" y="187.83999999999997" type="line" smooth="yes"/>
      <point x="612.6022982799983" y="206.22160962333464"/>
      <point x="594.2266666666666" y="225.45612403100773"/>
      <point x="594.2266666666666" y="274.76" type="curve" smooth="yes"/>
      <point x="594.2266666666666" y="1235.7466666666667" type="line"/>
      <point x="655.7866666666666" y="1235.7466666666667" type="line" smooth="yes"/>
      <point x="859.4666666666667" y="1235.7466666666667"/>
      <point x="990.3199999999999" y="1102.2915551069718"/>
      <point x="990.3199999999999" y="918.6" type="curve" smooth="yes"/>
      <point x="990.3199999999999" y="745.5767469358982"/>
      <point x="889.8399999999999" y="650.9599999999999"/>
      <point x="709.6666666666666" y="650.9599999999999" type="curve" smooth="yes"/>
      <point x="636.0933333333334" y="650.9599999999999"/>
      <point x="562.3333333333334" y="658.7866666666665"/>
      <point x="494.3066666666667" y="699.72" type="curve"/>
      <point x="494.70666666666665" y="551.76" type="line"/>
      <point x="558.1733333333333" y="517.8933333333334"/>
      <point x="662.9066666666666" y="490.77333333333337"/>
      <point x="767.7466666666667" y="490.77333333333337" type="curve" smooth="yes"/>
      <point x="894.5999999999999" y="490.77333333333337"/>
      <point x="945.0108578099877" y="529.922437179588"/>
      <point x="1053.6133333333332" y="548.88" type="curve" smooth="yes"/>
      <point x="1244.4758493821287" y="584.6168173120585"/>
      <point x="1370.9066666666668" y="736.5021971830986"/>
    </contour>
    <contour>
      <point x="776.2666666666667" y="569.2" type="line"/>
      <point x="954.76" y="217.58666666666664" type="line" smooth="yes"/>
      <point x="969.76" y="187.36"/>
      <point x="965.1733333333334" y="169.49333333333334"/>
      <point x="949.4133333333333" y="160.02666666666667" type="curve" smooth="yes"/>
      <point x="926.6666666666666" y="150.04" type="line" smooth="yes"/>
      <point x="904.4995406658877" y="133.57698324912374"/>
      <point x="891.6800000000001" y="113.17333333333333"/>
      <point x="891.6800000000001" y="84.62666666666667" type="curve" smooth="yes"/>
      <point x="891.6800000000001" y="29.133333333333333"/>
      <point x="922.7466666666668" y="0.0"/>
      <point x="983.4" y="0.0" type="curve" smooth="yes"/>
      <point x="1391.4799999999998" y="0.0" type="line" smooth="yes"/>
      <point x="1456.4666666666665" y="0.0"/>
      <point x="1486.7333333333331" y="31.960000000000004"/>
      <point x="1486.7333333333331" y="84.62666666666667" type="curve" smooth="yes"/>
      <point x="1486.7333333333331" y="128.76"/>
      <point x="1468.6266666666668" y="155.44"/>
      <point x="1426.2266666666665" y="174.28000000000003" type="curve" smooth="yes"/>
      <point x="1381.7673151174522" y="193.93091124731203"/>
      <point x="1362.8533333333332" y="209.85333333333332"/>
      <point x="1339.0933333333332" y="251.9066666666667" type="curve" smooth="yes"/>
      <point x="1132.8799999999999" y="613.5600000000001" type="line"/>
    </contour>
  </outline>
</glyph>
<glyph name="S" format="2">
  <advance width="1209.0533333333333"/>
  <unicode hex="0053"/>
  <anchor x="608.7866666666666" y="1510.7333333333333" name="center"/>
  <outline>
    <contour>
      <point x="636.2933333333334" y="-26.866666666666667" type="curve" smooth="yes"/>
      <point x="947.3866666666667" y="-26.866666666666667"/>
      <point x="1133.6533333333334" y="156.74666666666664"/>
      <point x="1133.96" y="389.4266666666667" type="curve" smooth="yes"/>
      <point x="1134.2666666666667" y="592.9066666666666"/>
      <point x="1033.7403266467993" y="744.5874790561337"/>
      <point x="695.9466666666666" y="854.4533333333334" type="curve" smooth="yes"/>
      <point x="473.34133401035905" y="931.7625442450146"/>
      <point x="412.25333333333333" y="992.2933333333333"/>
      <point x="412.25333333333333" y="1088.96" type="curve" smooth="yes"/>
      <point x="412.25333333333333" y="1178.1466666666665"/>
      <point x="480.44" y="1244.7866666666666"/>
      <point x="589.88" y="1244.7866666666666" type="curve" smooth="yes"/>
      <point x="735.0390572390571" y="1244.7866666666666"/>
      <point x="884.885196364248" y="1161.9563052474132"/>
      <point x="974.68" y="981.1333333333333" type="curve" smooth="yes"/>
      <point x="1001.0666666666667" y="929.2133333333334"/>
      <point x="1037.0666666666666" y="909.5466666666666"/>
      <point x="1086.6266666666666" y="922.76" type="curve" smooth="yes"/>
      <point x="1140.9733333333334" y="937.3066666666667"/>
      <point x="1162.3066666666666" y="979.5333333333333"/>
      <point x="1143.8266666666666" y="1039.2266666666667" type="curve" smooth="yes"/>
      <point x="1060.6" y="1308.6399999999999" type="line" smooth="yes"/>
      <point x="1032.5734991076392" y="1399.0862585499215"/>
      <point x="1007.5733333333333" y="1427.6000000000001"/>
      <point x="959.2133333333334" y="1427.6000000000001" type="curve" smooth="yes"/>
      <point x="898.7733333333333" y="1427.6000000000001"/>
      <point x="895.4533333333334" y="1363.36"/>
      <point x="845.1466666666666" y="1363.36" type="curve" smooth="yes"/>
      <point x="786.0266666666666" y="1363.36"/>
      <point x="707.5466666666667" y="1424.0533333333333"/>
      <point x="544.7866666666666" y="1423.96" type="curve" smooth="yes"/>
      <point x="255.97333333333336" y="1423.8666666666668"/>
      <point x="72.13333333333333" y="1244.4533333333331"/>
      <point x="72.13333333333333" y="997.8" type="curve" smooth="yes"/>
      <point x="72.13333333333333" y="781.2933333333333"/>
      <point x="181.41010035863073" y="622.4304390536786"/>
      <point x="535.4933333333333" y="516.76" type="curve" smooth="yes"/>
      <point x="755.6180968954216" y="446.3063621113919"/>
      <point x="802.1066666666666" y="389.32000000000005"/>
      <point x="801.7066666666666" y="299.8666666666667" type="curve" smooth="yes"/>
      <point x="801.3066670639034" y="210.60003197756498"/>
      <point x="726.91" y="149.0"/>
      <point x="610.9866666666667" y="149.0" type="curve" smooth="yes"/>
      <point x="470.62677165354324" y="149.0"/>
      <point x="357.28450249087746" y="211.81142139053762"/>
      <point x="271.6933333333333" y="361.62666666666667" type="curve" smooth="yes"/>
      <point x="236.73333333333332" y="418.8533333333333"/>
      <point x="202.45333333333335" y="434.06666666666666"/>
      <point x="155.06666666666663" y="420.6133333333333" type="curve" smooth="yes"/>
      <point x="108.62666666666667" y="407.3066666666667"/>
      <point x="87.58666666666667" y="370.4266666666667"/>
      <point x="97.12" y="324.06666666666666" type="curve" smooth="yes"/>
      <point x="154.37333333333333" y="60.89333333333333" type="line" smooth="yes"/>
      <point x="167.44" y="-3.52"/>
      <point x="191.53333333333333" y="-30.133333333333333"/>
      <point x="242.41333333333336" y="-30.133333333333333" type="curve" smooth="yes"/>
      <point x="292.3066666666667" y="-30.133333333333333"/>
      <point x="310.968" y="18.85333333333333"/>
      <point x="368.44" y="18.85333333333333" type="curve" smooth="yes"/>
      <point x="411.8041530054645" y="18.85333333333333"/>
      <point x="492.28" y="-26.866666666666667"/>
    </contour>
  </outline>
</glyph>
<glyph name="T" format="2">
  <advance width="1388.96"/>
  <unicode hex="0054"/>
  <outline>
    <contour>
      <point x="414.7066666666667" y="1400.0" type="line" smooth="yes"/>
      <point x="325.57333333333327" y="1400.0"/>
      <point x="285.38666666666666" y="1438.9733333333334"/>
      <point x="226.02666666666667" y="1438.9733333333334" type="curve" smooth="yes"/>
      <point x="154.64000000000001" y="1438.9733333333334"/>
      <point x="123.34666666666666" y="1402.6133333333335"/>
      <point x="102.38666666666667" y="1317.28" type="curve" smooth="yes"/>
      <point x="41.92" y="1063.8666666666666" type="line" smooth="yes"/>
      <point x="26.78666666666667" y="1001.1733333333333"/>
      <point x="53.053333333333335" y="956.4133333333334"/>
      <point x="104.08" y="946.3066666666667" type="curve" smooth="yes"/>
      <point x="151.8" y="936.4800000000001"/>
      <point x="186.78666666666666" y="952.5066666666667"/>
      <point x="211.66666666666666" y="1009.1733333333333" type="curve" smooth="yes"/>
      <point x="282.8140800715849" y="1180.9565032778821"/>
      <point x="322.4133333333333" y="1218.7333333333333"/>
      <point x="416.0133333333333" y="1218.7333333333333" type="curve" smooth="yes"/>
      <point x="507.96" y="1218.7333333333333" type="line"/>
      <point x="507.96" y="274.76" type="line" smooth="yes"/>
      <point x="507.96" y="227.42666666666668"/>
      <point x="489.7733333333333" y="206.6533333333333"/>
      <point x="454.71999999999997" y="191.16000000000003" type="curve" smooth="yes"/>
      <point x="409.04" y="175.65333333333334" type="line" smooth="yes"/>
      <point x="369.64" y="156.31999999999996"/>
      <point x="350.50666666666666" y="127.69333333333331"/>
      <point x="350.50666666666666" y="85.05333333333333" type="curve" smooth="yes"/>
      <point x="350.50666666666666" y="31.21333333333333"/>
      <point x="381.8933333333333" y="0.0"/>
      <point x="445.76" y="0.0" type="curve" smooth="yes"/>
      <point x="943.76" y="0.0" type="line" smooth="yes"/>
      <point x="1007.7200000000001" y="0.0"/>
      <point x="1039.0133333333333" y="30.360000000000003"/>
      <point x="1039.0133333333333" y="84.62666666666667" type="curve" smooth="yes"/>
      <point x="1039.0133333333333" y="128.11999999999998"/>
      <point x="1019.9733333333332" y="156.31999999999996"/>
      <point x="980.48" y="175.65333333333334" type="curve" smooth="yes"/>
      <point x="934.8" y="191.16000000000003" type="line" smooth="yes"/>
      <point x="899.4666666666667" y="206.74666666666667"/>
      <point x="880.9066666666666" y="227.42666666666668"/>
      <point x="880.9066666666666" y="274.76" type="curve" smooth="yes"/>
      <point x="880.9066666666666" y="1218.7333333333333" type="line"/>
      <point x="971.4533333333333" y="1218.7333333333333" type="line" smooth="yes"/>
      <point x="1065.7066666666667" y="1218.7333333333333"/>
      <point x="1106.518545494888" y="1180.7004536525023"/>
      <point x="1177.6666666666667" y="1009.1733333333333" type="curve" smooth="yes"/>
      <point x="1202.5466666666669" y="952.5066666666667"/>
      <point x="1237.72" y="936.4800000000001"/>
      <point x="1285.3466666666666" y="946.3066666666667" type="curve" smooth="yes"/>
      <point x="1336.0" y="956.4133333333334"/>
      <point x="1362.2666666666669" y="1001.1733333333333"/>
      <point x="1347.1333333333334" y="1063.8666666666666" type="curve" smooth="yes"/>
      <point x="1286.48" y="1317.0933333333332" type="line" smooth="yes"/>
      <point x="1265.5200000000002" y="1402.4266666666667"/>
      <point x="1234.2266666666665" y="1438.7866666666669"/>
      <point x="1162.8400000000001" y="1438.7866666666669" type="curve" smooth="yes"/>
      <point x="1103.9466666666667" y="1438.7866666666669"/>
      <point x="1063.4266666666667" y="1400.0"/>
      <point x="975.84" y="1400.0" type="curve" smooth="yes"/>
    </contour>
  </outline>
</glyph>
<glyph name="U" format="2">
  <advance width="1491.08"/>
  <unicode hex="0055"/>
  <anchor x="820.6" y="1462.4266666666667" name="center"/>
  <outline>
    <contour>
      <point x="1135.84" y="612.9599999999999" type="line" smooth="yes"/>
      <point x="1139.4933333333333" y="560.0000000000001"/>
      <point x="1142.9466666666667" y="512.4000000000001"/>
      <point x="1143.746666666667" y="427.3333333333333" type="curve" smooth="yes"/>
      <point x="1146.1465751838068" y="265.9883438524297"/>
      <point x="1043.7108943089431" y="167.66666666666666"/>
      <point x="850.5999999999999" y="167.66666666666666" type="curve" smooth="yes"/>
      <point x="662.6133333333332" y="167.66666666666666"/>
      <point x="553.9499041897852" y="259.3218155271046"/>
      <point x="555.8266666666666" y="456.89333333333326" type="curve" smooth="yes"/>
      <point x="556.72" y="505.3333333333333"/>
      <point x="558.6266666666666" y="570.2"/>
      <point x="563.0266666666665" y="648.7333333333332" type="curve" smooth="yes"/>
      <point x="591.24" y="1126.44" type="line" smooth="yes"/>
      <point x="594.0400000000001" y="1175.8533333333335"/>
      <point x="608.88" y="1199.5733333333333"/>
      <point x="644.28" y="1208.84" type="curve" smooth="yes"/>
      <point x="683.5466666666666" y="1218.84" type="line" smooth="yes"/>
      <point x="736.4933333333333" y="1234.1066666666666"/>
      <point x="764.8666666666668" y="1262.3333333333333"/>
      <point x="764.8666666666668" y="1313.773333333333" type="curve" smooth="yes"/>
      <point x="764.8666666666668" y="1365.6399999999999"/>
      <point x="732.6666666666667" y="1400.0"/>
      <point x="675.2133333333334" y="1400.0" type="curve" smooth="yes"/>
      <point x="127.25333333333333" y="1400.0" type="line" smooth="yes"/>
      <point x="69.89333333333333" y="1400.0"/>
      <point x="37.13333333333334" y="1365.6399999999999"/>
      <point x="37.13333333333334" y="1313.773333333333" type="curve" smooth="yes"/>
      <point x="37.13333333333334" y="1261.9066666666665"/>
      <point x="66.2" y="1230.8533333333332"/>
      <point x="118.92" y="1217.24" type="curve" smooth="yes"/>
      <point x="157.44" y="1208.84" type="line" smooth="yes"/>
      <point x="204.81333333333333" y="1197.4266666666665"/>
      <point x="220.01333333333332" y="1173.8533333333335"/>
      <point x="217.2133333333333" y="1123.64" type="curve" smooth="yes"/>
      <point x="189.14666666666665" y="661.8" type="line" smooth="yes"/>
      <point x="184.02666666666664" y="584.4666666666667"/>
      <point x="176.66666666666666" y="474.24"/>
      <point x="176.26666666666665" y="418.96" type="curve" smooth="yes"/>
      <point x="174.35999999999999" y="133.86666666666667"/>
      <point x="371.8666666666667" y="-30.53333333333333"/>
      <point x="734.8933333333333" y="-30.53333333333333" type="curve" smooth="yes"/>
      <point x="1139.08" y="-30.53333333333333"/>
      <point x="1331.7866666666666" y="155.4"/>
      <point x="1329.0800000000002" y="412.1333333333333" type="curve" smooth="yes"/>
      <point x="1328.2800000000002" y="482.9333333333333"/>
      <point x="1325.1733333333334" y="545.7599999999999"/>
      <point x="1319.5466666666669" y="614.56" type="curve" smooth="yes"/>
      <point x="1281.5066666666667" y="1112.48" type="line" smooth="yes"/>
      <point x="1276.7733333333333" y="1167.2266666666667"/>
      <point x="1298.3333333333335" y="1195.6666666666667"/>
      <point x="1343.9733333333334" y="1208.84" type="curve" smooth="yes"/>
      <point x="1381.56" y="1218.84" type="line" smooth="yes"/>
      <point x="1433.3866666666668" y="1234.8533333333332"/>
      <point x="1462.88" y="1262.7066666666665"/>
      <point x="1462.88" y="1313.773333333333" type="curve" smooth="yes"/>
      <point x="1462.88" y="1365.6399999999999"/>
      <point x="1430.5866666666668" y="1400.0"/>
      <point x="1373.2266666666665" y="1400.0" type="curve" smooth="yes"/>
      <point x="1016.7733333333334" y="1400.0" type="line" smooth="yes"/>
      <point x="959.5066666666667" y="1400.0"/>
      <point x="927.1199999999999" y="1365.6399999999999"/>
      <point x="927.1199999999999" y="1313.773333333333" type="curve" smooth="yes"/>
      <point x="927.1199999999999" y="1262.7066666666665"/>
      <point x="954.4666666666668" y="1233.1066666666668"/>
      <point x="1008.4400000000002" y="1218.04" type="curve" smooth="yes"/>
      <point x="1046.4" y="1208.84" type="line" smooth="yes"/>
      <point x="1080.6399999999999" y="1200.2"/>
      <point x="1096.1733333333334" y="1179.88"/>
      <point x="1099.7333333333331" y="1128.0133333333333" type="curve" smooth="yes"/>
    </contour>
  </outline>
</glyph>
<glyph name="V" format="2">
  <advance width="1470.44"/>
  <unicode hex="0056"/>
  <outline>
    <contour>
      <point x="965.9066666666666" y="1315.3733333333332" type="curve" smooth="yes"/>
      <point x="965.9066666666666" y="1272.3066666666666"/>
      <point x="988.6666666666666" y="1249.6"/>
      <point x="1024.0666666666666" y="1232.7733333333333" type="curve" smooth="yes"/>
      <point x="1068.946666666667" y="1217.5466666666666" type="line" smooth="yes"/>
      <point x="1112.0533333333333" y="1198.6133333333335"/>
      <point x="1119.3733333333332" y="1170.7066666666667"/>
      <point x="1101.4133333333332" y="1118.64" type="curve" smooth="yes"/>
      <point x="762.7333333333333" y="127.82666666666665" type="line"/>
      <point x="868.5333333333333" y="241.51999999999998" type="line"/>
      <point x="581.9466666666666" y="1097.28" type="line" smooth="yes"/>
      <point x="558.4266666666666" y="1167.2800000000002"/>
      <point x="569.76" y="1201.5466666666666"/>
      <point x="603.6533333333333" y="1216.7466666666667" type="curve" smooth="yes"/>
      <point x="648.4399999999999" y="1231.9733333333331" type="line" smooth="yes"/>
      <point x="687.1333333333333" y="1250.3999999999999"/>
      <point x="706.6933333333334" y="1274.6133333333332"/>
      <point x="706.6933333333334" y="1315.3733333333332" type="curve" smooth="yes"/>
      <point x="706.6933333333334" y="1368.04"/>
      <point x="677.5066666666667" y="1400.0"/>
      <point x="611.3466666666667" y="1400.0" type="curve" smooth="yes"/>
      <point x="123.45333333333333" y="1400.0" type="line" smooth="yes"/>
      <point x="58.46666666666667" y="1400.0"/>
      <point x="28.2" y="1368.04"/>
      <point x="28.2" y="1315.3733333333332" type="curve" smooth="yes"/>
      <point x="28.2" y="1276.6933333333336"/>
      <point x="43.72" y="1247.1333333333334"/>
      <point x="77.13333333333334" y="1229.9466666666667" type="curve" smooth="yes"/>
      <point x="108.8" y="1215.6266666666668" type="line" smooth="yes"/>
      <point x="146.62239392412738" y="1196.0023474767831"/>
      <point x="161.6098952160286" y="1176.350987741624"/>
      <point x="180.97333333333333" y="1120.5466666666669" type="curve" smooth="yes"/>
      <point x="491.61333333333334" y="211.73333333333332" type="line" smooth="yes"/>
      <point x="503.7155089107969" y="175.45969102968243"/>
      <point x="517.7866666666666" y="145.26296296296294"/>
      <point x="517.7866666666666" y="120.4" type="curve" smooth="yes"/>
      <point x="517.7866666666666" y="84.29333333333332" type="line" smooth="yes"/>
      <point x="517.7866666666666" y="28.333333333333336"/>
      <point x="547.3733333333333" y="0.0"/>
      <point x="590.6800000000001" y="0.0" type="curve" smooth="yes"/>
      <point x="879.8933333333333" y="0.0" type="line" smooth="yes"/>
      <point x="922.92" y="0.0"/>
      <point x="954.9066666666666" y="29.133333333333333"/>
      <point x="954.9066666666666" y="81.46666666666667" type="curve" smooth="yes"/>
      <point x="954.9066666666666" y="117.2" type="line" smooth="yes"/>
      <point x="954.9066666666666" y="153.57641025641024"/>
      <point x="967.5810945425844" y="183.0460733059487"/>
      <point x="991.5066666666668" y="251.72000000000003" type="curve" smooth="yes"/>
      <point x="1280.4533333333334" y="1098.2266666666667" type="line" smooth="yes"/>
      <point x="1306.9466666666665" y="1175.96"/>
      <point x="1323.6533333333334" y="1199.0800000000002"/>
      <point x="1362.0933333333332" y="1218.0266666666669" type="curve" smooth="yes"/>
      <point x="1396.1599999999999" y="1232.7733333333333" type="line" smooth="yes"/>
      <point x="1436.36" y="1253.2133333333334"/>
      <point x="1454.3200000000002" y="1275.84"/>
      <point x="1454.3200000000002" y="1315.3733333333332" type="curve" smooth="yes"/>
      <point x="1454.3200000000002" y="1367.2666666666667"/>
      <point x="1424.4266666666665" y="1400.0"/>
      <point x="1358.9733333333334" y="1400.0" type="curve" smooth="yes"/>
      <point x="1061.16" y="1400.0" type="line" smooth="yes"/>
      <point x="995.8" y="1400.0"/>
      <point x="965.9066666666666" y="1368.04"/>
    </contour>
  </outline>
</glyph>
<glyph name="W" format="2">
  <advance width="2170.0533333333333"/>
  <unicode hex="0057"/>
  <anchor x="1139.1066666666668" y="1492.2133333333331" name="center"/>
  <outline>
    <contour>
      <point x="1018.4533333333331" y="1115.573333333333" type="line"/>
      <point x="693.8800000000001" y="124.29333333333332" type="line"/>
      <point x="838.72" y="233.98666666666665" type="line"/>
      <point x="566.7466666666667" y="1094.9466666666667" type="line" smooth="yes"/>
      <point x="542.56" y="1172.0800000000002"/>
      <point x="552.5866666666666" y="1208.84"/>
      <point x="588.08" y="1225.1733333333332" type="curve" smooth="yes"/>
      <point x="622.9333333333333" y="1235.1733333333332" type="line" smooth="yes"/>
      <point x="657.6266666666666" y="1251.2"/>
      <point x="675.5866666666666" y="1277.4399999999998"/>
      <point x="675.5866666666666" y="1315.3733333333332" type="curve" smooth="yes"/>
      <point x="675.5866666666666" y="1368.04"/>
      <point x="646.4" y="1400.0"/>
      <point x="580.7066666666666" y="1400.0" type="curve" smooth="yes"/>
      <point x="115.97333333333334" y="1400.0" type="line" smooth="yes"/>
      <point x="50.986666666666665" y="1400.0"/>
      <point x="20.813333333333336" y="1368.04"/>
      <point x="20.813333333333336" y="1315.3733333333332" type="curve" smooth="yes"/>
      <point x="20.813333333333336" y="1275.9466666666667"/>
      <point x="36.33333333333333" y="1247.6000000000001"/>
      <point x="70.12" y="1229.9466666666667" type="curve" smooth="yes"/>
      <point x="101.78666666666668" y="1215.3466666666668" type="line" smooth="yes"/>
      <point x="139.58666666666667" y="1195.24"/>
      <point x="155.62666666666667" y="1176.2133333333334"/>
      <point x="173.58666666666667" y="1120.5466666666669" type="curve" smooth="yes"/>
      <point x="468.76" y="204.66666666666666" type="line" smooth="yes"/>
      <point x="481.2133333333333" y="165.20000000000002"/>
      <point x="487.73333333333335" y="141.74666666666667"/>
      <point x="487.73333333333335" y="121.41333333333334" type="curve" smooth="yes"/>
      <point x="487.73333333333335" y="83.82666666666665" type="line" smooth="yes"/>
      <point x="487.73333333333335" y="28.14666666666667"/>
      <point x="518.8266666666666" y="0.0"/>
      <point x="560.6266666666667" y="0.0" type="curve" smooth="yes"/>
      <point x="821.4133333333333" y="0.0" type="line" smooth="yes"/>
      <point x="862.04" y="0.0"/>
      <point x="893.6" y="28.14666666666667"/>
      <point x="893.6" y="83.82666666666665" type="curve" smooth="yes"/>
      <point x="893.6" y="124.02666666666667" type="line" smooth="yes"/>
      <point x="893.6" y="158.14666666666665"/>
      <point x="899.7333333333332" y="195.18666666666664"/>
      <point x="916.5466666666666" y="245.96" type="curve" smooth="yes"/>
      <point x="1193.7066666666667" y="1083.1066666666666" type="line"/>
    </contour>
    <contour>
      <point x="1698.36" y="1315.3733333333332" type="curve" smooth="yes"/>
      <point x="1698.36" y="1278.2399999999998"/>
      <point x="1717.4" y="1252.7066666666665"/>
      <point x="1746.5866666666666" y="1238.3733333333332" type="curve" smooth="yes"/>
      <point x="1786.1466666666668" y="1225.1733333333332" type="line" smooth="yes"/>
      <point x="1828.3155682225754" y="1206.118342984715"/>
      <point x="1833.15434243689" y="1174.9479479504928"/>
      <point x="1815.6133333333335" y="1117.6133333333335" type="curve" smooth="yes"/>
      <point x="1510.4533333333334" y="123.91999999999999" type="line"/>
      <point x="1643.72" y="233.61333333333332" type="line"/>
      <point x="1384.6933333333334" y="1094.9466666666667" type="line" smooth="yes"/>
      <point x="1361.0800000000002" y="1173.4133333333332"/>
      <point x="1369.0933333333332" y="1206.8666666666666"/>
      <point x="1401.2266666666667" y="1220.7466666666667" type="curve" smooth="yes"/>
      <point x="1438.48" y="1231.9733333333331" type="line" smooth="yes"/>
      <point x="1478.2" y="1251.2"/>
      <point x="1496.6399999999999" y="1274.9866666666667"/>
      <point x="1496.6399999999999" y="1315.3733333333332" type="curve" smooth="yes"/>
      <point x="1496.6399999999999" y="1368.04"/>
      <point x="1467.1733333333332" y="1400.0"/>
      <point x="1401.3866666666668" y="1400.0" type="curve" smooth="yes"/>
      <point x="961.28" y="1400.0" type="line" smooth="yes"/>
      <point x="897.1866666666667" y="1400.0"/>
      <point x="866.0266666666666" y="1368.04"/>
      <point x="866.0266666666666" y="1315.3733333333332" type="curve" smooth="yes"/>
      <point x="866.0266666666666" y="1277.4399999999998"/>
      <point x="882.08" y="1255.1733333333336"/>
      <point x="914.36" y="1238.6933333333334" type="curve" smooth="yes"/>
      <point x="942.2" y="1226.3333333333333" type="line" smooth="yes"/>
      <point x="971.88" y="1211.2933333333333"/>
      <point x="983.2" y="1186.5600000000002"/>
      <point x="1003.3600000000001" y="1120.5466666666669" type="curve" smooth="yes"/>
      <point x="1281.5866666666668" y="205.22666666666666" type="line" smooth="yes"/>
      <point x="1293.9333333333334" y="163.98666666666668"/>
      <point x="1300.7466666666667" y="141.9333333333333"/>
      <point x="1300.7466666666667" y="121.97333333333334" type="curve" smooth="yes"/>
      <point x="1300.7466666666667" y="84.29333333333332" type="line" smooth="yes"/>
      <point x="1300.7466666666667" y="28.333333333333336"/>
      <point x="1332.2133333333334" y="0.0"/>
      <point x="1373.5466666666669" y="0.0" type="curve" smooth="yes"/>
      <point x="1637.6" y="0.0" type="line" smooth="yes"/>
      <point x="1678.6000000000001" y="0.0"/>
      <point x="1709.6000000000001" y="28.333333333333336"/>
      <point x="1709.6000000000001" y="84.29333333333332" type="curve" smooth="yes"/>
      <point x="1709.6000000000001" y="124.21333333333332" type="line" smooth="yes"/>
      <point x="1709.6000000000001" y="158.42666666666668"/>
      <point x="1717.1866666666667" y="195.56"/>
      <point x="1732.7333333333333" y="246.0533333333333" type="curve" smooth="yes"/>
      <point x="1994.146666666667" y="1096.0800000000002" type="line" smooth="yes"/>
      <point x="2018.3066666666668" y="1175.2133333333334"/>
      <point x="2035.6533333333334" y="1199.4133333333334"/>
      <point x="2073.9466666666667" y="1217.7466666666667" type="curve" smooth="yes"/>
      <point x="2107.64" y="1232.7733333333333" type="line" smooth="yes"/>
      <point x="2148.5866666666666" y="1253.68"/>
      <point x="2166.0799999999995" y="1276.5866666666666"/>
      <point x="2166.0799999999995" y="1315.3733333333332" type="curve" smooth="yes"/>
      <point x="2166.0799999999995" y="1367.2666666666667"/>
      <point x="2135.813333333333" y="1400.0"/>
      <point x="2070.826666666667" y="1400.0" type="curve" smooth="yes"/>
      <point x="1793.6133333333332" y="1400.0" type="line" smooth="yes"/>
      <point x="1728.9599999999998" y="1400.0"/>
      <point x="1698.36" y="1368.04"/>
    </contour>
  </outline>
</glyph>
<glyph name="X" format="2">
  <advance width="1460.3600000000001"/>
  <unicode hex="0058"/>
  <outline>
    <contour>
      <point x="1244.0933333333332" y="285.8266666666667" type="curve" smooth="yes"/>
      <point x="636.7866666666666" y="1126.92" type="line" smooth="yes"/>
      <point x="598.3424413116699" y="1179.4220603149633"/>
      <point x="603.3702599797086" y="1201.4596158307968"/>
      <point x="648.0133333333332" y="1220.7466666666667" type="curve" smooth="yes"/>
      <point x="673.4533333333334" y="1229.9466666666667" type="line" smooth="yes"/>
      <point x="706.28" y="1247.0266666666666"/>
      <point x="723.1866666666667" y="1272.2"/>
      <point x="723.1866666666667" y="1315.3733333333332" type="curve" smooth="yes"/>
      <point x="723.1866666666667" y="1367.24"/>
      <point x="694.0933333333332" y="1400.0"/>
      <point x="627.9333333333334" y="1400.0" type="curve" smooth="yes"/>
      <point x="139.42666666666665" y="1400.0" type="line" smooth="yes"/>
      <point x="73.86666666666667" y="1400.0"/>
      <point x="43.973333333333336" y="1368.04"/>
      <point x="43.973333333333336" y="1315.3733333333332" type="curve" smooth="yes"/>
      <point x="43.973333333333336" y="1272.3066666666666"/>
      <point x="57.81333333333333" y="1251.0133333333333"/>
      <point x="106.91999999999999" y="1224.4666666666667" type="curve" smooth="yes"/>
      <point x="148.36417776967255" y="1205.5639686288812"/>
      <point x="163.45333333333332" y="1183.8266666666668"/>
      <point x="203.27999999999997" y="1128.1066666666666" type="curve" smooth="yes"/>
      <point x="800.4133333333334" y="297.47999999999996" type="line" smooth="yes"/>
      <point x="843.9066666666668" y="238.22666666666663"/>
      <point x="870.1466666666666" y="209.01333333333335"/>
      <point x="802.96" y="179.74666666666667" type="curve" smooth="yes"/>
      <point x="753.2266666666667" y="158.01333333333335"/>
      <point x="731.2533333333333" y="131.48583333333335"/>
      <point x="731.2533333333333" y="84.62666666666667" type="curve" smooth="yes"/>
      <point x="731.2533333333333" y="31.960000000000004"/>
      <point x="761.4266666666666" y="0.0"/>
      <point x="826.5066666666667" y="0.0" type="curve" smooth="yes"/>
      <point x="1334.3066666666666" y="0.0" type="line" smooth="yes"/>
      <point x="1399.2" y="0.0"/>
      <point x="1429.5600000000002" y="31.960000000000004"/>
      <point x="1429.5600000000002" y="84.62666666666667" type="curve" smooth="yes"/>
      <point x="1429.5600000000002" y="127.38666666666666"/>
      <point x="1404.8933333333334" y="156.16000000000003"/>
      <point x="1364.7066666666665" y="175.85333333333332" type="curve" smooth="yes"/>
      <point x="1309.6186445539372" y="198.89159660645612"/>
      <point x="1299.4148477127476" y="209.5025711030693"/>
    </contour>
    <contour>
      <point x="856.3199999999999" y="660.1333333333333" type="line"/>
      <point x="1161.2" y="1075.9466666666667" type="line" smooth="yes"/>
      <point x="1233.0342918249582" y="1173.5317788942061"/>
      <point x="1253.7116362819886" y="1197.9541616025538"/>
      <point x="1287.0000000000002" y="1213.9466666666667" type="curve" smooth="yes"/>
      <point x="1350.7066666666667" y="1248.6933333333334"/>
      <point x="1376.32" y="1277.1733333333334"/>
      <point x="1376.32" y="1317.773333333333" type="curve" smooth="yes"/>
      <point x="1376.32" y="1370.0666666666666"/>
      <point x="1346.4266666666665" y="1400.0"/>
      <point x="1280.9733333333331" y="1400.0" type="curve" smooth="yes"/>
      <point x="1004.6933333333333" y="1400.0" type="line" smooth="yes"/>
      <point x="941.7333333333333" y="1400.0"/>
      <point x="913.8666666666667" y="1368.04"/>
      <point x="913.8666666666667" y="1315.3733333333332" type="curve" smooth="yes"/>
      <point x="913.8666666666667" y="1271.9333333333332"/>
      <point x="932.3733333333333" y="1246.8133333333333"/>
      <point x="966.8933333333333" y="1226.7466666666667" type="curve" smooth="yes"/>
      <point x="996.9866666666667" y="1216.3999999999999" type="line" smooth="yes"/>
      <point x="1031.2266666666667" y="1200.9466666666667"/>
      <point x="1025.6933333333334" y="1181.4533333333334"/>
      <point x="996.7066666666666" y="1141.7733333333333" type="curve" smooth="yes"/>
      <point x="695.3733333333334" y="726.6266666666667" type="line"/>
    </contour>
    <contour>
      <point x="562.3199999999999" y="735.6" type="line"/>
      <point x="262.1066666666666" y="329.3066666666667" type="line" smooth="yes"/>
      <point x="213.78941341770746" y="264.8041201265612"/>
      <point x="168.19201958342398" y="211.22290849360135"/>
      <point x="106.86666666666667" y="178.05333333333334" type="curve" smooth="yes"/>
      <point x="52.2" y="148.31999999999996"/>
      <point x="35.57333333333334" y="123.38666666666666"/>
      <point x="35.57333333333334" y="84.82666666666667" type="curve" smooth="yes"/>
      <point x="35.57333333333334" y="31.960000000000004"/>
      <point x="65.56" y="0.0"/>
      <point x="130.82666666666665" y="0.0" type="curve" smooth="yes"/>
      <point x="403.17333333333335" y="0.0" type="line" smooth="yes"/>
      <point x="464.44" y="0.0"/>
      <point x="493.62666666666667" y="32.76"/>
      <point x="493.62666666666667" y="84.62666666666667" type="curve" smooth="yes"/>
      <point x="493.62666666666667" y="125.38666666666666"/>
      <point x="477.25333333333333" y="148.0"/>
      <point x="441.4" y="167.22666666666666" type="curve" smooth="yes"/>
      <point x="418.05333333333334" y="174.54666666666665" type="line" smooth="yes"/>
      <point x="383.9043710350252" y="186.73298651335494"/>
      <point x="380.44927188207873" y="202.80407738214726"/>
      <point x="418.54666666666674" y="253.2133333333333" type="curve" smooth="yes"/>
      <point x="723.24" y="665.5333333333333" type="line"/>
    </contour>
  </outline>
</glyph>
<glyph name="Y" format="2">
  <advance width="1380.3733333333334"/>
  <unicode hex="0059"/>
  <anchor x="779.0799999999999" y="1445.6533333333334" name="center"/>
  <outline>
    <contour>
      <point x="843.2266666666666" y="407.53333333333336" type="line"/>
      <point x="1193.36" y="1097.48" type="line" smooth="yes"/>
      <point x="1242.6533333333332" y="1194.5866666666668"/>
      <point x="1257.7333333333333" y="1205.36"/>
      <point x="1291.226666666667" y="1223.5466666666666" type="curve" smooth="yes"/>
      <point x="1305.2933333333333" y="1231.5733333333333" type="line" smooth="yes"/>
      <point x="1341.4" y="1252.32"/>
      <point x="1355.12" y="1277.0533333333333"/>
      <point x="1355.12" y="1315.3733333333332" type="curve" smooth="yes"/>
      <point x="1355.12" y="1367.2666666666667"/>
      <point x="1325.2266666666667" y="1400.0"/>
      <point x="1259.8666666666666" y="1400.0" type="curve" smooth="yes"/>
      <point x="996.2266666666666" y="1400.0" type="line" smooth="yes"/>
      <point x="930.8666666666667" y="1400.0"/>
      <point x="900.9733333333332" y="1368.04"/>
      <point x="900.9733333333332" y="1315.3733333333332" type="curve" smooth="yes"/>
      <point x="900.9733333333332" y="1272.3066666666666"/>
      <point x="920.64" y="1243.9866666666667"/>
      <point x="949.9066666666666" y="1229.9466666666667" type="curve" smooth="yes"/>
      <point x="986.9866666666667" y="1217.5466666666666" type="line" smooth="yes"/>
      <point x="1033.8266666666666" y="1196.5733333333335"/>
      <point x="1036.9466666666667" y="1171.28"/>
      <point x="1010.8" y="1119.2" type="curve" smooth="yes"/>
      <point x="684.0533333333333" y="466.26666666666665" type="line"/>
      <point x="853.6666666666666" y="548.0933333333334" type="line"/>
      <point x="580.0133333333334" y="1097.0933333333335" type="line" smooth="yes"/>
      <point x="546.08" y="1165.8000000000002"/>
      <point x="546.0" y="1189.9333333333332"/>
      <point x="605.2133333333334" y="1216.7466666666667" type="curve" smooth="yes"/>
      <point x="631.1733333333333" y="1224.32" type="line" smooth="yes"/>
      <point x="673.1733333333334" y="1243.4133333333332"/>
      <point x="692.4399999999999" y="1270.7066666666665"/>
      <point x="692.4399999999999" y="1315.3733333333332" type="curve" smooth="yes"/>
      <point x="692.4399999999999" y="1368.04"/>
      <point x="661.3733333333332" y="1400.0"/>
      <point x="595.9866666666666" y="1400.0" type="curve" smooth="yes"/>
      <point x="120.80000000000001" y="1400.0" type="line" smooth="yes"/>
      <point x="55.346666666666664" y="1400.0"/>
      <point x="25.453333333333333" y="1368.04"/>
      <point x="25.453333333333333" y="1315.3733333333332" type="curve" smooth="yes"/>
      <point x="25.453333333333333" y="1277.6666666666665"/>
      <point x="40.04" y="1247.0266666666669"/>
      <point x="76.08" y="1229.5466666666666" type="curve" smooth="yes"/>
      <point x="104.88" y="1215.7466666666667" type="line" smooth="yes"/>
      <point x="139.01333333333335" y="1198.52"/>
      <point x="148.26666666666665" y="1180.6266666666666"/>
      <point x="179.34666666666666" y="1120.5466666666669" type="curve" smooth="yes"/>
      <point x="571.0266666666666" y="365.64" type="line"/>
    </contour>
    <contour>
      <point x="509.56" y="529.2266666666666" type="line"/>
      <point x="509.56" y="274.76" type="line" smooth="yes"/>
      <point x="509.56" y="236.81333333333336"/>
      <point x="497.2533333333334" y="210.25333333333333"/>
      <point x="456.2266666666667" y="191.16000000000003" type="curve" smooth="yes"/>
      <point x="418.4533333333333" y="175.65333333333334" type="line" smooth="yes"/>
      <point x="379.0533333333333" y="156.10666666666663"/>
      <point x="359.92" y="127.69333333333331"/>
      <point x="359.92" y="84.62666666666667" type="curve" smooth="yes"/>
      <point x="359.92" y="31.21333333333333"/>
      <point x="391.3066666666666" y="0.0"/>
      <point x="455.17333333333335" y="0.0" type="curve" smooth="yes"/>
      <point x="936.7066666666667" y="0.0" type="line" smooth="yes"/>
      <point x="1000.5733333333335" y="0.0"/>
      <point x="1031.96" y="31.21333333333333"/>
      <point x="1031.96" y="84.62666666666667" type="curve" smooth="yes"/>
      <point x="1031.96" y="128.11999999999998"/>
      <point x="1012.8266666666666" y="156.01333333333332"/>
      <point x="973.3333333333334" y="175.65333333333334" type="curve" smooth="yes"/>
      <point x="935.56" y="191.16000000000003" type="line" smooth="yes"/>
      <point x="897.1866666666666" y="208.88"/>
      <point x="882.3199999999999" y="234.68"/>
      <point x="882.3199999999999" y="274.76" type="curve" smooth="yes"/>
      <point x="882.3199999999999" y="529.2266666666666" type="line"/>
    </contour>
  </outline>
</glyph>
<glyph name="Z" format="2">
  <advance width="1261.4799999999998"/>
  <unicode hex="005A"/>
  <anchor x="682.0933333333334" y="1490.3066666666666" name="center"/>
  <outline>
    <contour>
      <point x="1150.8666666666666" y="1191.72" type="line" smooth="yes"/>
      <point x="1183.2156748763834" y="1241.4770928307682"/>
      <point x="1197.2533333333333" y="1280.8506666666667"/>
      <point x="1197.2533333333333" y="1312.7333333333333" type="curve" smooth="yes"/>
      <point x="1197.2533333333333" y="1365.8698039215687"/>
      <point x="1164.6533333333334" y="1400.0"/>
      <point x="1106.52" y="1400.0" type="curve" smooth="yes"/>
      <point x="435.93333333333334" y="1400.0" type="line" smooth="yes"/>
      <point x="347.32" y="1400.0"/>
      <point x="307.02666666666664" y="1438.6000000000001"/>
      <point x="244.17333333333335" y="1438.6000000000001" type="curve" smooth="yes"/>
      <point x="176.89333333333335" y="1438.6000000000001"/>
      <point x="141.6" y="1401.44"/>
      <point x="124.26666666666667" y="1316.9066666666668" type="curve" smooth="yes"/>
      <point x="74.36" y="1077.7333333333333" type="line" smooth="yes"/>
      <point x="63.82666666666667" y="1025.76"/>
      <point x="88.33333333333331" y="989.88"/>
      <point x="138.2" y="980.36" type="curve" smooth="yes"/>
      <point x="184.7733333333333" y="971.2133333333334"/>
      <point x="224.64000000000001" y="987.3333333333333"/>
      <point x="250.93333333333334" y="1045.3733333333332" type="curve" smooth="yes"/>
      <point x="279.1733333333333" y="1112.72" type="line" smooth="yes"/>
      <point x="316.30560341596873" y="1197.151908504024"/>
      <point x="365.3288484848485" y="1227.4933333333333"/>
      <point x="457.61333333333334" y="1227.4933333333333" type="curve" smooth="yes"/>
      <point x="874.5733333333333" y="1227.4933333333333" type="line"/>
      <point x="830.2533333333333" y="1344.7866666666666" type="line"/>
      <point x="86.22666666666667" y="210.05333333333334" type="line" smooth="yes"/>
      <point x="54.80814548013972" y="161.38324085687663"/>
      <point x="38.440000000000005" y="121.52140350877193"/>
      <point x="38.440000000000005" y="88.38666666666667" type="curve" smooth="yes"/>
      <point x="38.440000000000005" y="34.58436781609195"/>
      <point x="70.94666666666666" y="0.0"/>
      <point x="128.61333333333334" y="0.0" type="curve" smooth="yes"/>
      <point x="832.1333333333334" y="0.0" type="line" smooth="yes"/>
      <point x="919.8101960784314" y="0.0"/>
      <point x="959.6133333333333" y="-35.4"/>
      <point x="1018.3733333333333" y="-35.4" type="curve" smooth="yes"/>
      <point x="1089.8533333333335" y="-35.4"/>
      <point x="1118.8533333333332" y="0.8666666666666658"/>
      <point x="1142.013333333333" y="86.29333333333334" type="curve" smooth="yes"/>
      <point x="1213.3866666666668" y="365.93333333333334" type="line" smooth="yes"/>
      <point x="1229.92" y="426.82666666666665"/>
      <point x="1204.2533333333333" y="472.81333333333333"/>
      <point x="1155.6666666666667" y="482.92" type="curve" smooth="yes"/>
      <point x="1107.3733333333334" y="492.87999999999994"/>
      <point x="1072.0933333333332" y="477.92"/>
      <point x="1045.92" y="421.82666666666665" type="curve" smooth="yes"/>
      <point x="1002.0266666666666" y="317.5333333333333" type="line" smooth="yes"/>
      <point x="954.3186313709627" y="207.72612687828567"/>
      <point x="898.8877519379845" y="172.41333333333333"/>
      <point x="797.7466666666666" y="172.41333333333333" type="curve" smooth="yes"/>
      <point x="160.5066666666667" y="172.41333333333333" type="line"/>
      <point x="414.50666666666666" y="66.36" type="line"/>
    </contour>
  </outline>
</glyph>
<glyph name="bracketleft" format="2">
  <advance width="705.1733333333333"/>
  <unicode hex="005B"/>
  <outline>
    <contour>
      <point x="416.4266666666667" y="1232.1066666666668" type="line" smooth="yes"/>
      <point x="416.4266666666667" y="1297.6666666666667"/>
      <point x="439.48271844660195" y="1321.1333333333332"/>
      <point x="501.93333333333334" y="1321.1333333333332" type="curve" smooth="yes"/>
      <point x="604.9866666666667" y="1321.1333333333332" type="line" smooth="yes"/>
      <point x="663.0266666666665" y="1321.1333333333332"/>
      <point x="688.7466666666668" y="1348.6933333333334"/>
      <point x="688.7466666666668" y="1399.0266666666666" type="curve" smooth="yes"/>
      <point x="688.7466666666668" y="1443.52"/>
      <point x="663.0266666666665" y="1476.4933333333333"/>
      <point x="604.9866666666667" y="1476.4933333333333" type="curve" smooth="yes"/>
      <point x="249.26666666666668" y="1476.4933333333333" type="line" smooth="yes"/>
      <point x="176.66666666666666" y="1476.4933333333333"/>
      <point x="149.74666666666667" y="1440.72"/>
      <point x="149.74666666666667" y="1360.32" type="curve" smooth="yes"/>
      <point x="149.74666666666667" y="-141.69333333333333" type="line" smooth="yes"/>
      <point x="149.74666666666667" y="-222.18666666666667"/>
      <point x="176.66666666666666" y="-258.05333333333334"/>
      <point x="249.26666666666668" y="-258.05333333333334" type="curve" smooth="yes"/>
      <point x="604.9866666666667" y="-258.05333333333334" type="line" smooth="yes"/>
      <point x="663.0266666666665" y="-258.05333333333334"/>
      <point x="688.7466666666668" y="-224.98666666666668"/>
      <point x="688.7466666666668" y="-180.58666666666667" type="curve" smooth="yes"/>
      <point x="688.7466666666668" y="-130.16000000000003"/>
      <point x="662.9333333333333" y="-102.69333333333333"/>
      <point x="604.9866666666667" y="-102.69333333333333" type="curve" smooth="yes"/>
      <point x="501.93333333333334" y="-102.69333333333333" type="line" smooth="yes"/>
      <point x="439.48271844660195" y="-102.69333333333333"/>
      <point x="416.4266666666667" y="-79.13333333333334"/>
      <point x="416.4266666666667" y="-13.2" type="curve" smooth="yes"/>
    </contour>
  </outline>
</glyph>
<glyph name="asciicircum" format="2">
  <advance width="962.5600000000001"/>
  <unicode hex="005E"/>
  <outline>
    <contour>
      <point x="544.5466666666667" y="1216.746666666667" type="line"/>
      <point x="271.24" y="800.2800000000001" type="line" smooth="yes"/>
      <point x="210.9066666666667" y="714.1999999999999"/>
      <point x="153.0266666666667" y="702.2533333333333"/>
      <point x="104.77333333333333" y="733.1866666666667" type="curve" smooth="yes"/>
      <point x="64.48" y="758.52"/>
      <point x="57.94666666666667" y="820.0133333333334"/>
      <point x="93.54666666666667" y="886.9066666666668" type="curve" smooth="yes"/>
      <point x="308.28000000000003" y="1295.1733333333332" type="line" smooth="yes"/>
      <point x="371.32" y="1413.2"/>
      <point x="414.75999999999993" y="1436.4666666666667"/>
      <point x="481.74666666666667" y="1436.4666666666667" type="curve" smooth="yes"/>
      <point x="549.1066666666667" y="1436.4666666666667"/>
      <point x="592.5466666666666" y="1413.1066666666666"/>
      <point x="655.4933333333333" y="1295.1733333333332" type="curve" smooth="yes"/>
      <point x="869.1066666666666" y="886.9066666666668" type="line" smooth="yes"/>
      <point x="904.7066666666666" y="820.0133333333334"/>
      <point x="898.1733333333333" y="758.52"/>
      <point x="857.9733333333332" y="733.1866666666667" type="curve" smooth="yes"/>
      <point x="809.3466666666667" y="702.2533333333333"/>
      <point x="751.3733333333333" y="713.8266666666666"/>
      <point x="691.1333333333333" y="800.2800000000001" type="curve" smooth="yes"/>
      <point x="419.22666666666663" y="1216.746666666667" type="line"/>
    </contour>
  </outline>
</glyph>
<glyph name="underscore" format="2">
  <advance width="968.4"/>
  <unicode hex="005F"/>
  <outline>
    <contour>
      <point x="-3.2266666666666666" y="-270.4933333333333" type="curve" smooth="yes"/>
      <point x="-3.2266666666666666" y="-332.96"/>
      <point x="19.093333333333334" y="-374.85333333333335"/>
      <point x="70.79999999999998" y="-374.85333333333335" type="curve" smooth="yes"/>
      <point x="897.1333333333334" y="-374.85333333333335" type="line" smooth="yes"/>
      <point x="949.1333333333333" y="-374.85333333333335"/>
      <point x="971.6266666666668" y="-332.96"/>
      <point x="971.6266666666668" y="-270.4933333333333" type="curve" smooth="yes"/>
      <point x="971.6266666666668" y="-207.56"/>
      <point x="949.1333333333333" y="-165.93333333333334"/>
      <point x="897.1333333333334" y="-165.93333333333334" type="curve" smooth="yes"/>
      <point x="70.79999999999998" y="-165.93333333333334" type="line" smooth="yes"/>
      <point x="19.093333333333334" y="-165.93333333333334"/>
      <point x="-3.2266666666666666" y="-207.56"/>
    </contour>
  </outline>
</glyph>
